<?xml version="1.0" encoding="UTF-8" standalone="no"?>
<!DOCTYPE svg PUBLIC "-//W3C//DTD SVG 1.1//EN" "http://www.w3.org/Graphics/SVG/1.1/DTD/svg11.dtd">
<svg width="100%" height="100%" viewBox="0 0 629 376" version="1.1" xmlns="http://www.w3.org/2000/svg" xmlns:xlink="http://www.w3.org/1999/xlink" xml:space="preserve" xmlns:serif="http://www.serif.com/" style="fill-rule:evenodd;clip-rule:evenodd;stroke-linejoin:round;stroke-miterlimit:2;">
    <g transform="matrix(1,0,0,1,-244,-1309)">
        <g id="CloudDay">
            <g>
                <path d="M584.57,1331.26C605.231,1317.34 630.139,1309.25 656.912,1309.35C699.876,1309.51 737.878,1330.73 761.173,1363.18C824.441,1371.56 873.22,1425.89 872.974,1491.39C872.759,1548.61 835.193,1597.03 783.466,1613.63C760.069,1647.03 721.226,1668.84 677.38,1668.67C648.04,1668.56 621.014,1658.63 599.403,1642.01C575.703,1668.39 541.278,1684.95 503.049,1684.81C452.255,1684.62 408.397,1655 387.584,1612.18C382.705,1612.72 377.737,1612.99 372.702,1612.97C301.592,1612.71 244.076,1554.76 244.343,1483.65C244.61,1412.54 302.559,1355.02 373.669,1355.29C386.69,1355.34 399.254,1357.32 411.085,1360.96C434.728,1329.87 472.157,1309.85 514.184,1310.01C540.181,1310.11 564.362,1317.91 584.57,1331.26Z" style="fill:url(#_Radial1);"/>
            </g>
            <g transform="matrix(5.70269,0,0,3.04172,-1392.81,-2973.71)">
                <g transform="matrix(50.5025,0,0,94.6834,309.31,1499.68)">
                    <path d="M0.077,-0.01C0.075,-0.011 0.069,-0.015 0.061,-0.022C0.051,-0.028 0.042,-0.032 0.032,-0.034C0.025,-0.035 0.021,-0.041 0.021,-0.052L0.02,-0.107C0.02,-0.119 0.02,-0.128 0.021,-0.134C0.023,-0.15 0.024,-0.174 0.024,-0.207C0.025,-0.214 0.025,-0.223 0.025,-0.236C0.025,-0.271 0.026,-0.326 0.027,-0.401L0.027,-0.433C0.027,-0.46 0.028,-0.485 0.031,-0.506C0.032,-0.517 0.034,-0.534 0.035,-0.558C0.036,-0.591 0.039,-0.615 0.042,-0.632L0.043,-0.64C0.043,-0.65 0.039,-0.658 0.031,-0.665C0.028,-0.667 0.025,-0.671 0.024,-0.676L0.024,-0.68C0.024,-0.684 0.025,-0.687 0.027,-0.689C0.028,-0.69 0.031,-0.691 0.036,-0.691C0.044,-0.69 0.053,-0.691 0.064,-0.692C0.074,-0.693 0.081,-0.694 0.085,-0.695C0.104,-0.698 0.118,-0.699 0.128,-0.699C0.151,-0.699 0.177,-0.693 0.206,-0.681C0.247,-0.664 0.267,-0.626 0.267,-0.568C0.267,-0.503 0.234,-0.448 0.169,-0.405C0.164,-0.402 0.16,-0.399 0.157,-0.396C0.154,-0.393 0.152,-0.391 0.152,-0.388C0.152,-0.385 0.154,-0.378 0.158,-0.369C0.161,-0.364 0.169,-0.345 0.182,-0.313L0.194,-0.285L0.213,-0.241C0.217,-0.232 0.224,-0.215 0.235,-0.191C0.245,-0.167 0.253,-0.146 0.26,-0.127C0.262,-0.122 0.264,-0.116 0.266,-0.11C0.268,-0.104 0.27,-0.098 0.272,-0.091C0.274,-0.088 0.275,-0.081 0.275,-0.072C0.274,-0.065 0.273,-0.055 0.273,-0.04C0.273,-0.035 0.272,-0.032 0.27,-0.03C0.268,-0.027 0.265,-0.026 0.262,-0.026C0.26,-0.026 0.257,-0.027 0.254,-0.029C0.244,-0.036 0.231,-0.043 0.214,-0.049C0.203,-0.052 0.195,-0.063 0.188,-0.081C0.179,-0.112 0.164,-0.154 0.143,-0.207C0.131,-0.236 0.121,-0.262 0.113,-0.286C0.112,-0.287 0.112,-0.29 0.111,-0.293C0.11,-0.296 0.108,-0.298 0.107,-0.297C0.104,-0.297 0.103,-0.295 0.103,-0.292L0.104,-0.284C0.105,-0.278 0.105,-0.269 0.105,-0.256C0.105,-0.243 0.104,-0.222 0.103,-0.191C0.104,-0.186 0.104,-0.177 0.104,-0.166C0.104,-0.149 0.104,-0.137 0.103,-0.128L0.102,-0.087C0.102,-0.073 0.101,-0.051 0.1,-0.022C0.1,-0.011 0.096,-0.006 0.089,-0.006C0.084,-0.006 0.08,-0.007 0.077,-0.01ZM0.115,-0.509C0.116,-0.509 0.118,-0.51 0.12,-0.511C0.121,-0.511 0.122,-0.512 0.123,-0.513C0.136,-0.523 0.148,-0.535 0.158,-0.548C0.159,-0.55 0.163,-0.555 0.17,-0.564C0.177,-0.572 0.182,-0.58 0.186,-0.589C0.188,-0.593 0.189,-0.597 0.189,-0.602C0.189,-0.608 0.187,-0.613 0.184,-0.618C0.181,-0.622 0.176,-0.624 0.171,-0.625C0.154,-0.628 0.137,-0.629 0.121,-0.628C0.112,-0.627 0.109,-0.623 0.111,-0.614C0.112,-0.612 0.112,-0.608 0.112,-0.603C0.112,-0.598 0.112,-0.595 0.111,-0.592L0.109,-0.551L0.11,-0.551L0.11,-0.516C0.11,-0.513 0.111,-0.511 0.113,-0.51L0.115,-0.509Z" style="fill:rgb(34,34,34);fill-rule:nonzero;"/>
                </g>
                <g transform="matrix(50.5025,0,0,94.6834,324.209,1499.68)">
                    <path d="M0.16,0.022C0.148,0.023 0.139,0.024 0.132,0.024C0.121,0.024 0.11,0.022 0.099,0.018C0.093,0.016 0.086,0.015 0.078,0.014C0.07,0.013 0.064,0.013 0.059,0.012C0.041,0.009 0.032,-0.001 0.031,-0.02L0.029,-0.057C0.028,-0.089 0.026,-0.113 0.025,-0.129C0.025,-0.134 0.024,-0.141 0.023,-0.149C0.022,-0.162 0.021,-0.172 0.021,-0.179C0.021,-0.184 0.022,-0.192 0.023,-0.201C0.021,-0.226 0.02,-0.251 0.02,-0.276C0.02,-0.288 0.021,-0.306 0.022,-0.33C0.023,-0.337 0.023,-0.348 0.023,-0.363L0.023,-0.401C0.023,-0.426 0.024,-0.444 0.027,-0.457C0.03,-0.476 0.032,-0.49 0.035,-0.499C0.042,-0.523 0.045,-0.549 0.045,-0.578C0.045,-0.593 0.046,-0.614 0.047,-0.642C0.048,-0.649 0.049,-0.654 0.052,-0.657C0.054,-0.659 0.058,-0.66 0.065,-0.659L0.072,-0.659C0.075,-0.659 0.077,-0.659 0.08,-0.66C0.103,-0.666 0.126,-0.669 0.149,-0.669C0.172,-0.669 0.199,-0.666 0.229,-0.659C0.238,-0.657 0.243,-0.655 0.246,-0.653C0.248,-0.651 0.249,-0.647 0.249,-0.641C0.25,-0.622 0.244,-0.611 0.229,-0.607C0.218,-0.603 0.207,-0.601 0.196,-0.601C0.19,-0.601 0.186,-0.601 0.183,-0.602L0.175,-0.603C0.168,-0.603 0.161,-0.601 0.154,-0.598C0.147,-0.595 0.141,-0.591 0.136,-0.587C0.13,-0.583 0.126,-0.58 0.124,-0.579C0.122,-0.577 0.121,-0.574 0.121,-0.571L0.121,-0.565C0.12,-0.556 0.121,-0.541 0.124,-0.521C0.126,-0.508 0.127,-0.495 0.127,-0.482C0.127,-0.472 0.126,-0.457 0.125,-0.437C0.124,-0.432 0.124,-0.423 0.124,-0.411C0.124,-0.406 0.124,-0.399 0.125,-0.392C0.125,-0.385 0.125,-0.376 0.124,-0.366C0.124,-0.357 0.125,-0.344 0.126,-0.327L0.127,-0.288C0.127,-0.283 0.128,-0.279 0.129,-0.277C0.13,-0.275 0.133,-0.274 0.138,-0.274L0.192,-0.275C0.199,-0.275 0.204,-0.274 0.207,-0.272C0.209,-0.269 0.211,-0.264 0.212,-0.257C0.213,-0.257 0.213,-0.257 0.213,-0.257L0.214,-0.239C0.214,-0.231 0.212,-0.225 0.209,-0.222C0.206,-0.219 0.198,-0.215 0.187,-0.212C0.169,-0.206 0.154,-0.203 0.142,-0.203C0.136,-0.203 0.132,-0.202 0.131,-0.201C0.129,-0.199 0.128,-0.195 0.128,-0.188L0.127,-0.159C0.127,-0.149 0.128,-0.135 0.129,-0.118C0.13,-0.11 0.131,-0.101 0.131,-0.091C0.13,-0.08 0.13,-0.073 0.13,-0.069C0.13,-0.061 0.131,-0.056 0.134,-0.054C0.136,-0.052 0.14,-0.052 0.147,-0.053C0.153,-0.054 0.162,-0.055 0.173,-0.055C0.184,-0.055 0.193,-0.055 0.201,-0.054C0.208,-0.053 0.214,-0.053 0.219,-0.052C0.228,-0.051 0.232,-0.046 0.231,-0.038C0.231,-0.032 0.231,-0.027 0.23,-0.024C0.23,-0.014 0.232,-0.007 0.236,-0.003C0.238,-0.001 0.239,0.001 0.239,0.002L0.241,0.01C0.241,0.013 0.24,0.016 0.238,0.019C0.235,0.021 0.232,0.022 0.227,0.021L0.199,0.02C0.19,0.02 0.177,0.021 0.16,0.022Z" style="fill:rgb(34,34,34);fill-rule:nonzero;"/>
                </g>
                <g transform="matrix(50.5025,0,0,94.6834,337.794,1499.68)">
                    <path d="M0.156,0C0.134,0.002 0.111,-0.001 0.088,-0.01C0.079,-0.015 0.069,-0.017 0.058,-0.017C0.051,-0.017 0.047,-0.018 0.045,-0.021C0.042,-0.024 0.041,-0.028 0.04,-0.035C0.04,-0.043 0.039,-0.051 0.036,-0.06C0.033,-0.068 0.032,-0.073 0.031,-0.075C0.024,-0.101 0.02,-0.126 0.02,-0.151C0.02,-0.169 0.022,-0.186 0.026,-0.203C0.029,-0.217 0.03,-0.228 0.031,-0.237C0.031,-0.247 0.036,-0.252 0.045,-0.252C0.061,-0.255 0.073,-0.256 0.081,-0.257L0.084,-0.257C0.097,-0.257 0.102,-0.251 0.1,-0.238C0.097,-0.218 0.095,-0.198 0.094,-0.177C0.094,-0.172 0.094,-0.166 0.093,-0.157C0.092,-0.148 0.092,-0.14 0.091,-0.134C0.09,-0.127 0.091,-0.12 0.093,-0.111C0.094,-0.102 0.096,-0.094 0.098,-0.087C0.099,-0.084 0.1,-0.083 0.101,-0.083C0.102,-0.083 0.104,-0.084 0.105,-0.086C0.106,-0.089 0.108,-0.093 0.11,-0.096C0.111,-0.099 0.113,-0.102 0.114,-0.105C0.117,-0.111 0.122,-0.123 0.129,-0.14C0.136,-0.157 0.142,-0.172 0.148,-0.187C0.153,-0.201 0.156,-0.215 0.159,-0.228C0.16,-0.236 0.161,-0.242 0.161,-0.246C0.161,-0.253 0.16,-0.258 0.158,-0.263C0.155,-0.269 0.153,-0.275 0.152,-0.281C0.15,-0.297 0.141,-0.309 0.126,-0.316C0.113,-0.322 0.102,-0.329 0.094,-0.338C0.085,-0.346 0.072,-0.359 0.055,-0.378C0.048,-0.387 0.043,-0.397 0.04,-0.409C0.037,-0.42 0.035,-0.435 0.034,-0.453C0.031,-0.508 0.046,-0.566 0.081,-0.626C0.088,-0.639 0.098,-0.645 0.11,-0.645C0.114,-0.645 0.117,-0.645 0.119,-0.644C0.121,-0.643 0.124,-0.643 0.127,-0.643C0.13,-0.643 0.133,-0.643 0.138,-0.644C0.142,-0.645 0.145,-0.645 0.148,-0.644C0.165,-0.644 0.179,-0.638 0.191,-0.625C0.203,-0.612 0.211,-0.597 0.216,-0.58C0.22,-0.563 0.222,-0.544 0.223,-0.522C0.223,-0.505 0.22,-0.479 0.215,-0.446C0.212,-0.432 0.211,-0.422 0.21,-0.417C0.209,-0.41 0.204,-0.406 0.195,-0.406C0.186,-0.407 0.177,-0.409 0.17,-0.414C0.162,-0.418 0.154,-0.424 0.145,-0.432C0.143,-0.434 0.142,-0.437 0.142,-0.441C0.142,-0.444 0.143,-0.449 0.144,-0.454C0.148,-0.467 0.15,-0.484 0.15,-0.505C0.151,-0.526 0.153,-0.541 0.156,-0.551L0.156,-0.554C0.156,-0.557 0.155,-0.56 0.154,-0.563C0.153,-0.564 0.153,-0.567 0.152,-0.571C0.151,-0.574 0.149,-0.576 0.146,-0.576C0.143,-0.575 0.14,-0.571 0.138,-0.563C0.137,-0.557 0.133,-0.543 0.128,-0.521C0.122,-0.498 0.118,-0.477 0.116,-0.456C0.115,-0.452 0.115,-0.447 0.114,-0.442C0.113,-0.436 0.112,-0.431 0.112,-0.427C0.112,-0.422 0.112,-0.419 0.113,-0.417C0.118,-0.398 0.129,-0.384 0.144,-0.376C0.149,-0.373 0.157,-0.369 0.168,-0.363C0.179,-0.357 0.19,-0.353 0.199,-0.35C0.232,-0.34 0.25,-0.316 0.255,-0.278C0.256,-0.262 0.257,-0.25 0.257,-0.243C0.257,-0.206 0.249,-0.17 0.234,-0.134C0.221,-0.103 0.212,-0.076 0.208,-0.053C0.206,-0.042 0.202,-0.033 0.197,-0.027C0.191,-0.02 0.183,-0.012 0.172,-0.004C0.169,-0.001 0.164,0 0.156,0Z" style="fill:rgb(34,34,34);fill-rule:nonzero;"/>
                </g>
                <g transform="matrix(50.5025,0,0,94.6834,351.783,1499.68)">
                    <path d="M0.16,0.022C0.148,0.023 0.139,0.024 0.132,0.024C0.121,0.024 0.11,0.022 0.099,0.018C0.093,0.016 0.086,0.015 0.078,0.014C0.07,0.013 0.064,0.013 0.059,0.012C0.041,0.009 0.032,-0.001 0.031,-0.02L0.029,-0.057C0.028,-0.089 0.026,-0.113 0.025,-0.129C0.025,-0.134 0.024,-0.141 0.023,-0.149C0.022,-0.162 0.021,-0.172 0.021,-0.179C0.021,-0.184 0.022,-0.192 0.023,-0.201C0.021,-0.226 0.02,-0.251 0.02,-0.276C0.02,-0.288 0.021,-0.306 0.022,-0.33C0.023,-0.337 0.023,-0.348 0.023,-0.363L0.023,-0.401C0.023,-0.426 0.024,-0.444 0.027,-0.457C0.03,-0.476 0.032,-0.49 0.035,-0.499C0.042,-0.523 0.045,-0.549 0.045,-0.578C0.045,-0.593 0.046,-0.614 0.047,-0.642C0.048,-0.649 0.049,-0.654 0.052,-0.657C0.054,-0.659 0.058,-0.66 0.065,-0.659L0.072,-0.659C0.075,-0.659 0.077,-0.659 0.08,-0.66C0.103,-0.666 0.126,-0.669 0.149,-0.669C0.172,-0.669 0.199,-0.666 0.229,-0.659C0.238,-0.657 0.243,-0.655 0.246,-0.653C0.248,-0.651 0.249,-0.647 0.249,-0.641C0.25,-0.622 0.244,-0.611 0.229,-0.607C0.218,-0.603 0.207,-0.601 0.196,-0.601C0.19,-0.601 0.186,-0.601 0.183,-0.602L0.175,-0.603C0.168,-0.603 0.161,-0.601 0.154,-0.598C0.147,-0.595 0.141,-0.591 0.136,-0.587C0.13,-0.583 0.126,-0.58 0.124,-0.579C0.122,-0.577 0.121,-0.574 0.121,-0.571L0.121,-0.565C0.12,-0.556 0.121,-0.541 0.124,-0.521C0.126,-0.508 0.127,-0.495 0.127,-0.482C0.127,-0.472 0.126,-0.457 0.125,-0.437C0.124,-0.432 0.124,-0.423 0.124,-0.411C0.124,-0.406 0.124,-0.399 0.125,-0.392C0.125,-0.385 0.125,-0.376 0.124,-0.366C0.124,-0.357 0.125,-0.344 0.126,-0.327L0.127,-0.288C0.127,-0.283 0.128,-0.279 0.129,-0.277C0.13,-0.275 0.133,-0.274 0.138,-0.274L0.192,-0.275C0.199,-0.275 0.204,-0.274 0.207,-0.272C0.209,-0.269 0.211,-0.264 0.212,-0.257C0.213,-0.257 0.213,-0.257 0.213,-0.257L0.214,-0.239C0.214,-0.231 0.212,-0.225 0.209,-0.222C0.206,-0.219 0.198,-0.215 0.187,-0.212C0.169,-0.206 0.154,-0.203 0.142,-0.203C0.136,-0.203 0.132,-0.202 0.131,-0.201C0.129,-0.199 0.128,-0.195 0.128,-0.188L0.127,-0.159C0.127,-0.149 0.128,-0.135 0.129,-0.118C0.13,-0.11 0.131,-0.101 0.131,-0.091C0.13,-0.08 0.13,-0.073 0.13,-0.069C0.13,-0.061 0.131,-0.056 0.134,-0.054C0.136,-0.052 0.14,-0.052 0.147,-0.053C0.153,-0.054 0.162,-0.055 0.173,-0.055C0.184,-0.055 0.193,-0.055 0.201,-0.054C0.208,-0.053 0.214,-0.053 0.219,-0.052C0.228,-0.051 0.232,-0.046 0.231,-0.038C0.231,-0.032 0.231,-0.027 0.23,-0.024C0.23,-0.014 0.232,-0.007 0.236,-0.003C0.238,-0.001 0.239,0.001 0.239,0.002L0.241,0.01C0.241,0.013 0.24,0.016 0.238,0.019C0.235,0.021 0.232,0.022 0.227,0.021L0.199,0.02C0.19,0.02 0.177,0.021 0.16,0.022Z" style="fill:rgb(34,34,34);fill-rule:nonzero;"/>
                </g>
                <g transform="matrix(50.5025,0,0,94.6834,365.368,1499.68)">
                    <path d="M0.129,0.03C0.123,0.029 0.117,0.029 0.111,0.03C0.104,0.03 0.098,0.03 0.092,0.029C0.083,0.029 0.076,0.025 0.069,0.019C0.062,0.012 0.057,0.003 0.056,-0.007C0.053,-0.03 0.05,-0.056 0.049,-0.085L0.048,-0.117C0.048,-0.136 0.049,-0.167 0.052,-0.21C0.052,-0.22 0.053,-0.236 0.054,-0.257L0.057,-0.327C0.058,-0.402 0.062,-0.463 0.069,-0.509C0.07,-0.513 0.072,-0.528 0.075,-0.554C0.078,-0.58 0.078,-0.593 0.076,-0.593L0.056,-0.593C0.054,-0.592 0.051,-0.592 0.048,-0.592C0.035,-0.592 0.026,-0.6 0.022,-0.616C0.021,-0.624 0.02,-0.63 0.02,-0.634C0.02,-0.64 0.021,-0.644 0.023,-0.646C0.024,-0.647 0.028,-0.648 0.033,-0.649C0.052,-0.651 0.079,-0.652 0.114,-0.652C0.127,-0.651 0.147,-0.652 0.172,-0.653L0.193,-0.654L0.207,-0.655C0.215,-0.655 0.223,-0.654 0.231,-0.652C0.237,-0.651 0.241,-0.649 0.243,-0.646C0.254,-0.631 0.259,-0.617 0.259,-0.606C0.259,-0.596 0.256,-0.591 0.249,-0.591C0.245,-0.592 0.236,-0.592 0.222,-0.592C0.208,-0.592 0.199,-0.592 0.194,-0.593C0.191,-0.593 0.189,-0.57 0.189,-0.524L0.187,-0.468C0.184,-0.439 0.183,-0.406 0.183,-0.37C0.183,-0.355 0.181,-0.339 0.177,-0.322C0.173,-0.305 0.17,-0.293 0.169,-0.287C0.168,-0.284 0.168,-0.278 0.168,-0.27C0.168,-0.267 0.168,-0.262 0.169,-0.257C0.169,-0.252 0.169,-0.246 0.168,-0.239L0.163,-0.149C0.162,-0.12 0.16,-0.099 0.158,-0.085C0.158,-0.084 0.158,-0.082 0.158,-0.081C0.157,-0.08 0.157,-0.078 0.158,-0.077C0.16,-0.07 0.161,-0.063 0.161,-0.056C0.161,-0.047 0.159,-0.033 0.155,-0.014C0.154,-0.01 0.153,-0.006 0.15,-0.003C0.144,0.004 0.141,0.012 0.142,0.02C0.142,0.024 0.141,0.027 0.139,0.029C0.136,0.03 0.133,0.031 0.129,0.03Z" style="fill:rgb(34,34,34);fill-rule:nonzero;"/>
                </g>
            </g>
        </g>
    </g>
    <defs>
        <radialGradient id="_Radial1" cx="0" cy="0" r="1" gradientUnits="userSpaceOnUse" gradientTransform="matrix(629.598,0,0,376.429,243.86,1497.08)"><stop offset="0" style="stop-color:white;stop-opacity:1"/><stop offset="1" style="stop-color:rgb(63,194,255);stop-opacity:1"/></radialGradient>
    </defs>
</svg>
