<?xml version="1.0" encoding="UTF-8" standalone="no"?><!DOCTYPE svg PUBLIC "-//W3C//DTD SVG 1.1//EN" "http://www.w3.org/Graphics/SVG/1.1/DTD/svg11.dtd"><svg width="100%" height="100%" viewBox="0 0 1634 2221" version="1.1" xmlns="http://www.w3.org/2000/svg" xmlns:xlink="http://www.w3.org/1999/xlink" xml:space="preserve" xmlns:serif="http://www.serif.com/" style="fill-rule:evenodd;clip-rule:evenodd;stroke-linejoin:round;stroke-miterlimit:2;"><g id="Title-White" serif:id="Title White"><g><path d="M228.805,402.545c-6.874,-0.776 -17.949,-1.165 -33.225,-1.165l-35.517,0.583c-11.457,0 -20.241,-4.465 -26.351,-13.394c-5.347,-8.928 -8.784,-22.516 -10.312,-40.762l-8.019,-68.713c0,-50.079 -0.382,-87.736 -1.146,-112.97l4.583,-45.421l3.437,-22.71c1.527,-15.528 3.819,-30.474 6.874,-44.838c3.055,-10.094 4.583,-17.47 4.583,-22.128c0,-3.882 -0.382,-6.794 -1.146,-8.735c-0.764,-6.211 2.292,-11.452 9.166,-15.723c6.874,-4.27 15.658,-6.405 26.351,-6.405c4.583,0 9.929,0.582 16.04,1.747c9.929,2.329 22.15,3.494 36.663,3.494c6.874,0 14.894,-0.194 24.059,-0.583c9.166,-0.388 16.04,-0.776 20.623,-1.164c25.969,-1.553 45.446,-2.33 58.431,-2.33c6.874,0 17.186,0.389 30.934,1.165c16.04,1.165 26.351,3.494 30.934,6.988c4.583,3.494 6.874,9.899 6.874,19.216c0,7.765 -3.055,14.17 -9.165,19.217c-3.819,3.882 -6.493,9.317 -8.02,16.305c-2.292,6.211 -10.312,9.705 -24.06,10.481l-68.742,3.494c-12.221,0.777 -20.05,2.233 -23.487,4.368c-3.437,2.135 -5.156,6.308 -5.156,12.52c0.764,11.646 0.382,24.263 -1.146,37.85c-1.527,13.588 -2.673,22.516 -3.437,26.787l-3.437,36.686l1.146,15.722c0,5.435 4.964,7.376 14.894,5.823c17.567,-2.329 34.371,-3.493 50.411,-3.493c6.874,0 17.949,0.388 33.225,1.164c8.402,0.777 13.94,2.038 16.613,3.785c2.674,1.747 4.392,4.562 5.156,8.444l-1.146,27.951c0,6.6 -6.11,9.899 -18.331,9.899c-6.111,0 -11.266,0.195 -15.467,0.583c-4.201,0.388 -7.829,0.776 -10.884,1.164c-3.056,0.389 -7.256,0.777 -12.603,1.165c-5.347,0.388 -11.839,0.582 -19.477,0.582c-4.583,0 -10.693,-0.388 -18.331,-1.164c-1.528,-0.388 -3.819,-0.583 -6.875,-0.583c-8.402,0 -13.366,3.688 -14.894,11.064c-0.764,4.659 -1.146,11.841 -1.146,21.546c0,10.482 0.382,19.508 1.146,27.078c0.764,7.57 1.528,14.073 2.292,19.508l2.291,16.887c0.764,3.882 0.382,7.861 -1.146,11.937c-1.527,4.077 -2.673,6.697 -3.437,7.862c-1.527,2.329 -3.055,6.599 -4.583,12.811c0,1.941 -1.527,3.59 -4.582,4.949c-3.056,1.359 -6.875,1.844 -11.458,1.456Z" style="fill:#222;fill-rule:nonzero;"/><path d="M511.795,437.484c-20.623,-2.329 -38.19,-7.958 -52.703,-16.887c-14.512,-8.929 -21.386,-18.44 -20.622,-28.534l2.291,-39.597l1.146,-39.016c2.291,-62.502 12.603,-120.927 30.934,-175.277c5.346,-15.528 10.311,-39.209 14.894,-71.043c1.528,-5.046 3.055,-13.005 4.583,-23.875c1.527,-3.882 3.819,-6.696 6.874,-8.443c3.055,-1.747 8.02,-2.621 14.894,-2.621c23.678,-0.388 45.829,3.106 66.451,10.482c8.402,3.106 13.749,7.57 16.04,13.393c2.292,5.823 3.437,14.364 3.437,25.622c0,9.706 -0.382,17.082 -1.145,22.128l-1.146,22.128c-0.764,17.082 -3.437,35.133 -8.02,54.156c-4.583,19.022 -7.256,30.474 -8.02,34.357c-9.166,33.386 -14.512,58.425 -16.04,75.118c-0.764,8.541 -1.146,21.158 -1.146,37.851c0,8.541 -0.763,20.964 -2.291,37.268c-1.528,18.635 -1.91,32.804 -1.146,42.51c0,4.658 -3.437,8.734 -10.311,12.228c-5.347,3.494 -8.784,6.6 -10.311,9.317c-2.292,3.882 -5.538,6.503 -9.739,7.862c-4.201,1.358 -10.502,1.649 -18.904,0.873Z" style="fill:#222;fill-rule:nonzero;"/><path d="M736.353,438.649c-10.693,-2.33 -21.004,-3.3 -30.934,-2.912c-5.346,0 -13.366,-0.776 -24.06,-2.329c-13.748,-2.329 -21.004,-6.6 -21.768,-12.811c-1.528,-3.882 -2.291,-7.182 -2.291,-9.9c0,-15.916 -2.674,-52.99 -8.02,-111.222l-1.146,-19.217c-1.528,-17.081 -2.292,-30.086 -2.292,-39.015c0,-10.87 0.382,-18.828 1.146,-23.875l4.583,-54.155c1.528,-12.035 3.055,-30.087 4.583,-54.156c0.764,-12.423 4.201,-25.039 10.311,-37.85c4.583,-10.87 6.874,-19.217 6.874,-25.04c0,-3.494 1.719,-6.114 5.156,-7.861c3.437,-1.747 9.357,-2.621 17.759,-2.621c12.984,0 27.878,2.038 44.682,6.115c16.804,4.076 27.497,8.443 32.08,13.102c3.055,1.552 4.583,4.27 4.583,8.152c3.055,10.094 6.301,17.955 9.738,23.584c3.437,5.629 10.121,10.773 20.05,15.431c0.764,0.389 1.337,0.874 1.719,1.456c0.382,0.582 0.954,1.068 1.718,1.456c3.055,4.27 10.312,12.811 21.769,25.622c6.11,6.211 11.839,12.714 17.185,19.508c5.347,6.793 9.166,13.296 11.457,19.507c1.528,4.27 4.201,8.832 8.02,13.685c3.819,4.852 6.111,8.055 6.874,9.608c6.111,6.211 10.694,12.228 13.749,18.052l10.311,20.381c0,2.717 1.91,4.076 5.729,4.076l0,-0.582c0,-51.244 1.145,-84.242 3.437,-98.994c2.291,-21.352 6.874,-42.509 13.748,-63.473c1.528,-3.882 4.201,-6.405 8.02,-7.57c3.819,-1.165 10.694,-1.747 20.623,-1.747c14.512,0 28.261,1.747 41.245,5.241c9.93,4.658 14.513,9.317 13.749,13.976c-1.528,5.435 -2.291,9.317 -2.291,11.646c0,5.047 1.527,12.229 4.582,21.546c0.764,1.941 1.146,7.57 1.146,16.887c0,22.904 -1.909,37.85 -5.728,44.838c-3.056,6.212 -4.583,13.394 -4.583,21.546c0,6.988 1.527,17.858 4.583,32.61l1.145,2.329c0,18.634 -0.573,34.066 -1.718,46.294c-1.146,12.229 -3.628,26.496 -7.447,42.801l-1.146,8.152l2.291,11.646c0,3.106 -1.527,10.87 -4.583,23.293c-0.763,2.329 -1.909,7.279 -3.437,14.849c-1.527,7.57 -1.527,12.52 0,14.849c0,3.106 -1.336,5.047 -4.01,5.823c-2.673,0.777 -7.447,1.165 -14.321,1.165l-71.034,-2.912c-3.819,-0.776 -6.683,-1.941 -8.593,-3.493c-1.909,-1.553 -3.437,-3.494 -4.582,-5.824c-1.146,-2.329 -2.483,-4.464 -4.01,-6.405c-3.056,-5.823 -8.211,-14.849 -15.467,-27.078c-7.257,-12.229 -12.412,-21.06 -15.467,-26.495c-15.276,-39.21 -32.08,-71.431 -50.411,-96.665c-2.292,-2.329 -4.583,-5.532 -6.875,-9.608c-2.291,-4.076 -4.201,-7.473 -5.728,-10.191c-0.764,-0.776 -1.337,-1.844 -1.719,-3.202c-0.382,-1.359 -1.718,-2.039 -4.01,-2.039c-1.527,0 -2.291,0.777 -2.291,2.33l0,2.911c-1.528,4.271 -2.483,9.414 -2.864,15.432c-0.382,6.017 -0.573,10.773 -0.573,14.266c0,22.128 -0.382,40.569 -1.146,55.321c-1.528,47.361 -1.91,78.03 -1.146,92.006l0,13.393c0,1.553 0.191,3.785 0.573,6.697c0.382,2.911 0.191,7.084 -0.573,12.519c0,6.212 -0.954,10.676 -2.864,13.394c-1.909,2.717 -6.683,4.076 -14.321,4.076c-6.111,0 -13.367,-0.776 -21.769,-2.329Z" style="fill:#222;fill-rule:nonzero;"/><path d="M1199.22,436.902c-24.442,-0.777 -48.502,-3.494 -72.18,-8.153c-42.773,-8.54 -65.305,-23.875 -67.597,-46.003c-0.763,-2.717 -1.527,-6.114 -2.291,-10.19c-0.764,-4.077 -1.146,-8.638 -1.146,-13.685c0,-3.882 0.382,-6.793 1.146,-8.735c0.764,-37.656 6.11,-76.283 16.04,-115.881l5.728,-26.204c7.638,-34.939 14.131,-61.143 19.477,-78.613c3.056,-8.152 6.111,-21.157 9.166,-39.015l2.291,-12.229l0,-1.747c0,-2.717 -1.527,-6.405 -4.582,-11.064c-1.528,-3.105 -2.292,-5.24 -2.292,-6.405c0,-2.329 1.528,-3.979 4.583,-4.95c3.055,-0.97 8.402,-1.456 16.04,-1.456c1.528,0 3.246,-0.097 5.156,-0.291c1.909,-0.194 4.391,-0.097 7.447,0.291l4.583,0.583c7.638,0 12.602,-2.33 14.894,-6.988c3.055,-4.27 6.492,-7.376 10.311,-9.317c3.819,-1.941 8.784,-2.912 14.894,-2.912c5.347,0 11.457,0.583 18.332,1.747c12.22,1.941 40.481,6.988 84.782,15.14c32.843,6.988 63.777,12.617 92.802,16.888c33.607,5.435 58.431,14.169 74.471,26.204c7.638,5.823 16.422,10.676 26.351,14.558c13.749,7.376 21.769,15.917 24.06,25.622c3.055,10.87 6.11,18.828 9.166,23.875c4.582,8.152 6.874,16.693 6.874,25.622c0,7.376 -1.528,14.169 -4.583,20.381c-3.055,7.376 -5.347,15.334 -6.874,23.875c-1.528,10.093 -4.201,19.022 -8.02,26.786c-1.528,1.942 -1.528,4.077 0,6.406c1.527,6.211 2.291,10.676 2.291,13.393c0,6.6 -1.336,13.685 -4.01,21.255c-2.673,7.57 -5.919,15.043 -9.738,22.419l-5.729,12.811l-9.165,19.799c-11.457,22.516 -38.954,41.927 -82.491,58.232c-50.411,19.022 -105.787,28.533 -166.128,28.533c-10.693,0 -18.713,-0.194 -24.059,-0.582Zm33.225,-36.686c51.939,1.941 86.692,-7.376 104.259,-27.951c21.387,-24.846 35.517,-45.227 42.391,-61.144l36.663,-98.411c0.764,-1.165 1.146,-3.106 1.146,-5.824c0,-2.717 -0.382,-4.658 -1.146,-5.823c-3.055,-10.87 -4.583,-19.41 -4.583,-25.622c0,-4.658 0.382,-8.152 1.146,-10.481l0,-1.747c0,-3.494 -3.055,-7.57 -9.166,-12.229c-22.914,-17.081 -35.899,-26.592 -38.954,-28.534c-29.024,-19.022 -63.014,-33.774 -101.968,-44.256c-4.582,-1.164 -9.165,-1.747 -13.748,-1.747c-8.402,0 -16.804,1.553 -25.206,4.659c-7.638,2.717 -11.457,6.6 -11.457,11.646c0,2.33 0.382,4.076 1.146,5.241c3.055,6.6 4.583,14.364 4.583,23.293c0.764,5.047 0.955,9.414 0.573,13.102c-0.382,3.688 -0.573,6.697 -0.573,9.026c-0.764,3.106 -1.146,7.764 -1.146,13.975c0,6.6 0.382,11.453 1.146,14.558c2.291,7.376 3.437,14.947 3.437,22.711c0,10.87 -0.382,18.828 -1.146,23.875l-1.145,24.457c-1.528,15.529 -3.438,27.563 -5.729,36.104c-3.819,13.199 -7.256,32.998 -10.311,59.396l-2.865,25.04c-0.381,1.941 -0.191,4.27 0.573,6.988c0,3.105 0.764,7.376 2.292,12.811c1.527,10.093 11.457,15.722 29.788,16.887Z" style="fill:#222;fill-rule:nonzero;"/><path d="M293.538,1016.31c-3.055,3.106 -9.166,4.659 -18.331,4.659c-12.985,0 -32.462,-3.106 -58.431,-9.317c-13.749,-3.106 -20.623,-14.364 -20.623,-33.775c0,-6.987 0.764,-15.14 2.291,-24.457l1.146,-13.393c0,-33.775 1.146,-59.202 3.437,-76.284l0,-1.747c0,-2.329 -2.291,-6.211 -6.874,-11.646c-38.19,-41.539 -69.506,-84.436 -93.948,-128.692c-6.111,-10.094 -19.095,-28.534 -38.954,-55.32l-24.06,-32.028c-3.055,-3.494 -4.583,-6.405 -4.583,-8.734c0,-2.33 1.719,-3.883 5.156,-4.659c3.437,-0.776 8.975,-1.165 16.613,-1.165c3.055,-0.388 5.537,-0.485 7.447,-0.291c1.909,0.194 3.246,0.291 4.01,0.291l12.603,-0.582c35.898,0 67.596,10.676 95.093,32.027c20.623,16.694 47.738,54.35 81.345,112.97l6.874,11.646l6.875,18.052c0,2.329 1.527,3.494 4.583,3.494c2.291,0 3.437,-0.97 3.437,-2.911c6.874,-10.482 21.004,-30.087 42.391,-58.815c3.819,-4.27 6.874,-13.199 9.165,-26.786c2.292,-8.541 4.965,-16.984 8.02,-25.331c3.056,-8.346 6.493,-13.49 10.312,-15.431c8.402,-4.271 18.331,-6.406 29.788,-6.406c6.111,0 12.603,0.583 19.477,1.747c6.111,1.165 13.176,2.912 21.196,5.241c8.02,2.329 14.703,4.27 20.05,5.823c9.165,1.553 13.748,5.047 13.748,10.482c0,1.165 -0.764,3.3 -2.291,6.405c-2.292,3.882 -4.774,8.541 -7.448,13.976c-2.673,5.435 -4.773,9.705 -6.301,12.811c-6.874,16.305 -13.748,28.728 -20.623,37.268c-1.527,2.718 -3.246,5.047 -5.155,6.988c-1.91,1.941 -3.628,3.688 -5.156,5.241l-10.311,12.811c-4.583,8.541 -13.94,18.343 -28.07,29.407c-14.13,11.064 -23.105,18.149 -26.924,21.255c-3.055,5.434 -6.874,14.169 -11.457,26.204c-4.583,12.034 -6.111,18.828 -4.583,20.381c3.055,5.047 4.583,10.87 4.583,17.469c0,5.435 -0.382,10.094 -1.146,13.976c-0.764,3.882 -1.528,7.182 -2.291,9.899c-6.111,28.34 -9.93,50.08 -11.457,65.22c-2.292,11.258 -9.166,21.934 -20.623,32.027Z" style="fill:#222;fill-rule:nonzero;"/><path d="M672.767,1008.15c-12.985,-0.388 -24.824,-2.523 -35.517,-6.406c-17.568,-5.435 -32.462,-9.511 -44.683,-12.228c-12.985,-3.106 -24.251,-7.279 -33.798,-12.52c-9.548,-5.241 -18.522,-11.743 -26.924,-19.508c-9.93,-10.093 -16.995,-20.478 -21.196,-31.154c-4.201,-10.675 -7.829,-23.583 -10.884,-38.724c-0.764,-3.105 -1.146,-7.958 -1.146,-14.558c0,-10.093 1.528,-20.866 4.583,-32.318c3.055,-11.452 4.965,-18.537 5.729,-21.255c9.929,-41.15 27.115,-81.524 51.556,-121.122c10.694,-19.022 25.588,-38.045 44.683,-57.067c6.11,-6.6 15.658,-14.17 28.643,-22.71c9.165,-5.823 19.095,-7.959 29.788,-6.406l5.728,0.583c6.875,0 12.603,-1.553 17.186,-4.659c8.402,-4.659 19.477,-6.405 33.226,-5.241c17.567,0.777 34.562,2.232 50.983,4.368c16.422,2.135 36.854,5.143 61.296,9.025c16.04,2.718 29.788,10.288 41.245,22.711c1.528,1.164 2.864,2.523 4.01,4.076c1.146,1.553 2.482,2.718 4.01,3.494c10.693,6.211 15.276,14.17 13.749,23.875l0,2.912c0,3.105 0.763,7.376 2.291,12.811c1.528,9.317 2.291,16.499 2.291,21.545c0,8.541 -1.527,22.128 -4.582,40.762l0,3.494c0,4.271 1.527,7.182 4.582,8.735c5.347,0 11.648,0.097 18.905,0.291c7.256,0.194 15.848,0.097 25.778,-0.291c10.693,-0.776 19.095,-1.553 25.205,-2.329l32.08,-2.329l22.914,-2.912c3.056,-0.388 6.875,-0.582 11.457,-0.582c9.93,0 16.04,3.494 18.332,10.481l0,3.494c0,2.718 -0.382,4.659 -1.146,5.823c-3.819,7.376 -16.804,12.423 -38.954,15.141c-19.095,2.717 -36.281,4.27 -51.557,4.658c-9.165,0 -16.04,-0.194 -20.622,-0.582c-12.985,1.553 -23.678,2.523 -32.08,2.912l-1.146,0c-10.693,3.493 -19.095,6.987 -25.205,10.481l-1.146,0l0,1.747c-9.166,22.128 -24.06,52.409 -44.683,90.842l-14.894,27.369c-9.166,15.916 -22.914,33.192 -41.245,51.826c-22.151,22.128 -58.431,32.61 -108.842,31.445Zm108.842,-261.46c3.055,-0.389 4.582,-2.136 4.582,-5.241c0.764,-3.106 1.146,-7.57 1.146,-13.394c0,-5.046 -0.764,-8.734 -2.291,-11.064c-3.819,-7.764 -5.729,-15.14 -5.729,-22.128c0,-3.494 0.382,-6.211 1.146,-8.152c0.764,-1.553 1.146,-3.688 1.146,-6.406c0,-5.046 -1.91,-10.675 -5.729,-16.887c-3.819,-6.211 -6.492,-11.064 -8.02,-14.558c-0.764,-0.776 -1.718,-2.426 -2.864,-4.949c-1.146,-2.524 -3.246,-3.98 -6.301,-4.368l-1.146,0c-2.292,0 -4.392,1.068 -6.302,3.203c-1.909,2.135 -3.628,3.397 -5.155,3.785l-5.729,3.494c-16.803,12.034 -26.351,24.457 -28.642,37.268c0,8.153 2.673,15.529 8.02,22.128c3.819,5.047 8.783,9.511 14.894,13.394c6.11,3.882 12.793,7.861 20.05,11.937c7.256,4.076 13.175,7.279 17.758,9.608c3.819,1.941 6.874,2.718 9.166,2.33Zm-88.22,199.152c3.056,0 4.583,-1.165 4.583,-3.494c3.055,-3.882 5.729,-8.346 8.02,-13.393l6.874,-12.811c25.97,-42.703 43.155,-75.119 51.557,-97.247l8.02,-22.128l0,-3.494c0,-5.823 -5.729,-10.094 -17.186,-12.811c-16.039,-3.882 -32.843,-10.288 -50.411,-19.217c-8.401,-4.27 -16.421,-7.764 -24.059,-10.481c-3.819,-1.941 -6.875,-2.718 -9.166,-2.33c-1.528,0.777 -2.292,1.844 -2.292,3.203l0,6.115c2.292,5.046 3.438,10.481 3.438,16.304c0,6.988 -1.528,13.394 -4.583,19.217c-3.819,8.929 -5.729,17.081 -5.729,24.457c0.764,7.764 1.146,19.411 1.146,34.939l-1.146,27.951c0,7.765 1.146,15.723 3.437,23.875c3.056,12.423 10.312,25.234 21.769,38.433c2.291,1.941 4.201,2.912 5.728,2.912Z" style="fill:#222;fill-rule:nonzero;"/><path d="M1131.05,1010.48c-25.205,0 -59.195,-3.494 -101.968,-10.481c-18.331,-2.718 -32.08,-8.735 -41.245,-18.052c-10.693,-9.706 -18.332,-24.069 -22.914,-43.092c-1.528,-8.929 -2.292,-22.516 -2.292,-40.762c0,-32.222 3.055,-57.844 9.166,-76.866c11.457,-30.28 20.241,-56.679 26.351,-79.195c4.583,-20.963 8.02,-41.15 10.311,-60.561c2.292,-16.305 6.493,-33.969 12.603,-52.991l1.146,-9.899c0,-5.435 1.909,-8.929 5.728,-10.482c3.82,-1.553 11.839,-2.329 24.06,-2.329c18.332,0.388 33.608,3.591 45.829,9.608c12.22,6.017 18.713,13.684 19.477,23.002c1.527,6.211 2.291,15.334 2.291,27.368l0,18.635c-1.528,27.563 -5.156,55.611 -10.884,84.144c-5.729,28.534 -13.558,61.629 -23.487,99.285c-3.055,10.87 -4.583,23.099 -4.583,36.686c0,23.293 6.492,43.868 19.477,61.726l2.291,3.494c0.764,0.388 1.528,1.068 2.292,2.038c0.764,0.971 2.291,1.456 4.583,1.456c0.763,-0.388 1.527,-0.971 2.291,-1.747c0.764,-0.776 1.528,-1.553 2.291,-2.329c5.347,-11.258 8.02,-23.875 8.02,-37.851c0,-19.799 2.865,-39.209 8.593,-58.232c5.729,-19.022 14.703,-44.644 26.924,-76.866l5.729,-13.975c11.457,-29.892 19.859,-66.384 25.205,-109.476l1.146,-16.305c1.528,-13.199 2.291,-23.098 2.291,-29.698c0,-3.882 2.674,-6.696 8.02,-8.443c5.347,-1.747 14.131,-2.621 26.352,-2.621c13.748,0 22.341,0.68 25.778,2.038c3.437,1.359 5.156,4.562 5.156,9.608c0,24.07 -0.382,42.121 -1.146,54.156l2.291,16.305c0.764,4.27 1.146,10.676 1.146,19.216c0,9.317 -1.527,23.681 -4.583,43.092c-1.527,5.823 -3.055,15.334 -4.583,28.533l-4.582,26.787c-4.583,20.187 -6.875,35.327 -6.875,45.421c0,6.211 0.382,10.87 1.146,13.975c0.764,7.765 -0.764,17.47 -4.583,29.116c-1.527,8.541 -2.291,15.14 -2.291,19.799c-1.528,10.87 -3.055,19.022 -4.583,24.457c-4.583,17.858 -17.567,34.163 -38.954,48.915c-12.221,8.929 -31.698,13.393 -58.431,13.393Z" style="fill:#222;fill-rule:nonzero;"/><path d="M1370.5,998.838c-2.292,-0.777 -8.593,-3.009 -18.905,-6.697c-10.311,-3.688 -21.195,-6.114 -32.652,-7.279c-8.402,-0.776 -12.603,-4.27 -12.603,-10.481l-1.146,-32.028c0,-6.988 0.382,-12.229 1.146,-15.722c2.291,-9.318 3.437,-23.487 3.437,-42.51c0.764,-3.882 1.146,-9.511 1.146,-16.887c0,-20.575 0.764,-52.602 2.291,-96.082l0,-18.634c0,-15.917 1.528,-30.087 4.583,-42.509c1.528,-6.212 3.055,-16.305 4.583,-30.281c1.528,-19.022 4.201,-33.386 8.02,-43.091l1.146,-4.659c0,-5.823 -4.583,-10.676 -13.749,-14.558c-3.819,-1.165 -6.492,-3.3 -8.02,-6.405l0,-2.33c0,-2.329 0.955,-3.979 2.864,-4.949c1.91,-0.971 5.538,-1.456 10.885,-1.456c9.165,0.388 19.668,0.194 31.507,-0.582c11.839,-0.777 20.049,-1.359 24.632,-1.747c21.387,-1.553 37.809,-2.33 49.266,-2.33c26.733,0 56.521,3.494 89.365,10.482c46.592,10.094 69.888,32.027 69.888,65.802c0,38.045 -37.427,69.684 -112.279,94.918c-6.111,1.941 -10.885,3.688 -14.322,5.24c-3.437,1.553 -5.155,3.106 -5.155,4.659c0,1.941 2.291,5.629 6.874,11.064c3.055,3.106 12.221,13.976 27.497,32.61l13.748,16.305l21.769,25.622c4.582,5.435 12.793,15.14 24.632,29.115c11.839,13.976 21.578,26.399 29.216,37.269c2.291,3.105 4.583,6.405 6.874,9.899c2.291,3.494 4.583,7.182 6.874,11.064c2.292,1.941 3.437,5.629 3.437,11.064c-1.527,3.882 -2.291,10.094 -2.291,18.634c0,2.718 -1.146,4.756 -3.437,6.115c-2.292,1.358 -5.347,2.038 -9.166,2.038c-2.291,0 -5.346,-0.583 -9.165,-1.747c-11.457,-4.27 -26.734,-8.153 -45.829,-11.647c-12.221,-1.941 -22.15,-8.152 -29.788,-18.634c-10.693,-18.246 -27.879,-42.703 -51.557,-73.372c-13.748,-16.693 -25.205,-32.027 -34.371,-46.003c-0.764,-0.776 -1.719,-2.135 -2.864,-4.076c-1.146,-1.941 -2.483,-2.717 -4.01,-2.329c-3.055,0 -4.583,0.97 -4.583,2.911l1.146,4.659c0.763,3.494 1.145,8.929 1.145,16.305c0,7.376 -0.763,19.993 -2.291,37.85c0.764,3.106 1.146,7.959 1.146,14.558c0,9.706 -0.382,17.082 -1.146,22.128l-1.146,23.875c0,8.153 -0.764,20.77 -2.291,37.851c0,6.211 -4.201,9.317 -12.603,9.317c-5.347,0 -9.929,-0.776 -13.748,-2.329Zm43.536,-290.576c1.528,0 3.247,-0.292 5.156,-0.874c1.91,-0.582 3.246,-1.067 4.01,-1.456c15.276,-5.823 28.643,-12.617 40.1,-20.381c1.527,-1.164 6.11,-4.173 13.748,-9.026c7.638,-4.852 13.749,-9.802 18.332,-14.849c2.291,-2.329 3.437,-4.852 3.437,-7.57c0,-3.494 -1.91,-6.502 -5.729,-9.026c-3.819,-2.523 -8.784,-3.979 -14.894,-4.367c-19.859,-1.941 -38.954,-2.524 -57.285,-1.747c-9.93,0.388 -13.749,3.106 -11.457,8.152c0.763,1.165 1.145,3.3 1.145,6.406c0,2.717 -0.382,4.852 -1.145,6.405l-2.292,23.875l1.146,0l0,20.673c0,1.358 1.146,2.426 3.437,3.202l2.291,0.583Z" style="fill:#222;fill-rule:nonzero;"/><path d="M75.281,1602.12c-20.623,-2.33 -38.19,-7.959 -52.703,-16.888c-14.512,-8.929 -21.386,-18.44 -20.622,-28.533l2.291,-39.598l1.146,-39.015c2.291,-62.502 12.603,-120.928 30.934,-175.278c5.346,-15.528 10.311,-39.209 14.894,-71.042c1.528,-5.047 3.055,-13.005 4.583,-23.875c1.527,-3.882 3.819,-6.697 6.874,-8.444c3.055,-1.747 8.02,-2.62 14.894,-2.62c23.678,-0.388 45.828,3.105 66.451,10.481c8.402,3.106 13.749,7.571 16.04,13.394c2.291,5.823 3.437,14.364 3.437,25.622c0,9.705 -0.382,17.081 -1.146,22.128l-1.145,22.128c-0.764,17.081 -3.437,35.133 -8.02,54.155c-4.583,19.023 -7.256,30.475 -8.02,34.357c-9.166,33.386 -14.512,58.426 -16.04,75.119c-0.764,8.541 -1.146,21.157 -1.146,37.851c0,8.54 -0.763,20.963 -2.291,37.268c-1.528,18.634 -1.91,32.804 -1.146,42.509c0,4.659 -3.437,8.735 -10.311,12.229c-5.347,3.494 -8.784,6.599 -10.312,9.317c-2.291,3.882 -5.537,6.502 -9.738,7.861c-4.201,1.359 -10.502,1.65 -18.904,0.874Z" style="fill:#222;fill-rule:nonzero;"/><path d="M299.839,1603.28c-10.693,-2.329 -21.004,-3.3 -30.934,-2.911c-5.346,0 -13.366,-0.777 -24.06,-2.33c-13.748,-2.329 -21.004,-6.599 -21.768,-12.811c-1.528,-3.882 -2.291,-7.182 -2.291,-9.899c0,-15.917 -2.674,-52.991 -8.02,-111.223l-1.146,-19.216c-1.528,-17.081 -2.292,-30.087 -2.292,-39.015c0,-10.87 0.382,-18.829 1.146,-23.875l4.583,-54.156c1.528,-12.034 3.055,-30.086 4.583,-54.155c0.764,-12.423 4.201,-25.04 10.311,-37.851c4.583,-10.87 6.874,-19.216 6.874,-25.04c0,-3.494 1.719,-6.114 5.156,-7.861c3.437,-1.747 9.357,-2.62 17.759,-2.62c12.984,0 27.878,2.038 44.682,6.114c16.804,4.076 27.497,8.444 32.08,13.102c3.055,1.553 4.583,4.27 4.583,8.153c3.055,10.093 6.301,17.954 9.738,23.583c3.437,5.629 10.121,10.773 20.05,15.432c0.764,0.388 1.337,0.873 1.719,1.456c0.381,0.582 0.954,1.067 1.718,1.455c3.055,4.271 10.311,12.811 21.769,25.622c6.11,6.212 11.839,12.714 17.185,19.508c5.347,6.794 9.166,13.296 11.457,19.508c1.528,4.27 4.201,8.831 8.02,13.684c3.819,4.853 6.111,8.055 6.874,9.608c6.111,6.212 10.694,12.229 13.749,18.052l10.311,20.381c0,2.718 1.91,4.076 5.729,4.076l0,-0.582c0,-51.244 1.145,-84.242 3.437,-98.994c2.291,-21.351 6.874,-42.509 13.748,-63.472c1.528,-3.883 4.201,-6.406 8.02,-7.571c3.819,-1.164 10.694,-1.746 20.623,-1.746c14.512,0 28.261,1.746 41.245,5.24c9.93,4.659 14.513,9.317 13.749,13.976c-1.528,5.435 -2.292,9.317 -2.292,11.646c0,5.047 1.528,12.229 4.583,21.546c0.764,1.941 1.146,7.57 1.146,16.887c0,22.905 -1.91,37.851 -5.729,44.839c-3.055,6.211 -4.582,13.393 -4.582,21.545c0,6.988 1.527,17.858 4.582,32.61l1.146,2.329c0,18.635 -0.573,34.066 -1.718,46.295c-1.146,12.228 -3.628,26.495 -7.447,42.8l-1.146,8.152l2.291,11.647c0,3.105 -1.527,10.87 -4.583,23.292c-0.763,2.33 -1.909,7.279 -3.437,14.85c-1.527,7.57 -1.527,12.519 0,14.849c0,3.105 -1.336,5.046 -4.01,5.823c-2.673,0.776 -7.447,1.164 -14.321,1.164l-71.034,-2.911c-3.819,-0.777 -6.683,-1.941 -8.593,-3.494c-1.909,-1.553 -3.437,-3.494 -4.582,-5.823c-1.146,-2.329 -2.483,-4.465 -4.01,-6.406c-3.056,-5.823 -8.211,-14.849 -15.467,-27.077c-7.257,-12.229 -12.412,-21.061 -15.467,-26.496c-15.277,-39.209 -32.08,-71.431 -50.412,-96.665c-2.291,-2.329 -4.582,-5.532 -6.874,-9.608c-2.291,-4.076 -4.201,-7.473 -5.728,-10.19c-0.764,-0.777 -1.337,-1.844 -1.719,-3.203c-0.382,-1.359 -1.718,-2.038 -4.01,-2.038c-1.527,0 -2.291,0.776 -2.291,2.329l0,2.912c-1.528,4.27 -2.483,9.414 -2.864,15.431c-0.382,6.017 -0.573,10.773 -0.573,14.267c0,22.128 -0.382,40.568 -1.146,55.32c-1.528,47.362 -1.91,78.031 -1.146,92.006l0,13.393c0,1.553 0.191,3.785 0.573,6.697c0.382,2.912 0.191,7.085 -0.573,12.52c0,6.211 -0.955,10.676 -2.864,13.393c-1.91,2.718 -6.683,4.076 -14.321,4.076c-6.111,0 -13.367,-0.776 -21.769,-2.329Z" style="fill:#222;fill-rule:nonzero;"/><path d="M710.002,1603.28c-10.693,-2.329 -21.005,-3.3 -30.934,-2.911c-5.347,0 -13.367,-0.777 -24.06,-2.33c-13.748,-2.329 -21.004,-6.599 -21.768,-12.811c-1.528,-3.882 -2.292,-7.182 -2.292,-9.899c0,-15.917 -2.673,-52.991 -8.02,-111.223l-1.145,-19.216c-1.528,-17.081 -2.292,-30.087 -2.292,-39.015c0,-10.87 0.382,-18.829 1.146,-23.875l4.583,-54.156c1.527,-12.034 3.055,-30.086 4.583,-54.155c0.763,-12.423 4.201,-25.04 10.311,-37.851c4.583,-10.87 6.874,-19.216 6.874,-25.04c0,-3.494 1.719,-6.114 5.156,-7.861c3.437,-1.747 9.356,-2.62 17.758,-2.62c12.985,0 27.879,2.038 44.683,6.114c16.804,4.076 27.497,8.444 32.08,13.102c3.055,1.553 4.582,4.27 4.582,8.153c3.056,10.093 6.302,17.954 9.739,23.583c3.437,5.629 10.12,10.773 20.05,15.432c0.764,0.388 1.336,0.873 1.718,1.456c0.382,0.582 0.955,1.067 1.719,1.455c3.055,4.271 10.311,12.811 21.768,25.622c6.111,6.212 11.839,12.714 17.186,19.508c5.347,6.794 9.166,13.296 11.457,19.508c1.528,4.27 4.201,8.831 8.02,13.684c3.819,4.853 6.11,8.055 6.874,9.608c6.111,6.212 10.693,12.229 13.749,18.052l10.311,20.381c0,2.718 1.91,4.076 5.729,4.076l0,-0.582c0,-51.244 1.145,-84.242 3.437,-98.994c2.291,-21.351 6.874,-42.509 13.748,-63.472c1.528,-3.883 4.201,-6.406 8.02,-7.571c3.819,-1.164 10.693,-1.746 20.623,-1.746c14.512,0 28.261,1.746 41.245,5.24c9.93,4.659 14.512,9.317 13.749,13.976c-1.528,5.435 -2.292,9.317 -2.292,11.646c0,5.047 1.528,12.229 4.583,21.546c0.764,1.941 1.146,7.57 1.146,16.887c0,22.905 -1.91,37.851 -5.729,44.839c-3.055,6.211 -4.583,13.393 -4.583,21.545c0,6.988 1.528,17.858 4.583,32.61l1.146,2.329c0,18.635 -0.573,34.066 -1.719,46.295c-1.145,12.228 -3.628,26.495 -7.447,42.8l-1.145,8.152l2.291,11.647c0,3.105 -1.528,10.87 -4.583,23.292c-0.764,2.33 -1.909,7.279 -3.437,14.85c-1.528,7.57 -1.528,12.519 0,14.849c0,3.105 -1.337,5.046 -4.01,5.823c-2.673,0.776 -7.447,1.164 -14.321,1.164l-71.034,-2.911c-3.819,-0.777 -6.683,-1.941 -8.593,-3.494c-1.909,-1.553 -3.437,-3.494 -4.583,-5.823c-1.145,-2.329 -2.482,-4.465 -4.01,-6.406c-3.055,-5.823 -8.21,-14.849 -15.467,-27.077c-7.256,-12.229 -12.411,-21.061 -15.467,-26.496c-15.276,-39.209 -32.079,-71.431 -50.411,-96.665c-2.291,-2.329 -4.583,-5.532 -6.874,-9.608c-2.291,-4.076 -4.201,-7.473 -5.728,-10.19c-0.764,-0.777 -1.337,-1.844 -1.719,-3.203c-0.382,-1.359 -1.719,-2.038 -4.01,-2.038c-1.528,0 -2.291,0.776 -2.291,2.329l0,2.912c-1.528,4.27 -2.483,9.414 -2.865,15.431c-0.382,6.017 -0.573,10.773 -0.573,14.267c0,22.128 -0.381,40.568 -1.145,55.32c-1.528,47.362 -1.91,78.031 -1.146,92.006l0,13.393c0,1.553 0.191,3.785 0.573,6.697c0.382,2.912 0.191,7.085 -0.573,12.52c0,6.211 -0.955,10.676 -2.864,13.393c-1.91,2.718 -6.684,4.076 -14.322,4.076c-6.11,0 -13.366,-0.776 -21.768,-2.329Z" style="fill:#222;fill-rule:nonzero;"/><path d="M1190.05,1599.79c-13.749,0.777 -24.442,1.165 -32.08,1.165c-12.221,0 -24.824,-1.165 -37.808,-3.494c-6.874,-1.165 -14.894,-1.941 -24.06,-2.329c-9.166,-0.389 -16.422,-0.777 -21.768,-1.165c-20.623,-1.553 -31.316,-7.764 -32.08,-18.634l-2.292,-21.546c-1.527,-18.634 -3.055,-32.61 -4.582,-41.927c0,-3.105 -0.764,-6.987 -2.292,-11.646c-1.527,-7.764 -2.291,-13.587 -2.291,-17.47c0,-3.105 0.764,-7.376 2.291,-12.811c-2.291,-14.752 -3.437,-29.309 -3.437,-43.673c0,-6.988 0.764,-17.47 2.291,-31.445c0.764,-4.271 1.146,-10.676 1.146,-19.217l0,-22.128c0,-14.364 1.528,-25.234 4.583,-32.61c3.055,-10.87 6.11,-19.022 9.166,-24.457c7.638,-13.976 11.457,-29.31 11.457,-46.003c0,-8.541 0.764,-20.964 2.291,-37.268c0.764,-4.271 2.482,-7.085 5.156,-8.444c2.673,-1.359 7.829,-1.844 15.467,-1.456l7.447,0c3.437,0 6.683,-0.194 9.738,-0.582c25.97,-3.494 52.321,-5.241 79.054,-5.241c26.733,0 57.285,1.941 91.657,5.823c9.929,1.165 16.23,2.329 18.904,3.494c2.673,1.165 4.01,3.494 4.01,6.988c1.527,10.87 -6.111,17.469 -22.914,19.799c-12.985,2.329 -25.588,3.494 -37.809,3.494c-6.874,0 -11.839,-0.194 -14.894,-0.583l-9.166,-0.582c-8.401,0 -16.421,0.971 -24.059,2.912c-7.638,1.941 -14.704,4.076 -21.196,6.405c-6.492,2.329 -10.884,3.882 -13.176,4.659c-2.291,1.164 -3.437,2.717 -3.437,4.658l0,3.494c-0.763,5.435 0.382,13.976 3.437,25.622c2.292,7.376 3.438,14.946 3.438,22.71c0,5.824 -0.764,14.558 -2.292,26.205c-0.764,3.105 -1.146,8.152 -1.146,15.14c0,3.106 0.191,6.794 0.573,11.064c0.382,4.27 0.191,9.317 -0.573,15.14c0,5.047 0.764,12.617 2.292,22.711l1.146,22.71c0,3.106 0.763,5.241 2.291,6.405c1.528,1.165 4.965,1.747 10.311,1.747l61.868,-0.582c8.402,0 13.94,0.679 16.613,2.038c2.674,1.359 4.774,4.173 6.302,8.444c0.763,0 1.145,0.097 1.145,0.291l1.146,10.19c0,4.659 -1.909,7.959 -5.728,9.9c-3.82,1.941 -12.221,3.882 -25.206,5.823c-20.623,3.494 -37.808,5.241 -51.557,5.241c-6.874,0 -11.266,0.485 -13.175,1.456c-1.91,0.97 -2.865,3.397 -2.865,7.279l-1.145,16.887c0,5.823 0.763,13.781 2.291,23.875c1.528,4.658 2.1,9.996 1.719,16.014c-0.382,6.017 -0.573,10.19 -0.573,12.519c0,4.659 1.336,7.57 4.01,8.735c2.673,1.165 7.829,1.359 15.467,0.582c6.874,-0.776 16.803,-1.164 29.788,-1.164c12.221,0 22.723,0.194 31.507,0.582c8.784,0.388 15.849,0.777 21.196,1.165c9.929,0.776 14.512,3.494 13.748,8.152c0,3.494 -0.382,6.212 -1.146,8.153c0,5.823 2.292,9.899 6.875,12.228c2.291,1.165 3.437,2.135 3.437,2.912l2.291,4.658c0,1.941 -1.337,3.591 -4.01,4.95c-2.673,1.359 -6.683,1.844 -12.03,1.456l-32.08,-0.582c-9.929,0 -24.823,0.388 -44.682,1.164Z" style="fill:#222;fill-rule:nonzero;"/><path d="M1403.15,1581.15c-2.291,-0.776 -8.593,-3.009 -18.904,-6.697c-10.311,-3.688 -21.195,-6.114 -32.653,-7.279c-8.401,-0.776 -12.602,-4.27 -12.602,-10.481l-1.146,-32.028c0,-6.987 0.382,-12.228 1.146,-15.722c2.291,-9.317 3.437,-23.487 3.437,-42.509c0.764,-3.883 1.146,-9.512 1.146,-16.888c0,-20.575 0.763,-52.602 2.291,-96.082l0,-18.634c0,-15.917 1.528,-30.086 4.583,-42.509c1.527,-6.212 3.055,-16.305 4.583,-30.281c1.527,-19.022 4.201,-33.386 8.02,-43.091l1.145,-4.659c0,-5.823 -4.583,-10.676 -13.748,-14.558c-3.819,-1.164 -6.493,-3.299 -8.02,-6.405l0,-2.329c0,-2.33 0.955,-3.98 2.864,-4.95c1.91,-0.971 5.538,-1.456 10.884,-1.456c9.166,0.388 19.668,0.194 31.507,-0.582c11.839,-0.777 20.05,-1.359 24.633,-1.747c21.386,-1.553 37.808,-2.329 49.265,-2.329c26.733,0 56.522,3.493 89.365,10.481c46.592,10.094 69.888,32.028 69.888,65.802c0,38.045 -37.426,69.684 -112.279,94.918c-6.11,1.941 -10.884,3.688 -14.321,5.241c-3.437,1.552 -5.156,3.105 -5.156,4.658c0,1.941 2.292,5.629 6.874,11.064c3.056,3.106 12.221,13.976 27.497,32.61l13.749,16.305l21.768,25.622c4.583,5.435 12.794,15.14 24.633,29.116c11.839,13.975 21.577,26.398 29.215,37.268c2.292,3.106 4.583,6.405 6.875,9.899c2.291,3.494 4.583,7.182 6.874,11.064c2.291,1.941 3.437,5.629 3.437,11.064c-1.528,3.883 -2.291,10.094 -2.291,18.635c0,2.717 -1.146,4.755 -3.437,6.114c-2.292,1.359 -5.347,2.038 -9.166,2.038c-2.292,0 -5.347,-0.582 -9.166,-1.747c-11.457,-4.27 -26.733,-8.152 -45.828,-11.646c-12.221,-1.941 -22.15,-8.153 -29.788,-18.634c-10.694,-18.246 -27.879,-42.704 -51.557,-73.372c-13.749,-16.694 -25.206,-32.028 -34.371,-46.003c-0.764,-0.777 -1.719,-2.136 -2.865,-4.077c-1.145,-1.941 -2.482,-2.717 -4.01,-2.329c-3.055,0 -4.582,0.971 -4.582,2.912l1.145,4.658c0.764,3.494 1.146,8.929 1.146,16.305c0,7.376 -0.764,19.993 -2.291,37.851c0.763,3.105 1.145,7.958 1.145,14.558c0,9.705 -0.382,17.081 -1.145,22.128l-1.146,23.875c0,8.152 -0.764,20.769 -2.292,37.85c0,6.212 -4.2,9.317 -12.602,9.317c-5.347,0 -9.93,-0.776 -13.749,-2.329Zm43.537,-290.576c1.528,0 3.246,-0.291 5.156,-0.874c1.909,-0.582 3.246,-1.067 4.01,-1.455c15.276,-5.824 28.642,-12.617 40.099,-20.382c1.528,-1.164 6.111,-4.173 13.749,-9.025c7.638,-4.853 13.748,-9.803 18.331,-14.85c2.292,-2.329 3.437,-4.852 3.437,-7.57c0,-3.494 -1.909,-6.502 -5.728,-9.026c-3.819,-2.523 -8.784,-3.979 -14.894,-4.367c-19.859,-1.941 -38.954,-2.523 -57.286,-1.747c-9.929,0.388 -13.748,3.106 -11.457,8.152c0.764,1.165 1.146,3.3 1.146,6.406c0,2.717 -0.382,4.853 -1.146,6.405l-2.291,23.875l1.146,0l0,20.673c0,1.358 1.145,2.426 3.437,3.202l2.291,0.583Z" style="fill:#222;fill-rule:nonzero;"/><path d="M318.171,2181.52c-20.623,0 -34.372,-4.853 -41.246,-14.558c-14.512,-19.022 -24.06,-39.791 -28.643,-62.308c-1.527,-4.658 -2.482,-8.734 -2.864,-12.228l-0.573,-10.482c0,-0.777 -0.763,-1.165 -2.291,-1.165c-0.764,0 -1.528,0.388 -2.291,1.165c-0.764,0.776 -1.146,1.359 -1.146,1.747l-9.166,20.963c-6.11,10.094 -11.839,17.276 -17.185,21.546c-4.583,3.882 -8.02,7.958 -10.312,12.229c-3.819,5.435 -8.402,9.705 -13.748,12.811c-8.402,5.046 -18.713,7.764 -30.934,8.152c-11.457,0 -23.678,0.582 -36.663,1.747c-9.166,0.776 -16.04,1.165 -20.623,1.165c-5.346,0 -9.547,-0.194 -12.602,-0.583c-16.804,-1.164 -27.879,-5.629 -33.226,-13.393c-2.291,-2.717 -4.392,-6.017 -6.301,-9.899c-1.91,-3.882 -3.246,-6.794 -4.01,-8.735c-7.638,-15.529 -12.221,-33.969 -13.749,-55.32l-2.291,-22.711c-2.292,-24.069 -3.055,-46.003 -2.292,-65.801l-1.145,-6.988c-0.764,-9.317 -1.146,-23.293 -1.146,-41.927c0,-15.14 0.764,-26.593 2.291,-34.357c0.764,-5.823 0.955,-11.064 0.573,-15.722c-0.382,-4.659 -0.573,-8.541 -0.573,-11.647c0.764,-6.988 1.146,-17.469 1.146,-31.445l0,-53.573c0.764,-1.553 1.146,-3.688 1.146,-6.406c1.527,-4.658 6.11,-7.181 13.748,-7.57c12.221,-0.776 21.005,-1.164 26.352,-1.164c19.095,0 35.898,3.105 50.411,9.317c6.874,3.105 12.984,7.764 18.331,13.975c5.347,5.824 8.975,12.423 10.884,19.799c1.91,7.376 3.246,14.558 4.01,21.546c1.528,10.482 6.111,25.234 13.749,44.256c12.22,27.563 17.185,51.826 14.894,72.79c0,12.034 0.382,21.157 1.145,27.369c1.528,12.034 1.91,21.157 1.146,27.369c0,1.552 0.764,2.523 2.292,2.911c1.527,0 2.291,-0.776 2.291,-2.329l22.914,-36.104l4.583,-7.57c9.166,-11.258 23.296,-17.664 42.391,-19.216l20.623,-3.494c2.291,-0.389 5.728,-0.583 10.311,-0.583c7.638,0 15.276,2.33 22.914,6.988c19.859,13.199 33.608,27.757 41.246,43.674c0.764,3.106 2.673,6.405 5.728,9.899c7.638,9.317 12.603,19.605 14.894,30.863l3.438,6.988l2.291,1.165l1.146,-1.747l1.145,-3.494l30.934,-95.5c1.528,-6.212 2.292,-15.723 2.292,-28.534c0,-22.128 3.437,-39.792 10.311,-52.991c2.292,-4.658 4.392,-10.19 6.302,-16.596c1.909,-6.405 3.246,-11.355 4.01,-14.849c3.055,-10.482 11.075,-21.74 24.059,-33.774c6.111,-6.212 15.658,-9.317 28.643,-9.317l22.914,-0.583c6.111,0 10.693,0.486 13.749,1.456c3.055,0.971 5.346,3.009 6.874,6.115c1.527,1.941 2.291,4.658 2.291,8.152c0,3.494 -0.382,6.211 -1.145,8.152l-6.875,25.622c-4.582,16.305 -6.874,24.846 -6.874,25.622c-3.055,7.376 -5.156,15.335 -6.301,23.875c-1.146,8.541 -2.101,14.17 -2.865,16.888c-3.055,31.445 -11.839,63.472 -26.351,96.082c-4.583,10.093 -7.638,17.663 -9.165,22.71c-3.056,9.706 -9.166,20.964 -18.332,33.775c-4.583,6.987 -8.402,17.663 -11.457,32.027l-13.748,47.75c-0.764,1.165 -1.91,4.076 -3.437,8.735c-1.528,4.658 -1.91,8.929 -1.146,12.811c0,2.717 -0.382,4.95 -1.146,6.696c-0.764,1.747 -1.527,3.397 -2.291,4.95c-3.055,7.376 -12.603,11.064 -28.643,11.064c-3.819,0.388 -7.065,0.485 -9.738,0.291c-2.674,-0.194 -5.156,-0.291 -7.447,-0.291c-3.819,-0.388 -9.166,-0.582 -16.04,-0.582c-9.166,0 -16.04,0.388 -20.623,1.165c-4.583,0.776 -11.839,1.164 -21.768,1.164Z" style="fill:#222;fill-rule:nonzero;"/><path d="M753.539,2172.79c-12.985,-0.388 -24.824,-2.523 -35.517,-6.405c-17.568,-5.435 -32.462,-9.511 -44.683,-12.229c-12.984,-3.105 -24.25,-7.279 -33.798,-12.52c-9.547,-5.24 -18.522,-11.743 -26.924,-19.507c-9.929,-10.094 -16.995,-20.478 -21.196,-31.154c-4.2,-10.676 -7.829,-23.584 -10.884,-38.724c-0.764,-3.106 -1.145,-7.959 -1.145,-14.558c0,-10.094 1.527,-20.867 4.582,-32.319c3.056,-11.452 4.965,-18.537 5.729,-21.254c9.929,-41.151 27.115,-81.525 51.557,-121.122c10.693,-19.023 25.587,-38.045 44.682,-57.067c6.111,-6.6 15.658,-14.17 28.643,-22.711c9.166,-5.823 19.095,-7.958 29.788,-6.405l5.729,0.582c6.874,0 12.603,-1.553 17.185,-4.659c8.402,-4.658 19.477,-6.405 33.226,-5.24c17.567,0.776 34.562,2.232 50.984,4.367c16.422,2.135 36.853,5.144 61.295,9.026c16.04,2.717 29.788,10.287 41.245,22.71c1.528,1.165 2.865,2.524 4.01,4.076c1.146,1.553 2.483,2.718 4.01,3.494c10.694,6.212 15.276,14.17 13.749,23.875l0,2.912c0,3.106 0.764,7.376 2.291,12.811c1.528,9.317 2.292,16.499 2.292,21.546c0,8.54 -1.528,22.128 -4.583,40.762l0,3.494c0,4.27 1.527,7.182 4.583,8.735c5.346,0 11.648,0.097 18.904,0.291c7.256,0.194 15.849,0.097 25.778,-0.291c10.693,-0.777 19.095,-1.553 25.206,-2.33l32.08,-2.329l22.914,-2.912c3.055,-0.388 6.874,-0.582 11.457,-0.582c9.929,0 16.04,3.494 18.331,10.482l0,3.494c0,2.717 -0.382,4.658 -1.146,5.823c-3.819,7.376 -16.803,12.423 -38.954,15.14c-19.095,2.718 -36.28,4.27 -51.556,4.659c-9.166,0 -16.04,-0.194 -20.623,-0.583c-12.985,1.553 -23.678,2.524 -32.08,2.912l-1.146,0c-10.693,3.494 -19.095,6.988 -25.205,10.482l-1.146,0l0,1.747c-9.166,22.128 -24.06,52.408 -44.682,90.841l-14.895,27.369c-9.165,15.917 -22.914,33.192 -41.245,51.826c-22.15,22.128 -58.431,32.61 -108.842,31.445Zm108.842,-261.46c3.055,-0.388 4.583,-2.135 4.583,-5.241c0.764,-3.106 1.145,-7.57 1.145,-13.393c0,-5.047 -0.763,-8.735 -2.291,-11.064c-3.819,-7.764 -5.728,-15.14 -5.728,-22.128c0,-3.494 0.381,-6.212 1.145,-8.153c0.764,-1.553 1.146,-3.688 1.146,-6.405c0,-5.047 -1.91,-10.676 -5.729,-16.887c-3.819,-6.212 -6.492,-11.064 -8.02,-14.558c-0.763,-0.777 -1.718,-2.427 -2.864,-4.95c-1.146,-2.523 -3.246,-3.979 -6.301,-4.367l-1.146,0c-2.291,0 -4.392,1.067 -6.301,3.202c-1.91,2.135 -3.628,3.397 -5.156,3.785l-5.728,3.494c-16.804,12.035 -26.352,24.458 -28.643,37.269c0,8.152 2.673,15.528 8.02,22.128c3.819,5.046 8.784,9.511 14.894,13.393c6.11,3.882 12.794,7.861 20.05,11.937c7.256,4.077 13.175,7.279 17.758,9.609c3.819,1.941 6.875,2.717 9.166,2.329Zm-88.219,199.152c3.055,0 4.582,-1.164 4.582,-3.493c3.056,-3.883 5.729,-8.347 8.02,-13.394l6.875,-12.811c25.969,-42.703 43.155,-75.119 51.556,-97.247l8.02,-22.128l0,-3.494c0,-5.823 -5.728,-10.093 -17.185,-12.811c-16.04,-3.882 -32.844,-10.287 -50.411,-19.216c-8.402,-4.27 -16.422,-7.764 -24.06,-10.482c-3.819,-1.941 -6.874,-2.717 -9.166,-2.329c-1.527,0.776 -2.291,1.844 -2.291,3.203l0,6.114c2.291,5.047 3.437,10.482 3.437,16.305c0,6.988 -1.528,13.393 -4.583,19.216c-3.819,8.929 -5.728,17.082 -5.728,24.458c0.763,7.764 1.145,19.41 1.145,34.939l-1.145,27.951c0,7.764 1.145,15.722 3.437,23.875c3.055,12.423 10.311,25.234 21.768,38.433c2.291,1.941 4.201,2.911 5.729,2.911Z" style="fill:#222;fill-rule:nonzero;"/><path d="M1222.13,2217.05c-53.467,-2.329 -95.858,-5.823 -127.174,-10.481c-34.371,-5.047 -51.556,-16.499 -51.556,-34.357l1.145,-6.405c4.583,-28.34 11.075,-59.397 19.477,-93.171l10.312,-44.256c3.819,-14.364 8.783,-36.298 14.894,-65.802c5.346,-27.563 14.894,-60.367 28.642,-98.412c4.583,-12.811 10.694,-32.027 18.332,-57.649l9.165,-39.598c2.292,-9.317 9.548,-13.975 21.769,-13.975c10.693,0 20.432,1.067 29.215,3.202c8.784,2.136 17.377,5.338 25.779,9.609c6.11,1.941 9.165,5.24 9.165,9.899c-0.763,8.541 1.146,20.963 5.729,37.268c1.527,6.212 2.291,10.676 2.291,13.394c0,4.27 -0.764,11.064 -2.291,20.381c-1.528,6.211 -2.292,10.676 -2.292,13.393c-1.527,16.305 -3.055,28.534 -4.582,36.686c-1.528,6.211 -3.056,15.528 -4.583,27.951c-0.764,6.6 -1.91,12.229 -3.437,16.887c-1.528,4.659 -2.674,8.541 -3.437,11.647l-6.875,28.533c-4.583,23.293 -7.638,41.539 -9.165,54.738c-1.528,5.435 -3.056,14.364 -4.583,26.787c-2.292,10.093 -6.492,27.369 -12.603,51.826c-4.583,15.14 -7.256,25.816 -8.02,32.027l0,3.494c0,2.718 1.337,4.659 4.01,5.823c2.673,1.165 7.829,1.942 15.467,2.33l8.02,0c19.095,-0.388 34.562,2.038 46.401,7.279c11.839,5.241 22.341,12.52 31.507,21.837c1.528,1.164 2.292,2.911 2.292,5.24c0,3.883 -4.201,6.6 -12.603,8.153c-6.111,1.553 -8.784,3.3 -8.02,5.241c0,3.105 -1.719,5.338 -5.156,6.696c-3.437,1.359 -8.211,2.233 -14.321,2.621l-22.914,1.164Z" style="fill:#222;fill-rule:nonzero;"/><path d="M1445.55,2149.5c-6.874,-0.777 -17.949,-1.165 -33.225,-1.165l-35.517,0.582c-11.457,0 -20.241,-4.464 -26.351,-13.393c-5.347,-8.929 -8.784,-22.516 -10.312,-40.762l-8.02,-68.714c0,-50.079 -0.381,-87.735 -1.145,-112.969l4.583,-45.421l3.437,-22.71c1.527,-15.529 3.819,-30.475 6.874,-44.839c3.055,-10.093 4.583,-17.469 4.583,-22.128c0,-3.882 -0.382,-6.793 -1.146,-8.734c-0.764,-6.212 2.291,-11.453 9.166,-15.723c6.874,-4.27 15.658,-6.406 26.351,-6.406c4.583,0 9.929,0.583 16.04,1.747c9.929,2.33 22.15,3.494 36.662,3.494c6.875,0 14.895,-0.194 24.06,-0.582c9.166,-0.388 16.04,-0.776 20.623,-1.165c25.969,-1.552 45.446,-2.329 58.431,-2.329c6.874,0 17.186,0.388 30.934,1.165c16.04,1.164 26.351,3.494 30.934,6.988c4.583,3.493 6.874,9.899 6.874,19.216c0,7.764 -3.055,14.17 -9.165,19.217c-3.819,3.882 -6.493,9.317 -8.02,16.304c-2.292,6.212 -10.312,9.706 -24.06,10.482l-68.742,3.494c-12.221,0.776 -20.05,2.232 -23.487,4.367c-3.438,2.136 -5.156,6.309 -5.156,12.52c0.764,11.647 0.382,24.263 -1.146,37.851c-1.527,13.587 -2.673,22.516 -3.437,26.786l-3.437,36.686l1.146,15.723c0,5.435 4.964,7.376 14.894,5.823c17.567,-2.329 34.371,-3.494 50.411,-3.494c6.874,0 17.949,0.388 33.225,1.165c8.402,0.776 13.94,2.038 16.613,3.785c2.673,1.747 4.392,4.561 5.156,8.444l-1.146,27.951c0,6.599 -6.11,9.899 -18.331,9.899c-6.111,0 -11.266,0.194 -15.467,0.582c-4.201,0.389 -7.829,0.777 -10.884,1.165c-3.056,0.388 -7.257,0.777 -12.603,1.165c-5.347,0.388 -11.839,0.582 -19.477,0.582c-4.583,0 -10.693,-0.388 -18.331,-1.165c-1.528,-0.388 -3.82,-0.582 -6.875,-0.582c-8.402,0 -13.366,3.688 -14.894,11.064c-0.764,4.659 -1.146,11.841 -1.146,21.546c0,10.482 0.382,19.507 1.146,27.078c0.764,7.57 1.528,14.072 2.291,19.507l2.292,16.887c0.764,3.883 0.382,7.862 -1.146,11.938c-1.527,4.076 -2.673,6.697 -3.437,7.861c-1.528,2.329 -3.055,6.6 -4.583,12.811c0,1.941 -1.527,3.591 -4.583,4.95c-3.055,1.359 -6.874,1.844 -11.457,1.456Z" style="fill:#222;fill-rule:nonzero;"/></g></g></svg>