<?xml version="1.0" encoding="UTF-8" standalone="no"?><!DOCTYPE svg PUBLIC "-//W3C//DTD SVG 1.1//EN" "http://www.w3.org/Graphics/SVG/1.1/DTD/svg11.dtd"><svg width="100%" height="100%" viewBox="0 0 1634 2221" version="1.1" xmlns="http://www.w3.org/2000/svg" xmlns:xlink="http://www.w3.org/1999/xlink" xml:space="preserve" xmlns:serif="http://www.serif.com/" style="fill-rule:evenodd;clip-rule:evenodd;stroke-linejoin:round;stroke-miterlimit:2;"><g id="Title"><g><path d="M228.898,404.601c-6.874,-0.777 -17.95,-1.165 -33.226,-1.165l-35.516,0.582c-11.458,0 -20.241,-4.464 -26.352,-13.393c-5.346,-8.929 -8.783,-22.516 -10.311,-40.762l-8.02,-68.713c0,-50.08 -0.382,-87.736 -1.146,-112.97l4.583,-45.421l3.437,-22.71c1.528,-15.529 3.819,-30.475 6.874,-44.839c3.056,-10.093 4.583,-17.469 4.583,-22.128c0,-3.882 -0.382,-6.793 -1.145,-8.734c-0.764,-6.212 2.291,-11.453 9.165,-15.723c6.874,-4.27 15.658,-6.405 26.351,-6.405c4.583,0 9.93,0.582 16.04,1.747c9.93,2.329 22.151,3.493 36.663,3.493c6.874,0 14.894,-0.194 24.06,-0.582c9.165,-0.388 16.04,-0.776 20.622,-1.165c25.97,-1.552 45.447,-2.329 58.431,-2.329c6.875,0 17.186,0.388 30.935,1.165c16.039,1.164 26.351,3.494 30.934,6.988c4.582,3.494 6.874,9.899 6.874,19.216c0,7.764 -3.055,14.17 -9.166,19.217c-3.819,3.882 -6.492,9.317 -8.02,16.304c-2.291,6.212 -10.311,9.706 -24.06,10.482l-68.742,3.494c-12.221,0.776 -20.05,2.232 -23.487,4.367c-3.437,2.136 -5.156,6.309 -5.156,12.52c0.764,11.647 0.382,24.263 -1.145,37.851c-1.528,13.587 -2.674,22.516 -3.437,26.786l-3.438,36.686l1.146,15.723c0,5.435 4.965,7.376 14.894,5.823c17.568,-2.329 34.372,-3.494 50.411,-3.494c6.875,0 17.95,0.389 33.226,1.165c8.402,0.776 13.939,2.038 16.613,3.785c2.673,1.747 4.392,4.561 5.155,8.444l-1.145,27.951c0,6.599 -6.111,9.899 -18.332,9.899c-6.11,0 -11.266,0.194 -15.467,0.583c-4.201,0.388 -7.829,0.776 -10.884,1.164c-3.055,0.388 -7.256,0.777 -12.603,1.165c-5.346,0.388 -11.839,0.582 -19.477,0.582c-4.583,0 -10.693,-0.388 -18.331,-1.165c-1.528,-0.388 -3.819,-0.582 -6.874,-0.582c-8.402,0 -13.367,3.688 -14.894,11.064c-0.764,4.659 -1.146,11.841 -1.146,21.546c0,10.482 0.382,19.508 1.146,27.078c0.763,7.57 1.527,14.072 2.291,19.507l2.291,16.887c0.764,3.883 0.382,7.862 -1.145,11.938c-1.528,4.076 -2.674,6.697 -3.437,7.861c-1.528,2.33 -3.056,6.6 -4.583,12.811c0,1.941 -1.528,3.591 -4.583,4.95c-3.055,1.359 -6.874,1.844 -11.457,1.456Z" style="fill:#d9d9d9;fill-rule:nonzero;"/><path d="M511.887,439.54c-20.622,-2.329 -38.19,-7.959 -52.702,-16.887c-14.512,-8.929 -21.387,-18.44 -20.623,-28.534l2.292,-39.598l1.145,-39.015c2.292,-62.502 12.603,-120.928 30.934,-175.277c5.347,-15.529 10.312,-39.21 14.894,-71.043c1.528,-5.047 3.056,-13.005 4.583,-23.875c1.528,-3.882 3.819,-6.697 6.875,-8.444c3.055,-1.747 8.019,-2.62 14.894,-2.62c23.678,-0.388 45.828,3.106 66.451,10.482c8.402,3.105 13.748,7.57 16.04,13.393c2.291,5.823 3.437,14.364 3.437,25.622c0,9.705 -0.382,17.081 -1.146,22.128l-1.146,22.128c-0.764,17.081 -3.437,35.133 -8.02,54.156c-4.583,19.022 -7.256,30.474 -8.02,34.356c-9.165,33.386 -14.512,58.426 -16.04,75.119c-0.763,8.541 -1.145,21.158 -1.145,37.851c0,8.54 -0.764,20.963 -2.292,37.268c-1.527,18.634 -1.909,32.804 -1.145,42.509c0,4.659 -3.437,8.735 -10.312,12.229c-5.346,3.494 -8.783,6.6 -10.311,9.317c-2.291,3.882 -5.538,6.503 -9.739,7.861c-4.2,1.359 -10.502,1.65 -18.904,0.874Z" style="fill:#d9d9d9;fill-rule:nonzero;"/><path d="M736.446,440.704c-10.694,-2.329 -21.005,-3.299 -30.934,-2.911c-5.347,0 -13.367,-0.777 -24.06,-2.329c-13.749,-2.33 -21.005,-6.6 -21.769,-12.811c-1.527,-3.883 -2.291,-7.182 -2.291,-9.9c0,-15.916 -2.673,-52.991 -8.02,-111.222l-1.146,-19.217c-1.527,-17.081 -2.291,-30.086 -2.291,-39.015c0,-10.87 0.382,-18.828 1.146,-23.875l4.582,-54.156c1.528,-12.034 3.056,-30.086 4.583,-54.155c0.764,-12.423 4.201,-25.04 10.312,-37.851c4.582,-10.87 6.874,-19.216 6.874,-25.039c0,-3.494 1.718,-6.115 5.156,-7.862c3.437,-1.747 9.356,-2.62 17.758,-2.62c12.985,0 27.879,2.038 44.683,6.114c16.803,4.076 27.496,8.444 32.079,13.102c3.056,1.553 4.583,4.271 4.583,8.153c3.055,10.093 6.301,17.955 9.739,23.584c3.437,5.629 10.12,10.773 20.049,15.431c0.764,0.388 1.337,0.874 1.719,1.456c0.382,0.582 0.955,1.067 1.719,1.456c3.055,4.27 10.311,12.811 21.768,25.622c6.11,6.211 11.839,12.714 17.186,19.507c5.346,6.794 9.165,13.296 11.457,19.508c1.527,4.27 4.201,8.832 8.02,13.684c3.819,4.853 6.11,8.056 6.874,9.609c6.11,6.211 10.693,12.228 13.748,18.051l10.312,20.381c0,2.718 1.909,4.077 5.728,4.077l0,-0.583c0,-51.244 1.146,-84.241 3.437,-98.994c2.292,-21.351 6.875,-42.509 13.749,-63.472c1.527,-3.882 4.201,-6.406 8.02,-7.57c3.819,-1.165 10.693,-1.747 20.622,-1.747c14.513,0 28.261,1.747 41.246,5.241c9.929,4.658 14.512,9.317 13.748,13.975c-1.527,5.435 -2.291,9.317 -2.291,11.647c0,5.046 1.528,12.228 4.583,21.545c0.764,1.941 1.145,7.57 1.145,16.888c0,22.904 -1.909,37.85 -5.728,44.838c-3.055,6.211 -4.583,13.393 -4.583,21.546c0,6.988 1.528,17.857 4.583,32.609l1.146,2.33c0,18.634 -0.573,34.065 -1.719,46.294c-1.146,12.229 -3.628,26.495 -7.447,42.8l-1.146,8.153l2.292,11.646c0,3.106 -1.528,10.87 -4.583,23.293c-0.764,2.329 -1.91,7.279 -3.437,14.849c-1.528,7.57 -1.528,12.52 0,14.849c0,3.106 -1.337,5.047 -4.01,5.823c-2.674,0.777 -7.447,1.165 -14.322,1.165l-71.033,-2.912c-3.819,-0.776 -6.684,-1.941 -8.593,-3.494c-1.91,-1.553 -3.437,-3.494 -4.583,-5.823c-1.146,-2.329 -2.482,-4.464 -4.01,-6.405c-3.055,-5.824 -8.211,-14.849 -15.467,-27.078c-7.256,-12.229 -12.412,-21.061 -15.467,-26.496c-15.276,-39.209 -32.08,-71.43 -50.411,-96.664c-2.291,-2.33 -4.583,-5.532 -6.874,-9.608c-2.292,-4.077 -4.201,-7.474 -5.729,-10.191c-0.764,-0.776 -1.336,-1.844 -1.718,-3.203c-0.382,-1.359 -1.719,-2.038 -4.01,-2.038c-1.528,0 -2.292,0.777 -2.292,2.329l0,2.912c-1.527,4.27 -2.482,9.414 -2.864,15.431c-0.382,6.018 -0.573,10.773 -0.573,14.267c0,22.128 -0.382,40.568 -1.146,55.32c-1.527,47.362 -1.909,78.031 -1.145,92.006l0,13.394c0,1.553 0.191,3.785 0.573,6.696c0.381,2.912 0.191,7.085 -0.573,12.52c0,6.212 -0.955,10.676 -2.865,13.393c-1.909,2.718 -6.683,4.077 -14.321,4.077c-6.11,0 -13.366,-0.777 -21.768,-2.33Z" style="fill:#d9d9d9;fill-rule:nonzero;"/><path d="M1199.31,438.957c-24.442,-0.776 -48.502,-3.493 -72.18,-8.152c-42.773,-8.541 -65.305,-23.875 -67.596,-46.003c-0.764,-2.718 -1.528,-6.114 -2.292,-10.191c-0.763,-4.076 -1.145,-8.637 -1.145,-13.684c0,-3.882 0.382,-6.794 1.145,-8.735c0.764,-37.656 6.111,-76.283 16.04,-115.881l5.729,-26.204c7.638,-34.939 14.13,-61.144 19.477,-78.613c3.055,-8.152 6.11,-21.158 9.165,-39.015l2.292,-12.229l0,-1.747c0,-2.717 -1.528,-6.405 -4.583,-11.064c-1.528,-3.106 -2.291,-5.241 -2.291,-6.405c0,-2.33 1.527,-3.98 4.582,-4.95c3.056,-0.971 8.402,-1.456 16.04,-1.456c1.528,0 3.247,-0.097 5.156,-0.291c1.91,-0.194 4.392,-0.097 7.447,0.291l4.583,0.582c7.638,0 12.603,-2.329 14.894,-6.987c3.055,-4.271 6.492,-7.376 10.311,-9.317c3.82,-1.942 8.784,-2.912 14.895,-2.912c5.346,0 11.457,0.582 18.331,1.747c12.221,1.941 40.482,6.988 84.782,15.14c32.844,6.988 63.778,12.617 92.802,16.887c33.608,5.435 58.431,14.17 74.471,26.205c7.638,5.823 16.422,10.675 26.352,14.558c13.748,7.376 21.768,15.916 24.059,25.622c3.056,10.869 6.111,18.828 9.166,23.875c4.583,8.152 6.874,16.693 6.874,25.621c0,7.376 -1.527,14.17 -4.583,20.382c-3.055,7.376 -5.346,15.334 -6.874,23.875c-1.527,10.093 -4.201,19.022 -8.02,26.786c-1.527,1.941 -1.527,4.076 0,6.406c1.528,6.211 2.292,10.675 2.292,13.393c0,6.6 -1.337,13.684 -4.01,21.255c-2.674,7.57 -5.92,15.043 -9.739,22.419l-5.728,12.811l-9.166,19.799c-11.457,22.516 -38.954,41.926 -82.491,58.231c-50.411,19.023 -105.787,28.534 -166.127,28.534c-10.693,0 -18.713,-0.194 -24.06,-0.583Zm33.225,-36.686c51.939,1.942 86.692,-7.376 104.26,-27.951c21.386,-24.845 35.517,-45.226 42.391,-61.143l36.662,-98.412c0.764,-1.164 1.146,-3.105 1.146,-5.823c0,-2.717 -0.382,-4.658 -1.146,-5.823c-3.055,-10.87 -4.582,-19.411 -4.582,-25.622c0,-4.659 0.382,-8.152 1.145,-10.482l0,-1.747c0,-3.494 -3.055,-7.57 -9.165,-12.228c-22.914,-17.082 -35.899,-26.593 -38.954,-28.534c-29.025,-19.022 -63.014,-33.774 -101.968,-44.256c-4.583,-1.165 -9.166,-1.747 -13.749,-1.747c-8.402,0 -16.803,1.553 -25.205,4.659c-7.638,2.717 -11.457,6.599 -11.457,11.646c0,2.329 0.382,4.076 1.145,5.241c3.056,6.599 4.583,14.364 4.583,23.293c0.764,5.046 0.955,9.414 0.573,13.102c-0.382,3.688 -0.573,6.696 -0.573,9.026c-0.764,3.105 -1.145,7.764 -1.145,13.975c0,6.6 0.381,11.452 1.145,14.558c2.292,7.376 3.437,14.946 3.437,22.711c0,10.869 -0.382,18.828 -1.145,23.875l-1.146,24.457c-1.528,15.528 -3.437,27.563 -5.729,36.104c-3.819,13.199 -7.256,32.997 -10.311,59.396l-2.864,25.039c-0.382,1.942 -0.191,4.271 0.573,6.988c0,3.106 0.763,7.376 2.291,12.811c1.528,10.094 11.457,15.723 29.788,16.887Z" style="fill:#d9d9d9;fill-rule:nonzero;"/><path d="M293.63,1018.36c-3.055,3.106 -9.165,4.659 -18.331,4.659c-12.985,0 -32.462,-3.106 -58.431,-9.317c-13.749,-3.106 -20.623,-14.364 -20.623,-33.775c0,-6.988 0.764,-15.14 2.292,-24.457l1.145,-13.393c0,-33.775 1.146,-59.203 3.437,-76.284l0,-1.747c0,-2.329 -2.291,-6.211 -6.874,-11.646c-38.19,-41.539 -69.506,-84.436 -93.948,-128.692c-6.11,-10.094 -19.095,-28.534 -38.954,-55.321l-24.059,-32.027c-3.056,-3.494 -4.583,-6.405 -4.583,-8.735c0,-2.329 1.718,-3.882 5.155,-4.658c3.437,-0.777 8.975,-1.165 16.613,-1.165c3.055,-0.388 5.538,-0.485 7.447,-0.291c1.91,0.194 3.246,0.291 4.01,0.291l12.603,-0.582c35.899,0 67.597,10.676 95.094,32.027c20.622,16.693 47.737,54.35 81.345,112.97l6.874,11.646l6.874,18.052c0,2.329 1.528,3.494 4.583,3.494c2.291,0 3.437,-0.971 3.437,-2.912c6.874,-10.481 21.005,-30.086 42.391,-58.814c3.819,-4.27 6.874,-13.199 9.166,-26.786c2.291,-8.541 4.965,-16.985 8.02,-25.331c3.055,-8.347 6.492,-13.491 10.311,-15.432c8.402,-4.27 18.331,-6.405 29.789,-6.405c6.11,0 12.602,0.582 19.477,1.747c6.11,1.165 13.175,2.911 21.195,5.241c8.02,2.329 14.703,4.27 20.05,5.823c9.166,1.553 13.748,5.047 13.748,10.482c0,1.164 -0.763,3.299 -2.291,6.405c-2.291,3.882 -4.774,8.541 -7.447,13.976c-2.673,5.435 -4.774,9.705 -6.301,12.811c-6.875,16.305 -13.749,28.727 -20.623,37.268c-1.528,2.717 -3.246,5.047 -5.156,6.988c-1.909,1.941 -3.628,3.688 -5.156,5.241l-10.311,12.811c-4.583,8.54 -13.939,18.343 -28.07,29.407c-14.13,11.064 -23.105,18.149 -26.924,21.254c-3.055,5.435 -6.874,14.17 -11.457,26.205c-4.583,12.034 -6.11,18.828 -4.583,20.381c3.056,5.046 4.583,10.87 4.583,17.469c0,5.435 -0.382,10.094 -1.146,13.976c-0.763,3.882 -1.527,7.182 -2.291,9.899c-6.11,28.34 -9.929,50.079 -11.457,65.22c-2.291,11.258 -9.166,21.934 -20.623,32.027Z" style="fill:#d9d9d9;fill-rule:nonzero;"/><path d="M672.859,1010.21c-12.985,-0.389 -24.824,-2.524 -35.517,-6.406c-17.567,-5.435 -32.462,-9.511 -44.682,-12.228c-12.985,-3.106 -24.251,-7.279 -33.799,-12.52c-9.547,-5.241 -18.522,-11.744 -26.924,-19.508c-9.929,-10.093 -16.994,-20.478 -21.195,-31.154c-4.201,-10.676 -7.829,-23.584 -10.885,-38.724c-0.763,-3.106 -1.145,-7.958 -1.145,-14.558c0,-10.093 1.527,-20.866 4.582,-32.319c3.056,-11.452 4.965,-18.537 5.729,-21.254c9.929,-41.151 27.115,-81.525 51.557,-121.122c10.693,-19.022 25.587,-38.045 44.682,-57.067c6.111,-6.6 15.658,-14.17 28.643,-22.711c9.166,-5.823 19.095,-7.958 29.788,-6.405l5.729,0.582c6.874,0 12.603,-1.553 17.185,-4.658c8.402,-4.659 19.477,-6.406 33.226,-5.241c17.567,0.776 34.562,2.232 50.984,4.367c16.422,2.135 36.853,5.144 61.295,9.026c16.04,2.718 29.789,10.288 41.246,22.711c1.527,1.164 2.864,2.523 4.01,4.076c1.145,1.553 2.482,2.717 4.01,3.494c10.693,6.211 15.276,14.169 13.748,23.875l0,2.911c0,3.106 0.764,7.376 2.291,12.811c1.528,9.317 2.292,16.499 2.292,21.546c0,8.541 -1.528,22.128 -4.583,40.762l0,3.494c0,4.27 1.528,7.182 4.583,8.735c5.346,0 11.648,0.097 18.904,0.291c7.256,0.194 15.849,0.097 25.778,-0.291c10.694,-0.777 19.095,-1.553 25.206,-2.329l32.08,-2.33l22.914,-2.911c3.055,-0.388 6.874,-0.583 11.457,-0.583c9.929,0 16.04,3.494 18.331,10.482l0,3.494c0,2.717 -0.382,4.659 -1.146,5.823c-3.819,7.376 -16.803,12.423 -38.954,15.14c-19.095,2.718 -36.28,4.271 -51.556,4.659c-9.166,0 -16.04,-0.194 -20.623,-0.582c-12.985,1.553 -23.678,2.523 -32.08,2.911l-1.146,0c-10.693,3.494 -19.095,6.988 -25.205,10.482l-1.146,0l0,1.747c-9.165,22.128 -24.06,52.408 -44.682,90.841l-14.894,27.369c-9.166,15.917 -22.915,33.192 -41.246,51.827c-22.15,22.128 -58.431,32.609 -108.842,31.445Zm108.842,-261.461c3.055,-0.388 4.583,-2.135 4.583,-5.241c0.764,-3.105 1.146,-7.57 1.146,-13.393c0,-5.047 -0.764,-8.735 -2.292,-11.064c-3.819,-7.764 -5.728,-15.14 -5.728,-22.128c0,-3.494 0.382,-6.211 1.145,-8.152c0.764,-1.553 1.146,-3.688 1.146,-6.406c0,-5.047 -1.909,-10.676 -5.728,-16.887c-3.819,-6.212 -6.493,-11.064 -8.02,-14.558c-0.764,-0.776 -1.719,-2.426 -2.865,-4.95c-1.145,-2.523 -3.246,-3.979 -6.301,-4.367l-1.146,0c-2.291,0 -4.392,1.067 -6.301,3.203c-1.91,2.135 -3.628,3.396 -5.156,3.785l-5.728,3.494c-16.804,12.034 -26.352,24.457 -28.643,37.268c0,8.152 2.673,15.528 8.02,22.128c3.819,5.047 8.784,9.511 14.894,13.393c6.111,3.882 12.794,7.862 20.05,11.938c7.256,4.076 13.176,7.279 17.758,9.608c3.819,1.941 6.875,2.717 9.166,2.329Zm-88.219,199.153c3.055,0 4.583,-1.165 4.583,-3.494c3.055,-3.882 5.728,-8.347 8.019,-13.393l6.875,-12.811c25.969,-42.704 43.155,-75.119 51.556,-97.247l8.02,-22.128l0,-3.494c0,-5.824 -5.728,-10.094 -17.185,-12.811c-16.04,-3.882 -32.844,-10.288 -50.411,-19.217c-8.402,-4.27 -16.422,-7.764 -24.06,-10.482c-3.819,-1.941 -6.874,-2.717 -9.166,-2.329c-1.527,0.777 -2.291,1.844 -2.291,3.203l0,6.114c2.291,5.047 3.437,10.482 3.437,16.305c0,6.988 -1.528,13.393 -4.583,19.217c-3.819,8.928 -5.728,17.081 -5.728,24.457c0.763,7.764 1.145,19.411 1.145,34.939l-1.145,27.951c0,7.764 1.145,15.723 3.437,23.875c3.055,12.423 10.311,25.234 21.768,38.433c2.292,1.941 4.201,2.912 5.729,2.912Z" style="fill:#d9d9d9;fill-rule:nonzero;"/><path d="M1131.14,1012.54c-25.205,0 -59.194,-3.494 -101.967,-10.482c-18.332,-2.717 -32.08,-8.735 -41.246,-18.052c-10.693,-9.705 -18.331,-24.069 -22.914,-43.091c-1.528,-8.929 -2.291,-22.516 -2.291,-40.762c0,-32.222 3.055,-57.844 9.165,-76.866c11.457,-30.281 20.241,-56.679 26.352,-79.195c4.582,-20.964 8.019,-41.151 10.311,-60.561c2.291,-16.305 6.492,-33.969 12.603,-52.991l1.145,-9.9c0,-5.435 1.91,-8.928 5.729,-10.481c3.819,-1.553 11.839,-2.33 24.06,-2.33c18.331,0.389 33.607,3.591 45.828,9.609c12.221,6.017 18.713,13.684 19.477,23.001c1.528,6.212 2.291,15.335 2.291,27.369l0,18.634c-1.527,27.563 -5.155,55.612 -10.884,84.145c-5.728,28.534 -13.557,61.629 -23.487,99.285c-3.055,10.87 -4.583,23.099 -4.583,36.686c0,23.293 6.493,43.868 19.477,61.726l2.292,3.494c0.764,0.388 1.527,1.067 2.291,2.038c0.764,0.97 2.292,1.456 4.583,1.456c0.764,-0.389 1.528,-0.971 2.291,-1.747c0.764,-0.777 1.528,-1.553 2.292,-2.33c5.346,-11.258 8.02,-23.875 8.02,-37.85c0,-19.799 2.864,-39.21 8.593,-58.232c5.728,-19.022 14.703,-44.644 26.924,-76.866l5.728,-13.975c11.457,-29.893 19.859,-66.385 25.206,-109.476l1.145,-16.305c1.528,-13.199 2.292,-23.099 2.292,-29.698c0,-3.882 2.673,-6.697 8.02,-8.444c5.346,-1.747 14.13,-2.62 26.351,-2.62c13.749,0 22.341,0.679 25.778,2.038c3.438,1.359 5.156,4.561 5.156,9.608c0,24.069 -0.382,42.121 -1.146,54.156l2.292,16.305c0.764,4.27 1.146,10.675 1.146,19.216c0,9.317 -1.528,23.681 -4.583,43.092c-1.528,5.823 -3.055,15.334 -4.583,28.533l-4.583,26.787c-4.583,20.187 -6.874,35.327 -6.874,45.42c0,6.212 0.382,10.87 1.146,13.976c0.763,7.764 -0.764,17.47 -4.583,29.116c-1.528,8.541 -2.292,15.14 -2.292,19.799c-1.527,10.87 -3.055,19.022 -4.583,24.457c-4.582,17.858 -17.567,34.163 -38.954,48.915c-12.22,8.928 -31.697,13.393 -58.431,13.393Z" style="fill:#d9d9d9;fill-rule:nonzero;"/><path d="M1370.59,1000.89c-2.291,-0.777 -8.593,-3.009 -18.904,-6.697c-10.311,-3.688 -21.196,-6.114 -32.653,-7.279c-8.402,-0.776 -12.602,-4.27 -12.602,-10.482l-1.146,-32.027c0,-6.988 0.382,-12.229 1.146,-15.723c2.291,-9.317 3.437,-23.487 3.437,-42.509c0.763,-3.882 1.145,-9.511 1.145,-16.887c0,-20.575 0.764,-52.603 2.292,-96.082l0,-18.635c0,-15.916 1.527,-30.086 4.583,-42.509c1.527,-6.211 3.055,-16.305 4.582,-30.28c1.528,-19.023 4.201,-33.386 8.02,-43.092l1.146,-4.658c0,-5.823 -4.583,-10.676 -13.748,-14.558c-3.819,-1.165 -6.493,-3.3 -8.02,-6.406l0,-2.329c0,-2.329 0.954,-3.979 2.864,-4.95c1.909,-0.97 5.537,-1.455 10.884,-1.455c9.166,0.388 19.668,0.194 31.507,-0.583c11.839,-0.776 20.05,-1.358 24.633,-1.747c21.386,-1.553 37.808,-2.329 49.265,-2.329c26.733,0 56.522,3.494 89.365,10.482c46.592,10.093 69.888,32.027 69.888,65.802c0,38.044 -37.426,69.684 -112.279,94.917c-6.11,1.941 -10.884,3.688 -14.321,5.241c-3.437,1.553 -5.156,3.106 -5.156,4.659c0,1.941 2.291,5.629 6.874,11.064c3.055,3.105 12.221,13.975 27.497,32.609l13.749,16.305l21.768,25.622c4.583,5.435 12.794,15.141 24.633,29.116c11.839,13.976 21.577,26.399 29.215,37.268c2.292,3.106 4.583,6.406 6.875,9.9c2.291,3.494 4.582,7.182 6.874,11.064c2.291,1.941 3.437,5.629 3.437,11.064c-1.528,3.882 -2.292,10.093 -2.292,18.634c0,2.718 -1.145,4.756 -3.437,6.114c-2.291,1.359 -5.346,2.039 -9.165,2.039c-2.292,0 -5.347,-0.583 -9.166,-1.747c-11.457,-4.271 -26.733,-8.153 -45.828,-11.647c-12.221,-1.941 -22.151,-8.152 -29.789,-18.634c-10.693,-18.246 -27.878,-42.703 -51.556,-73.372c-13.749,-16.693 -25.206,-32.027 -34.372,-46.003c-0.763,-0.776 -1.718,-2.135 -2.864,-4.076c-1.146,-1.941 -2.482,-2.718 -4.01,-2.329c-3.055,0 -4.583,0.97 -4.583,2.911l1.146,4.659c0.764,3.494 1.146,8.929 1.146,16.305c0,7.376 -0.764,19.992 -2.292,37.85c0.764,3.106 1.146,7.959 1.146,14.558c0,9.705 -0.382,17.081 -1.146,22.128l-1.145,23.875c0,8.153 -0.764,20.769 -2.292,37.851c0,6.211 -4.201,9.317 -12.602,9.317c-5.347,0 -9.93,-0.777 -13.749,-2.329Zm43.537,-290.577c1.527,0 3.246,-0.291 5.156,-0.873c1.909,-0.583 3.246,-1.068 4.01,-1.456c15.276,-5.823 28.642,-12.617 40.099,-20.381c1.528,-1.165 6.111,-4.173 13.749,-9.026c7.638,-4.853 13.748,-9.802 18.331,-14.849c2.291,-2.329 3.437,-4.853 3.437,-7.57c0,-3.494 -1.909,-6.503 -5.728,-9.026c-3.819,-2.524 -8.784,-3.979 -14.895,-4.368c-19.858,-1.941 -38.954,-2.523 -57.285,-1.746c-9.929,0.388 -13.748,3.105 -11.457,8.152c0.764,1.165 1.146,3.3 1.146,6.405c0,2.718 -0.382,4.853 -1.146,6.406l-2.291,23.875l1.145,0l0,20.672c0,1.359 1.146,2.427 3.437,3.203l2.292,0.582Z" style="fill:#d9d9d9;fill-rule:nonzero;"/><path d="M75.373,1604.17c-20.622,-2.329 -38.19,-7.958 -52.702,-16.887c-14.513,-8.929 -21.387,-18.44 -20.623,-28.534l2.291,-39.597l1.146,-39.015c2.292,-62.502 12.603,-120.928 30.934,-175.278c5.347,-15.528 10.312,-39.209 14.894,-71.043c1.528,-5.046 3.056,-13.005 4.583,-23.875c1.528,-3.882 3.819,-6.696 6.874,-8.443c3.056,-1.747 8.02,-2.621 14.895,-2.621c23.678,-0.388 45.828,3.106 66.451,10.482c8.401,3.106 13.748,7.57 16.04,13.393c2.291,5.824 3.437,14.364 3.437,25.622c0,9.706 -0.382,17.082 -1.146,22.128l-1.146,22.129c-0.764,17.081 -3.437,35.133 -8.02,54.155c-4.583,19.022 -7.256,30.475 -8.02,34.357c-9.165,33.386 -14.512,58.426 -16.04,75.119c-0.763,8.54 -1.145,21.157 -1.145,37.85c0,8.541 -0.764,20.964 -2.292,37.269c-1.527,18.634 -1.909,32.803 -1.145,42.509c0,4.658 -3.438,8.734 -10.312,12.228c-5.346,3.494 -8.783,6.6 -10.311,9.317c-2.292,3.883 -5.538,6.503 -9.739,7.862c-4.201,1.358 -10.502,1.65 -18.904,0.873Z" style="fill:#d9d9d9;fill-rule:nonzero;"/><path d="M299.932,1605.34c-10.694,-2.329 -21.005,-3.3 -30.934,-2.912c-5.347,0 -13.367,-0.776 -24.06,-2.329c-13.749,-2.329 -21.005,-6.6 -21.769,-12.811c-1.527,-3.882 -2.291,-7.182 -2.291,-9.899c0,-15.917 -2.673,-52.991 -8.02,-111.223l-1.146,-19.216c-1.527,-17.082 -2.291,-30.087 -2.291,-39.016c0,-10.87 0.382,-18.828 1.146,-23.875l4.582,-54.155c1.528,-12.035 3.056,-30.087 4.583,-54.156c0.764,-12.422 4.201,-25.039 10.312,-37.85c4.582,-10.87 6.874,-19.217 6.874,-25.04c0,-3.494 1.718,-6.114 5.155,-7.861c3.438,-1.747 9.357,-2.621 17.759,-2.621c12.985,0 27.879,2.038 44.682,6.115c16.804,4.076 27.497,8.443 32.08,13.102c3.055,1.553 4.583,4.27 4.583,8.152c3.055,10.094 6.301,17.955 9.739,23.584c3.437,5.629 10.12,10.773 20.049,15.432c0.764,0.388 1.337,0.873 1.719,1.455c0.382,0.583 0.955,1.068 1.719,1.456c3.055,4.27 10.311,12.811 21.768,25.622c6.11,6.211 11.839,12.714 17.186,19.508c5.346,6.793 9.165,13.296 11.457,19.507c1.527,4.271 4.201,8.832 8.02,13.685c3.819,4.852 6.11,8.055 6.874,9.608c6.11,6.211 10.693,12.229 13.748,18.052l10.312,20.381c0,2.717 1.909,4.076 5.728,4.076l0,-0.582c0,-51.244 1.146,-84.242 3.437,-98.994c2.292,-21.352 6.875,-42.509 13.749,-63.473c1.527,-3.882 4.201,-6.405 8.02,-7.57c3.819,-1.164 10.693,-1.747 20.622,-1.747c14.513,0 28.261,1.747 41.246,5.241c9.929,4.659 14.512,9.317 13.748,13.976c-1.527,5.435 -2.291,9.317 -2.291,11.646c0,5.047 1.527,12.229 4.583,21.546c0.764,1.941 1.145,7.57 1.145,16.887c0,22.904 -1.909,37.851 -5.728,44.838c-3.055,6.212 -4.583,13.394 -4.583,21.546c0,6.988 1.528,17.858 4.583,32.61l1.146,2.329c0,18.634 -0.573,34.066 -1.719,46.294c-1.146,12.229 -3.628,26.496 -7.447,42.801l-1.146,8.152l2.292,11.647c0,3.105 -1.528,10.869 -4.583,23.292c-0.764,2.329 -1.91,7.279 -3.437,14.849c-1.528,7.57 -1.528,12.52 0,14.849c0,3.106 -1.337,5.047 -4.01,5.824c-2.674,0.776 -7.447,1.164 -14.322,1.164l-71.033,-2.911c-3.819,-0.777 -6.684,-1.941 -8.593,-3.494c-1.91,-1.553 -3.437,-3.494 -4.583,-5.823c-1.146,-2.33 -2.482,-4.465 -4.01,-6.406c-3.055,-5.823 -8.211,-14.849 -15.467,-27.078c-7.256,-12.228 -12.412,-21.06 -15.467,-26.495c-15.276,-39.21 -32.08,-71.431 -50.411,-96.665c-2.292,-2.329 -4.583,-5.532 -6.874,-9.608c-2.292,-4.076 -4.201,-7.473 -5.729,-10.191c-0.764,-0.776 -1.337,-1.844 -1.718,-3.202c-0.382,-1.359 -1.719,-2.038 -4.01,-2.038c-1.528,0 -2.292,0.776 -2.292,2.329l0,2.911c-1.527,4.271 -2.482,9.415 -2.864,15.432c-0.382,6.017 -0.573,10.773 -0.573,14.267c0,22.128 -0.382,40.568 -1.146,55.32c-1.527,47.362 -1.909,78.03 -1.145,92.006l0,13.393c0,1.553 0.191,3.785 0.573,6.697c0.381,2.911 0.19,7.085 -0.573,12.52c0,6.211 -0.955,10.675 -2.865,13.393c-1.909,2.717 -6.683,4.076 -14.321,4.076c-6.11,0 -13.367,-0.776 -21.768,-2.329Z" style="fill:#d9d9d9;fill-rule:nonzero;"/><path d="M710.094,1605.34c-10.693,-2.329 -21.004,-3.3 -30.934,-2.912c-5.346,0 -13.366,-0.776 -24.059,-2.329c-13.749,-2.329 -21.005,-6.6 -21.769,-12.811c-1.527,-3.882 -2.291,-7.182 -2.291,-9.899c0,-15.917 -2.674,-52.991 -8.02,-111.223l-1.146,-19.216c-1.528,-17.082 -2.291,-30.087 -2.291,-39.016c0,-10.87 0.382,-18.828 1.145,-23.875l4.583,-54.155c1.528,-12.035 3.055,-30.087 4.583,-54.156c0.764,-12.422 4.201,-25.039 10.311,-37.85c4.583,-10.87 6.875,-19.217 6.875,-25.04c0,-3.494 1.718,-6.114 5.155,-7.861c3.437,-1.747 9.357,-2.621 17.759,-2.621c12.984,0 27.879,2.038 44.682,6.115c16.804,4.076 27.497,8.443 32.08,13.102c3.055,1.553 4.583,4.27 4.583,8.152c3.055,10.094 6.301,17.955 9.738,23.584c3.437,5.629 10.121,10.773 20.05,15.432c0.764,0.388 1.337,0.873 1.719,1.455c0.382,0.583 0.955,1.068 1.718,1.456c3.056,4.27 10.312,12.811 21.769,25.622c6.11,6.211 11.839,12.714 17.185,19.508c5.347,6.793 9.166,13.296 11.457,19.507c1.528,4.271 4.201,8.832 8.02,13.685c3.819,4.852 6.111,8.055 6.875,9.608c6.11,6.211 10.693,12.229 13.748,18.052l10.311,20.381c0,2.717 1.91,4.076 5.729,4.076l0,-0.582c0,-51.244 1.146,-84.242 3.437,-98.994c2.291,-21.352 6.874,-42.509 13.749,-63.473c1.527,-3.882 4.2,-6.405 8.019,-7.57c3.82,-1.164 10.694,-1.747 20.623,-1.747c14.512,0 28.261,1.747 41.246,5.241c9.929,4.659 14.512,9.317 13.748,13.976c-1.528,5.435 -2.291,9.317 -2.291,11.646c0,5.047 1.527,12.229 4.583,21.546c0.763,1.941 1.145,7.57 1.145,16.887c0,22.904 -1.909,37.851 -5.728,44.838c-3.056,6.212 -4.583,13.394 -4.583,21.546c0,6.988 1.527,17.858 4.583,32.61l1.145,2.329c0,18.634 -0.572,34.066 -1.718,46.294c-1.146,12.229 -3.628,26.496 -7.447,42.801l-1.146,8.152l2.291,11.647c0,3.105 -1.527,10.869 -4.582,23.292c-0.764,2.329 -1.91,7.279 -3.437,14.849c-1.528,7.57 -1.528,12.52 0,14.849c0,3.106 -1.337,5.047 -4.01,5.824c-2.674,0.776 -7.448,1.164 -14.322,1.164l-71.034,-2.911c-3.819,-0.777 -6.683,-1.941 -8.592,-3.494c-1.91,-1.553 -3.437,-3.494 -4.583,-5.823c-1.146,-2.33 -2.483,-4.465 -4.01,-6.406c-3.055,-5.823 -8.211,-14.849 -15.467,-27.078c-7.256,-12.228 -12.412,-21.06 -15.467,-26.495c-15.276,-39.21 -32.08,-71.431 -50.411,-96.665c-2.292,-2.329 -4.583,-5.532 -6.875,-9.608c-2.291,-4.076 -4.2,-7.473 -5.728,-10.191c-0.764,-0.776 -1.337,-1.844 -1.719,-3.202c-0.382,-1.359 -1.718,-2.038 -4.01,-2.038c-1.527,0 -2.291,0.776 -2.291,2.329l0,2.911c-1.528,4.271 -2.482,9.415 -2.864,15.432c-0.382,6.017 -0.573,10.773 -0.573,14.267c0,22.128 -0.382,40.568 -1.146,55.32c-1.527,47.362 -1.909,78.03 -1.146,92.006l0,13.393c0,1.553 0.191,3.785 0.573,6.697c0.382,2.911 0.191,7.085 -0.573,12.52c0,6.211 -0.954,10.675 -2.864,13.393c-1.909,2.717 -6.683,4.076 -14.321,4.076c-6.111,0 -13.367,-0.776 -21.769,-2.329Z" style="fill:#d9d9d9;fill-rule:nonzero;"/><path d="M1190.14,1601.85c-13.748,0.776 -24.441,1.165 -32.079,1.165c-12.221,0 -24.824,-1.165 -37.809,-3.494c-6.874,-1.165 -14.894,-1.941 -24.06,-2.33c-9.165,-0.388 -16.421,-0.776 -21.768,-1.164c-20.623,-1.553 -31.316,-7.764 -32.08,-18.634l-2.291,-21.546c-1.528,-18.634 -3.055,-32.61 -4.583,-41.927c0,-3.106 -0.764,-6.988 -2.291,-11.646c-1.528,-7.765 -2.292,-13.588 -2.292,-17.47c0,-3.105 0.764,-7.376 2.292,-12.811c-2.292,-14.752 -3.438,-29.31 -3.438,-43.674c0,-6.987 0.764,-17.469 2.292,-31.445c0.764,-4.27 1.146,-10.676 1.146,-19.216l0,-22.128c0,-14.364 1.527,-25.234 4.582,-32.61c3.056,-10.87 6.111,-19.022 9.166,-24.457c7.638,-13.976 11.457,-29.31 11.457,-46.003c0,-8.541 0.764,-20.964 2.292,-37.269c0.763,-4.27 2.482,-7.085 5.155,-8.443c2.674,-1.359 7.829,-1.844 15.467,-1.456l7.447,0c3.437,0 6.684,-0.194 9.739,-0.582c25.969,-3.494 52.32,-5.241 79.054,-5.241c26.733,0 57.285,1.941 91.656,5.823c9.93,1.165 16.231,2.329 18.904,3.494c2.674,1.164 4.01,3.494 4.01,6.988c1.528,10.87 -6.11,17.469 -22.914,19.798c-12.985,2.33 -25.587,3.494 -37.808,3.494c-6.874,0 -11.839,-0.194 -14.894,-0.582l-9.166,-0.582c-8.402,0 -16.422,0.97 -24.06,2.911c-7.638,1.941 -14.703,4.076 -21.195,6.406c-6.493,2.329 -10.885,3.882 -13.176,4.658c-2.292,1.165 -3.437,2.718 -3.437,4.659l0,3.494c-0.764,5.435 0.382,13.975 3.437,25.622c2.291,7.376 3.437,14.946 3.437,22.71c0,5.823 -0.764,14.558 -2.291,26.204c-0.764,3.106 -1.146,8.153 -1.146,15.141c0,3.105 0.191,6.793 0.573,11.064c0.382,4.27 0.191,9.317 -0.573,15.14c0,5.047 0.764,12.617 2.291,22.71l1.146,22.711c0,3.105 0.764,5.24 2.291,6.405c1.528,1.165 4.965,1.747 10.312,1.747l61.868,-0.582c8.402,0 13.939,0.679 16.613,2.038c2.673,1.359 4.773,4.173 6.301,8.443c0.764,0 1.146,0.098 1.146,0.292l1.145,10.19c0,4.659 -1.909,7.958 -5.728,9.9c-3.819,1.941 -12.221,3.882 -25.206,5.823c-20.622,3.494 -37.808,5.241 -51.556,5.241c-6.875,0 -11.266,0.485 -13.176,1.455c-1.91,0.971 -2.864,3.397 -2.864,7.279l-1.146,16.888c0,5.823 0.764,13.781 2.291,23.875c1.528,4.658 2.101,9.996 1.719,16.013c-0.382,6.018 -0.573,10.191 -0.573,12.52c0,4.659 1.337,7.57 4.01,8.735c2.673,1.164 7.829,1.359 15.467,0.582c6.874,-0.776 16.804,-1.164 29.789,-1.164c12.22,0 22.723,0.194 31.506,0.582c8.784,0.388 15.849,0.776 21.196,1.164c9.929,0.777 14.512,3.494 13.748,8.153c0,3.494 -0.381,6.211 -1.145,8.152c0,5.824 2.291,9.9 6.874,12.229c2.291,1.165 3.437,2.135 3.437,2.912l2.292,4.658c0,1.941 -1.337,3.591 -4.01,4.95c-2.674,1.359 -6.684,1.844 -12.03,1.456l-32.08,-0.583c-9.93,0 -24.824,0.389 -44.683,1.165Z" style="fill:#d9d9d9;fill-rule:nonzero;"/><path d="M1403.25,1583.21c-2.292,-0.777 -8.593,-3.009 -18.904,-6.697c-10.312,-3.688 -21.196,-6.114 -32.653,-7.279c-8.402,-0.776 -12.603,-4.27 -12.603,-10.482l-1.146,-32.027c0,-6.988 0.382,-12.229 1.146,-15.723c2.292,-9.317 3.437,-23.486 3.437,-42.509c0.764,-3.882 1.146,-9.511 1.146,-16.887c0,-20.575 0.764,-52.603 2.291,-96.082l0,-18.634c0,-15.917 1.528,-30.087 4.583,-42.51c1.528,-6.211 3.055,-16.304 4.583,-30.28c1.528,-19.022 4.201,-33.386 8.02,-43.092l1.146,-4.658c0,-5.823 -4.583,-10.676 -13.749,-14.558c-3.819,-1.165 -6.492,-3.3 -8.02,-6.405l0,-2.33c0,-2.329 0.955,-3.979 2.865,-4.949c1.909,-0.971 5.537,-1.456 10.884,-1.456c9.165,0.388 19.668,0.194 31.507,-0.583c11.839,-0.776 20.049,-1.358 24.632,-1.746c21.387,-1.553 37.809,-2.33 49.266,-2.33c26.733,0 56.521,3.494 89.365,10.482c46.592,10.093 69.888,32.027 69.888,65.802c0,38.045 -37.427,69.684 -112.279,94.918c-6.111,1.941 -10.885,3.688 -14.322,5.24c-3.437,1.553 -5.155,3.106 -5.155,4.659c0,1.941 2.291,5.629 6.874,11.064c3.055,3.106 12.221,13.976 27.497,32.61l13.748,16.305l21.769,25.622c4.583,5.434 12.793,15.14 24.632,29.115c11.839,13.976 21.578,26.399 29.216,37.269c2.291,3.105 4.583,6.405 6.874,9.899c2.292,3.494 4.583,7.182 6.874,11.064c2.292,1.941 3.437,5.629 3.437,11.064c-1.527,3.882 -2.291,10.094 -2.291,18.634c0,2.718 -1.146,4.756 -3.437,6.115c-2.291,1.358 -5.347,2.038 -9.166,2.038c-2.291,0 -5.346,-0.583 -9.165,-1.747c-11.457,-4.271 -26.733,-8.153 -45.829,-11.647c-12.22,-1.941 -22.15,-8.152 -29.788,-18.634c-10.693,-18.246 -27.879,-42.703 -51.557,-73.372c-13.748,-16.693 -25.205,-32.027 -34.371,-46.003c-0.764,-0.776 -1.718,-2.135 -2.864,-4.076c-1.146,-1.941 -2.483,-2.717 -4.01,-2.329c-3.055,0 -4.583,0.97 -4.583,2.911l1.146,4.659c0.764,3.494 1.145,8.929 1.145,16.305c0,7.376 -0.763,19.993 -2.291,37.85c0.764,3.106 1.146,7.959 1.146,14.558c0,9.706 -0.382,17.082 -1.146,22.128l-1.146,23.875c0,8.153 -0.763,20.77 -2.291,37.851c0,6.211 -4.201,9.317 -12.603,9.317c-5.346,0 -9.929,-0.776 -13.748,-2.329Zm43.537,-290.576c1.527,0 3.246,-0.292 5.155,-0.874c1.91,-0.582 3.246,-1.068 4.01,-1.456c15.276,-5.823 28.643,-12.617 40.1,-20.381c1.527,-1.164 6.11,-4.173 13.748,-9.026c7.638,-4.852 13.749,-9.802 18.332,-14.849c2.291,-2.329 3.437,-4.853 3.437,-7.57c0,-3.494 -1.91,-6.503 -5.729,-9.026c-3.819,-2.523 -8.784,-3.979 -14.894,-4.367c-19.859,-1.941 -38.954,-2.524 -57.285,-1.747c-9.93,0.388 -13.749,3.105 -11.457,8.152c0.763,1.165 1.145,3.3 1.145,6.406c0,2.717 -0.382,4.852 -1.145,6.405l-2.292,23.875l1.146,0l0,20.672c0,1.359 1.146,2.427 3.437,3.203l2.292,0.583Z" style="fill:#d9d9d9;fill-rule:nonzero;"/><path d="M318.263,2183.58c-20.623,0 -34.371,-4.853 -41.245,-14.558c-14.513,-19.022 -24.06,-39.792 -28.643,-62.308c-1.528,-4.659 -2.482,-8.735 -2.864,-12.229l-0.573,-10.481c0,-0.777 -0.764,-1.165 -2.292,-1.165c-0.763,0 -1.527,0.388 -2.291,1.165c-0.764,0.776 -1.146,1.358 -1.146,1.747l-9.165,20.963c-6.111,10.093 -11.839,17.275 -17.186,21.546c-4.583,3.882 -8.02,7.958 -10.311,12.228c-3.819,5.435 -8.402,9.706 -13.749,12.811c-8.402,5.047 -18.713,7.765 -30.934,8.153c-11.457,0 -23.678,0.582 -36.663,1.747c-9.165,0.776 -16.039,1.164 -20.622,1.164c-5.347,0 -9.548,-0.194 -12.603,-0.582c-16.804,-1.165 -27.879,-5.629 -33.225,-13.393c-2.292,-2.718 -4.392,-6.018 -6.302,-9.9c-1.909,-3.882 -3.246,-6.793 -4.01,-8.734c-7.638,-15.529 -12.221,-33.969 -13.748,-55.321l-2.292,-22.71c-2.291,-24.069 -3.055,-46.003 -2.291,-65.802l-1.146,-6.988c-0.764,-9.317 -1.146,-23.292 -1.146,-41.926c0,-15.141 0.764,-26.593 2.292,-34.357c0.764,-5.823 0.955,-11.064 0.573,-15.723c-0.382,-4.658 -0.573,-8.54 -0.573,-11.646c0.764,-6.988 1.146,-17.47 1.146,-31.445l0,-53.573c0.763,-1.553 1.145,-3.688 1.145,-6.406c1.528,-4.658 6.111,-7.182 13.749,-7.57c12.221,-0.776 21.004,-1.165 26.351,-1.165c19.095,0 35.899,3.106 50.411,9.318c6.874,3.105 12.985,7.764 18.331,13.975c5.347,5.823 8.975,12.423 10.885,19.799c1.909,7.376 3.246,14.558 4.01,21.546c1.527,10.481 6.11,25.233 13.748,44.256c12.221,27.563 17.186,51.826 14.894,72.789c0,12.035 0.382,21.158 1.146,27.369c1.528,12.035 1.909,21.158 1.146,27.369c0,1.553 0.763,2.524 2.291,2.912c1.528,0 2.291,-0.777 2.291,-2.329l22.915,-36.104l4.582,-7.57c9.166,-11.258 23.296,-17.664 42.392,-19.217l20.622,-3.494c2.292,-0.388 5.729,-0.582 10.312,-0.582c7.638,0 15.276,2.329 22.914,6.988c19.859,13.199 33.607,27.757 41.245,43.674c0.764,3.105 2.673,6.405 5.729,9.899c7.638,9.317 12.602,19.605 14.894,30.863l3.437,6.988l2.291,1.164l1.146,-1.747l1.146,-3.494l30.934,-95.5c1.527,-6.211 2.291,-15.722 2.291,-28.533c0,-22.128 3.437,-39.792 10.312,-52.991c2.291,-4.659 4.391,-10.191 6.301,-16.596c1.91,-6.406 3.246,-11.355 4.01,-14.849c3.055,-10.482 11.075,-21.74 24.06,-33.775c6.11,-6.211 15.658,-9.317 28.642,-9.317l22.915,-0.582c6.11,0 10.693,0.485 13.748,1.456c3.055,0.97 5.347,3.009 6.874,6.114c1.528,1.941 2.292,4.659 2.292,8.153c0,3.494 -0.382,6.211 -1.146,8.152l-6.874,25.622c-4.583,16.305 -6.874,24.846 -6.874,25.622c-3.056,7.376 -5.156,15.334 -6.302,23.875c-1.146,8.541 -2.1,14.17 -2.864,16.887c-3.055,31.445 -11.839,63.473 -26.351,96.083c-4.583,10.093 -7.638,17.663 -9.166,22.71c-3.055,9.705 -9.166,20.963 -18.331,33.774c-4.583,6.988 -8.402,17.664 -11.457,32.028l-13.749,47.75c-0.764,1.164 -1.909,4.076 -3.437,8.735c-1.528,4.658 -1.909,8.928 -1.146,12.811c0,2.717 -0.382,4.949 -1.145,6.696c-0.764,1.747 -1.528,3.397 -2.292,4.95c-3.055,7.376 -12.603,11.064 -28.642,11.064c-3.819,0.388 -7.066,0.485 -9.739,0.291c-2.673,-0.194 -5.156,-0.291 -7.447,-0.291c-3.819,-0.388 -9.166,-0.582 -16.04,-0.582c-9.166,0 -16.04,0.388 -20.623,1.164c-4.582,0.777 -11.839,1.165 -21.768,1.165Z" style="fill:#d9d9d9;fill-rule:nonzero;"/><path d="M753.631,2174.85c-12.984,-0.388 -24.823,-2.523 -35.517,-6.405c-17.567,-5.435 -32.461,-9.512 -44.682,-12.229c-12.985,-3.106 -24.251,-7.279 -33.798,-12.52c-9.548,-5.241 -18.523,-11.743 -26.925,-19.507c-9.929,-10.094 -16.994,-20.479 -21.195,-31.154c-4.201,-10.676 -7.829,-23.584 -10.884,-38.725c-0.764,-3.105 -1.146,-7.958 -1.146,-14.557c0,-10.094 1.528,-20.867 4.583,-32.319c3.055,-11.452 4.965,-18.537 5.728,-21.255c9.93,-41.15 27.115,-81.524 51.557,-121.122c10.693,-19.022 25.588,-38.044 44.683,-57.067c6.11,-6.599 15.658,-14.169 28.642,-22.71c9.166,-5.823 19.095,-7.958 29.789,-6.406l5.728,0.583c6.874,0 12.603,-1.553 17.186,-4.659c8.402,-4.658 19.477,-6.405 33.225,-5.241c17.568,0.777 34.562,2.233 50.984,4.368c16.422,2.135 36.854,5.143 61.295,9.026c16.04,2.717 29.789,10.287 41.246,22.71c1.527,1.165 2.864,2.523 4.01,4.076c1.146,1.553 2.482,2.718 4.01,3.494c10.693,6.211 15.276,14.17 13.748,23.875l0,2.912c0,3.105 0.764,7.376 2.292,12.811c1.527,9.317 2.291,16.499 2.291,21.545c0,8.541 -1.528,22.128 -4.583,40.763l0,3.494c0,4.27 1.528,7.181 4.583,8.734c5.347,0 11.648,0.097 18.904,0.291c7.256,0.195 15.849,0.097 25.779,-0.291c10.693,-0.776 19.095,-1.553 25.205,-2.329l32.08,-2.329l22.914,-2.912c3.055,-0.388 6.874,-0.582 11.457,-0.582c9.93,0 16.04,3.494 18.331,10.482l0,3.493c0,2.718 -0.381,4.659 -1.145,5.824c-3.819,7.376 -16.804,12.422 -38.954,15.14c-19.095,2.717 -36.281,4.27 -51.557,4.658c-9.166,0 -16.04,-0.194 -20.623,-0.582c-12.984,1.553 -23.678,2.523 -32.08,2.912l-1.145,0c-10.694,3.494 -19.095,6.987 -25.206,10.481l-1.145,0l0,1.747c-9.166,22.128 -24.06,52.409 -44.683,90.842l-14.894,27.369c-9.166,15.916 -22.914,33.192 -41.246,51.826c-22.15,22.128 -58.431,32.61 -108.842,31.445Zm108.842,-261.46c3.056,-0.389 4.583,-2.135 4.583,-5.241c0.764,-3.106 1.146,-7.57 1.146,-13.393c0,-5.047 -0.764,-8.735 -2.292,-11.065c-3.819,-7.764 -5.728,-15.14 -5.728,-22.128c0,-3.493 0.382,-6.211 1.146,-8.152c0.763,-1.553 1.145,-3.688 1.145,-6.405c0,-5.047 -1.909,-10.676 -5.728,-16.888c-3.819,-6.211 -6.492,-11.064 -8.02,-14.558c-0.764,-0.776 -1.719,-2.426 -2.864,-4.949c-1.146,-2.524 -3.247,-3.979 -6.302,-4.368l-1.145,0c-2.292,0 -4.392,1.068 -6.302,3.203c-1.909,2.135 -3.628,3.397 -5.156,3.785l-5.728,3.494c-16.804,12.035 -26.351,24.457 -28.643,37.268c0,8.153 2.674,15.529 8.02,22.128c3.819,5.047 8.784,9.512 14.894,13.394c6.111,3.882 12.794,7.861 20.05,11.937c7.256,4.076 13.176,7.279 17.759,9.608c3.819,1.941 6.874,2.718 9.165,2.33Zm-88.219,199.152c3.055,0 4.583,-1.164 4.583,-3.494c3.055,-3.882 5.728,-8.346 8.02,-13.393l6.874,-12.811c25.969,-42.703 43.155,-75.119 51.557,-97.247l8.02,-22.128l0,-3.494c0,-5.823 -5.729,-10.093 -17.186,-12.811c-16.04,-3.882 -32.843,-10.288 -50.411,-19.216c-8.402,-4.271 -16.422,-7.765 -24.06,-10.482c-3.819,-1.941 -6.874,-2.718 -9.165,-2.329c-1.528,0.776 -2.292,1.844 -2.292,3.202l0,6.115c2.292,5.046 3.437,10.481 3.437,16.305c0,6.987 -1.527,13.393 -4.583,19.216c-3.819,8.929 -5.728,17.081 -5.728,24.457c0.764,7.765 1.146,19.411 1.146,34.939l-1.146,27.952c0,7.764 1.146,15.722 3.437,23.875c3.055,12.422 10.311,25.233 21.768,38.433c2.292,1.941 4.201,2.911 5.729,2.911Z" style="fill:#d9d9d9;fill-rule:nonzero;"/><path d="M1222.23,2219.1c-53.466,-2.329 -95.857,-5.823 -127.173,-10.482c-34.371,-5.046 -51.557,-16.498 -51.557,-34.356l1.146,-6.406c4.582,-28.339 11.075,-59.396 19.477,-93.17l10.311,-44.257c3.819,-14.363 8.784,-36.297 14.894,-65.801c5.347,-27.563 14.894,-60.367 28.643,-98.412c4.583,-12.811 10.693,-32.027 18.331,-57.649l9.166,-39.598c2.291,-9.317 9.547,-13.976 21.768,-13.976c10.693,0 20.432,1.068 29.216,3.203c8.783,2.135 17.376,5.338 25.778,9.608c6.111,1.941 9.166,5.241 9.166,9.9c-0.764,8.54 1.145,20.963 5.728,37.268c1.528,6.211 2.292,10.676 2.292,13.393c0,4.271 -0.764,11.064 -2.292,20.381c-1.527,6.212 -2.291,10.676 -2.291,13.394c-1.528,16.305 -3.055,28.533 -4.583,36.686c-1.528,6.211 -3.055,15.528 -4.583,27.951c-0.764,6.6 -1.909,12.229 -3.437,16.887c-1.528,4.659 -2.673,8.541 -3.437,11.647l-6.874,28.533c-4.583,23.293 -7.638,41.539 -9.166,54.738c-1.528,5.435 -3.055,14.364 -4.583,26.786c-2.291,10.094 -6.492,27.369 -12.602,51.827c-4.583,15.14 -7.257,25.816 -8.02,32.027l0,3.494c0,2.718 1.336,4.659 4.01,5.823c2.673,1.165 7.829,1.941 15.467,2.329l8.02,0c19.095,-0.388 34.562,2.039 46.401,7.279c11.839,5.241 22.341,12.52 31.507,21.837c1.527,1.165 2.291,2.912 2.291,5.241c0,3.882 -4.201,6.6 -12.603,8.153c-6.11,1.552 -8.784,3.299 -8.02,5.24c0,3.106 -1.718,5.338 -5.155,6.697c-3.438,1.359 -8.211,2.232 -14.322,2.621l-22.914,1.164Z" style="fill:#d9d9d9;fill-rule:nonzero;"/><path d="M1445.64,2151.55c-6.874,-0.776 -17.95,-1.164 -33.226,-1.164l-35.517,0.582c-11.457,0 -20.24,-4.464 -26.351,-13.393c-5.346,-8.929 -8.784,-22.516 -10.311,-40.762l-8.02,-68.714c0,-50.079 -0.382,-87.736 -1.146,-112.969l4.583,-45.421l3.437,-22.71c1.528,-15.529 3.819,-30.475 6.874,-44.839c3.056,-10.093 4.583,-17.469 4.583,-22.128c0,-3.882 -0.382,-6.794 -1.146,-8.735c-0.763,-6.211 2.292,-11.452 9.166,-15.722c6.874,-4.271 15.658,-6.406 26.351,-6.406c4.583,0 9.93,0.583 16.04,1.747c9.93,2.329 22.151,3.494 36.663,3.494c6.874,0 14.894,-0.194 24.06,-0.582c9.165,-0.388 16.04,-0.777 20.622,-1.165c25.97,-1.553 45.447,-2.329 58.431,-2.329c6.875,0 17.186,0.388 30.934,1.164c16.04,1.165 26.352,3.494 30.935,6.988c4.582,3.494 6.874,9.9 6.874,19.217c0,7.764 -3.055,14.169 -9.166,19.216c-3.819,3.882 -6.492,9.317 -8.02,16.305c-2.291,6.211 -10.311,9.705 -24.06,10.482l-68.742,3.494c-12.221,0.776 -20.05,2.232 -23.487,4.367c-3.437,2.135 -5.156,6.309 -5.156,12.52c0.764,11.646 0.382,24.263 -1.145,37.851c-1.528,13.587 -2.674,22.516 -3.437,26.786l-3.438,36.686l1.146,15.723c0,5.435 4.965,7.376 14.894,5.823c17.568,-2.329 34.371,-3.494 50.411,-3.494c6.875,0 17.95,0.388 33.226,1.165c8.402,0.776 13.939,2.038 16.613,3.785c2.673,1.747 4.391,4.561 5.155,8.443l-1.145,27.951c0,6.6 -6.111,9.9 -18.332,9.9c-6.11,0 -11.266,0.194 -15.467,0.582c-4.201,0.388 -7.829,0.777 -10.884,1.165c-3.055,0.388 -7.256,0.776 -12.603,1.164c-5.346,0.389 -11.839,0.583 -19.477,0.583c-4.583,0 -10.693,-0.388 -18.331,-1.165c-1.528,-0.388 -3.819,-0.582 -6.874,-0.582c-8.402,0 -13.367,3.688 -14.894,11.064c-0.764,4.658 -1.146,11.84 -1.146,21.546c0,10.481 0.382,19.507 1.146,27.077c0.763,7.57 1.527,14.073 2.291,19.508l2.291,16.887c0.764,3.882 0.382,7.861 -1.145,11.938c-1.528,4.076 -2.674,6.696 -3.437,7.861c-1.528,2.329 -3.056,6.6 -4.583,12.811c0,1.941 -1.528,3.591 -4.583,4.95c-3.055,1.358 -6.874,1.844 -11.457,1.455Z" style="fill:#d9d9d9;fill-rule:nonzero;"/></g></g></svg>