<?xml version="1.0" encoding="UTF-8" standalone="no"?>
<!DOCTYPE svg PUBLIC "-//W3C//DTD SVG 1.1//EN" "http://www.w3.org/Graphics/SVG/1.1/DTD/svg11.dtd">
<svg width="100%" height="100%" viewBox="0 0 903 117" version="1.1" xmlns="http://www.w3.org/2000/svg" xmlns:xlink="http://www.w3.org/1999/xlink" xml:space="preserve" xmlns:serif="http://www.serif.com/" style="fill-rule:evenodd;clip-rule:evenodd;stroke-linejoin:round;stroke-miterlimit:2;">
    <g transform="matrix(1,0,0,1,-144,-636)">
        <g id="Title-Black" serif:id="Title Black" transform="matrix(1,0,0,1,34.95,-181.831)">
            <g transform="matrix(144,0,0,144,106.603,922.881)">
                <path d="M0.12,-0.034C0.114,-0.035 0.104,-0.036 0.091,-0.036L0.06,-0.035C0.05,-0.035 0.042,-0.043 0.037,-0.058C0.032,-0.073 0.029,-0.097 0.028,-0.128L0.021,-0.246C0.021,-0.332 0.021,-0.397 0.02,-0.44L0.024,-0.518L0.027,-0.557C0.028,-0.584 0.03,-0.609 0.033,-0.634C0.036,-0.651 0.037,-0.664 0.037,-0.672C0.037,-0.679 0.037,-0.684 0.036,-0.687C0.035,-0.698 0.038,-0.707 0.044,-0.714C0.05,-0.721 0.058,-0.725 0.067,-0.725C0.071,-0.725 0.076,-0.724 0.081,-0.722C0.09,-0.718 0.1,-0.716 0.113,-0.716C0.119,-0.716 0.126,-0.716 0.134,-0.717C0.142,-0.718 0.148,-0.718 0.152,-0.719C0.175,-0.722 0.192,-0.723 0.203,-0.723C0.209,-0.723 0.218,-0.722 0.23,-0.721C0.244,-0.719 0.253,-0.715 0.257,-0.709C0.261,-0.703 0.263,-0.692 0.263,-0.676C0.263,-0.663 0.26,-0.652 0.255,-0.643C0.252,-0.636 0.249,-0.627 0.248,-0.615C0.246,-0.604 0.239,-0.598 0.227,-0.597L0.167,-0.591C0.156,-0.59 0.15,-0.587 0.147,-0.584C0.143,-0.58 0.142,-0.573 0.142,-0.562C0.143,-0.542 0.142,-0.52 0.141,-0.497C0.14,-0.474 0.139,-0.458 0.138,-0.451L0.135,-0.388L0.136,-0.361C0.136,-0.352 0.14,-0.348 0.149,-0.351C0.164,-0.355 0.179,-0.357 0.193,-0.357C0.199,-0.357 0.209,-0.356 0.222,-0.355C0.229,-0.354 0.234,-0.352 0.237,-0.349C0.239,-0.346 0.24,-0.341 0.241,-0.334L0.24,-0.286C0.24,-0.275 0.235,-0.269 0.224,-0.269C0.219,-0.269 0.214,-0.269 0.211,-0.268C0.207,-0.267 0.204,-0.267 0.201,-0.266C0.198,-0.265 0.195,-0.265 0.19,-0.264C0.185,-0.263 0.18,-0.263 0.173,-0.263C0.169,-0.263 0.164,-0.264 0.157,-0.265C0.156,-0.266 0.154,-0.266 0.151,-0.266C0.144,-0.266 0.139,-0.26 0.138,-0.247C0.137,-0.239 0.137,-0.227 0.137,-0.21C0.137,-0.192 0.137,-0.177 0.138,-0.164C0.139,-0.151 0.139,-0.139 0.14,-0.13L0.142,-0.101C0.143,-0.094 0.142,-0.088 0.141,-0.081C0.14,-0.074 0.139,-0.069 0.138,-0.067C0.137,-0.063 0.135,-0.056 0.134,-0.045C0.134,-0.042 0.133,-0.039 0.13,-0.037C0.127,-0.034 0.124,-0.033 0.12,-0.034Z" style="fill:rgb(34,34,34);fill-rule:nonzero;"/>
            </g>
            <g transform="matrix(144,0,0,144,147.355,922.881)">
                <path d="M0.084,0.026C0.066,0.022 0.051,0.012 0.038,-0.003C0.025,-0.018 0.019,-0.035 0.02,-0.052L0.022,-0.12L0.023,-0.187C0.025,-0.294 0.034,-0.395 0.05,-0.488C0.055,-0.515 0.059,-0.555 0.063,-0.61C0.064,-0.619 0.066,-0.632 0.067,-0.651C0.068,-0.658 0.07,-0.663 0.073,-0.666C0.076,-0.669 0.08,-0.67 0.086,-0.67C0.107,-0.671 0.126,-0.665 0.144,-0.652C0.151,-0.647 0.156,-0.639 0.158,-0.629C0.16,-0.619 0.161,-0.604 0.161,-0.585C0.161,-0.568 0.161,-0.556 0.16,-0.547L0.159,-0.509C0.158,-0.48 0.156,-0.449 0.152,-0.416C0.148,-0.383 0.146,-0.364 0.145,-0.357C0.137,-0.3 0.132,-0.257 0.131,-0.228C0.13,-0.213 0.13,-0.192 0.13,-0.163C0.13,-0.148 0.129,-0.127 0.128,-0.099C0.127,-0.067 0.126,-0.043 0.127,-0.026C0.127,-0.018 0.124,-0.011 0.118,-0.005C0.113,0.001 0.11,0.006 0.109,0.011C0.107,0.018 0.104,0.022 0.101,0.025C0.097,0.027 0.091,0.027 0.084,0.026Z" style="fill:rgb(34,34,34);fill-rule:nonzero;"/>
            </g>
            <g transform="matrix(144,0,0,144,173.419,922.881)">
                <path d="M0.099,0.028C0.09,0.024 0.081,0.022 0.072,0.023C0.067,0.023 0.06,0.022 0.051,0.019C0.039,0.015 0.033,0.008 0.032,-0.003C0.031,-0.01 0.03,-0.015 0.03,-0.02C0.03,-0.047 0.028,-0.111 0.023,-0.211L0.022,-0.244C0.021,-0.273 0.02,-0.296 0.02,-0.311C0.02,-0.33 0.02,-0.343 0.021,-0.352L0.025,-0.445C0.026,-0.466 0.028,-0.497 0.029,-0.538C0.03,-0.559 0.033,-0.581 0.038,-0.603C0.042,-0.622 0.044,-0.636 0.044,-0.646C0.044,-0.652 0.046,-0.657 0.049,-0.66C0.051,-0.663 0.057,-0.664 0.064,-0.664C0.075,-0.664 0.088,-0.661 0.103,-0.654C0.118,-0.647 0.127,-0.639 0.131,-0.631C0.134,-0.628 0.135,-0.624 0.135,-0.617C0.138,-0.6 0.141,-0.586 0.144,-0.577C0.147,-0.567 0.152,-0.558 0.161,-0.55C0.162,-0.549 0.162,-0.549 0.163,-0.548C0.163,-0.547 0.163,-0.546 0.164,-0.545C0.167,-0.538 0.173,-0.523 0.183,-0.501C0.188,-0.49 0.193,-0.479 0.198,-0.468C0.203,-0.456 0.206,-0.445 0.208,-0.434C0.209,-0.427 0.212,-0.419 0.215,-0.411C0.218,-0.402 0.22,-0.397 0.221,-0.394C0.226,-0.383 0.23,-0.373 0.233,-0.363L0.242,-0.328C0.242,-0.323 0.244,-0.321 0.247,-0.321L0.247,-0.322C0.247,-0.41 0.248,-0.467 0.25,-0.492C0.252,-0.529 0.256,-0.565 0.262,-0.601C0.263,-0.608 0.266,-0.612 0.269,-0.614C0.272,-0.616 0.278,-0.617 0.287,-0.617C0.3,-0.617 0.312,-0.614 0.323,-0.608C0.332,-0.6 0.336,-0.592 0.335,-0.584C0.334,-0.575 0.333,-0.568 0.333,-0.564C0.333,-0.555 0.334,-0.543 0.337,-0.527C0.338,-0.524 0.338,-0.514 0.338,-0.498C0.338,-0.459 0.336,-0.433 0.333,-0.421C0.33,-0.41 0.329,-0.398 0.329,-0.384C0.329,-0.372 0.33,-0.353 0.333,-0.328L0.334,-0.324C0.334,-0.292 0.334,-0.266 0.333,-0.245C0.332,-0.224 0.329,-0.199 0.326,-0.171L0.325,-0.157L0.327,-0.137C0.327,-0.132 0.326,-0.118 0.323,-0.097C0.322,-0.093 0.321,-0.085 0.32,-0.072C0.319,-0.059 0.319,-0.05 0.32,-0.046C0.32,-0.041 0.319,-0.037 0.317,-0.036C0.314,-0.035 0.31,-0.034 0.304,-0.034L0.242,-0.039C0.239,-0.04 0.236,-0.042 0.235,-0.045C0.233,-0.048 0.232,-0.051 0.231,-0.055C0.23,-0.059 0.228,-0.063 0.227,-0.066C0.224,-0.076 0.22,-0.092 0.214,-0.113C0.207,-0.134 0.203,-0.149 0.2,-0.158C0.187,-0.225 0.172,-0.281 0.156,-0.324C0.154,-0.328 0.152,-0.334 0.15,-0.341C0.148,-0.347 0.146,-0.353 0.145,-0.358C0.144,-0.359 0.144,-0.361 0.144,-0.364C0.143,-0.366 0.142,-0.367 0.14,-0.367C0.139,-0.367 0.138,-0.366 0.138,-0.363L0.138,-0.358C0.137,-0.351 0.136,-0.342 0.136,-0.332C0.135,-0.321 0.135,-0.313 0.135,-0.307C0.135,-0.269 0.135,-0.237 0.134,-0.212C0.133,-0.131 0.132,-0.078 0.133,-0.054L0.133,-0.031C0.133,-0.028 0.133,-0.024 0.134,-0.02C0.134,-0.014 0.134,-0.007 0.133,0.002C0.133,0.013 0.132,0.02 0.131,0.025C0.129,0.03 0.125,0.032 0.118,0.032C0.113,0.032 0.106,0.031 0.099,0.028Z" style="fill:rgb(34,34,34);fill-rule:nonzero;"/>
            </g>
            <g transform="matrix(144,0,0,144,224.971,922.881)">
                <path d="M0.145,0.025C0.124,0.024 0.103,0.019 0.082,0.011C0.045,-0.004 0.025,-0.03 0.023,-0.068C0.022,-0.073 0.022,-0.079 0.021,-0.086C0.02,-0.093 0.02,-0.1 0.02,-0.109C0.02,-0.116 0.02,-0.121 0.021,-0.124C0.022,-0.189 0.026,-0.255 0.035,-0.323L0.04,-0.368C0.047,-0.428 0.052,-0.473 0.057,-0.503C0.06,-0.517 0.062,-0.539 0.065,-0.57L0.067,-0.591L0.067,-0.594C0.067,-0.599 0.066,-0.605 0.063,-0.613C0.062,-0.618 0.061,-0.622 0.061,-0.624C0.061,-0.628 0.062,-0.631 0.065,-0.633C0.068,-0.634 0.072,-0.635 0.079,-0.635C0.08,-0.635 0.082,-0.635 0.084,-0.636C0.085,-0.636 0.087,-0.636 0.09,-0.635L0.094,-0.634C0.101,-0.634 0.105,-0.638 0.107,-0.646C0.11,-0.653 0.113,-0.659 0.116,-0.662C0.119,-0.665 0.124,-0.667 0.129,-0.667C0.134,-0.667 0.139,-0.666 0.145,-0.664C0.156,-0.661 0.18,-0.652 0.219,-0.638C0.248,-0.626 0.275,-0.616 0.3,-0.609C0.329,-0.6 0.351,-0.585 0.365,-0.564C0.372,-0.554 0.379,-0.546 0.388,-0.539C0.4,-0.526 0.407,-0.512 0.409,-0.495C0.412,-0.476 0.414,-0.463 0.417,-0.454C0.421,-0.44 0.423,-0.425 0.423,-0.41C0.423,-0.397 0.422,-0.386 0.419,-0.375C0.416,-0.362 0.414,-0.349 0.413,-0.334C0.412,-0.317 0.409,-0.301 0.406,-0.288C0.405,-0.285 0.405,-0.281 0.406,-0.277C0.407,-0.266 0.408,-0.259 0.408,-0.254C0.408,-0.243 0.407,-0.231 0.405,-0.218C0.402,-0.205 0.399,-0.192 0.396,-0.179L0.391,-0.157L0.383,-0.123C0.373,-0.084 0.349,-0.051 0.311,-0.023C0.267,0.01 0.219,0.026 0.166,0.026C0.157,0.026 0.15,0.026 0.145,0.025ZM0.174,-0.038C0.219,-0.035 0.25,-0.051 0.265,-0.086C0.284,-0.129 0.296,-0.164 0.302,-0.191L0.334,-0.36C0.335,-0.362 0.335,-0.365 0.335,-0.37C0.335,-0.375 0.335,-0.378 0.334,-0.38C0.331,-0.399 0.33,-0.413 0.33,-0.424C0.33,-0.432 0.33,-0.438 0.331,-0.442L0.331,-0.445C0.331,-0.451 0.328,-0.458 0.323,-0.466C0.303,-0.495 0.292,-0.512 0.289,-0.515C0.264,-0.548 0.234,-0.573 0.2,-0.591C0.196,-0.593 0.192,-0.594 0.188,-0.594C0.181,-0.594 0.173,-0.591 0.166,-0.586C0.159,-0.581 0.156,-0.575 0.156,-0.566C0.156,-0.562 0.156,-0.559 0.157,-0.557C0.16,-0.546 0.161,-0.532 0.161,-0.517C0.162,-0.508 0.162,-0.501 0.162,-0.495C0.161,-0.488 0.161,-0.483 0.161,-0.479C0.16,-0.474 0.16,-0.466 0.16,-0.455C0.16,-0.444 0.16,-0.435 0.161,-0.43C0.163,-0.417 0.164,-0.404 0.164,-0.391C0.164,-0.372 0.164,-0.359 0.163,-0.35L0.162,-0.308C0.161,-0.281 0.159,-0.261 0.157,-0.246C0.154,-0.223 0.151,-0.189 0.148,-0.144L0.146,-0.101C0.145,-0.098 0.145,-0.094 0.146,-0.089C0.146,-0.084 0.147,-0.076 0.148,-0.067C0.149,-0.05 0.158,-0.04 0.174,-0.038Z" style="fill:rgb(34,34,34);fill-rule:nonzero;"/>
            </g>
            <g transform="matrix(144,0,0,144,324.763,922.881)">
                <path d="M0.246,0.02C0.243,0.025 0.238,0.028 0.23,0.028C0.219,0.028 0.202,0.023 0.179,0.012C0.167,0.007 0.161,-0.013 0.161,-0.046C0.161,-0.058 0.162,-0.072 0.163,-0.088L0.164,-0.111C0.164,-0.169 0.165,-0.213 0.167,-0.242L0.167,-0.245C0.167,-0.249 0.165,-0.256 0.161,-0.265C0.128,-0.336 0.1,-0.41 0.079,-0.486C0.074,-0.503 0.062,-0.535 0.045,-0.581L0.024,-0.636C0.021,-0.642 0.02,-0.647 0.02,-0.651C0.02,-0.655 0.022,-0.658 0.025,-0.659C0.028,-0.66 0.032,-0.661 0.039,-0.661C0.042,-0.662 0.044,-0.662 0.046,-0.662C0.047,-0.661 0.048,-0.661 0.049,-0.661L0.06,-0.662C0.091,-0.662 0.119,-0.644 0.143,-0.607C0.161,-0.578 0.185,-0.514 0.214,-0.413L0.22,-0.393L0.226,-0.362C0.226,-0.358 0.227,-0.356 0.23,-0.356C0.232,-0.356 0.233,-0.358 0.233,-0.361C0.239,-0.379 0.251,-0.413 0.27,-0.462C0.273,-0.469 0.276,-0.485 0.278,-0.508C0.28,-0.523 0.282,-0.537 0.285,-0.552C0.288,-0.566 0.291,-0.575 0.294,-0.578C0.301,-0.585 0.31,-0.589 0.32,-0.589C0.325,-0.589 0.331,-0.588 0.337,-0.586C0.342,-0.584 0.349,-0.581 0.356,-0.577C0.363,-0.573 0.368,-0.57 0.373,-0.567C0.381,-0.564 0.385,-0.558 0.385,-0.549C0.385,-0.547 0.384,-0.543 0.383,-0.538C0.381,-0.531 0.379,-0.523 0.377,-0.514C0.374,-0.505 0.372,-0.497 0.371,-0.492C0.365,-0.464 0.359,-0.443 0.353,-0.428C0.352,-0.423 0.35,-0.419 0.349,-0.416C0.347,-0.413 0.345,-0.41 0.344,-0.407L0.335,-0.385C0.331,-0.37 0.323,-0.354 0.311,-0.335C0.298,-0.316 0.29,-0.303 0.287,-0.298C0.284,-0.289 0.281,-0.274 0.277,-0.253C0.273,-0.232 0.272,-0.221 0.273,-0.218C0.276,-0.209 0.277,-0.199 0.277,-0.188C0.277,-0.179 0.277,-0.171 0.276,-0.164C0.275,-0.157 0.275,-0.152 0.274,-0.147C0.269,-0.098 0.265,-0.061 0.264,-0.035C0.262,-0.016 0.256,0.003 0.246,0.02Z" style="fill:rgb(34,34,34);fill-rule:nonzero;"/>
            </g>
            <g transform="matrix(144,0,0,144,383.083,922.881)">
                <path d="M0.172,0.006C0.161,0.005 0.15,0.002 0.141,-0.005C0.126,-0.014 0.113,-0.021 0.102,-0.026C0.091,-0.031 0.081,-0.039 0.073,-0.048C0.064,-0.056 0.056,-0.068 0.049,-0.081C0.04,-0.098 0.034,-0.116 0.031,-0.135C0.027,-0.153 0.024,-0.175 0.021,-0.201C0.02,-0.206 0.02,-0.215 0.02,-0.226C0.02,-0.243 0.021,-0.262 0.024,-0.282C0.027,-0.301 0.028,-0.313 0.029,-0.318C0.038,-0.389 0.053,-0.458 0.074,-0.526C0.083,-0.559 0.096,-0.591 0.113,-0.624C0.118,-0.635 0.127,-0.648 0.138,-0.663C0.146,-0.673 0.155,-0.677 0.164,-0.674L0.169,-0.673C0.175,-0.673 0.18,-0.676 0.184,-0.681C0.191,-0.689 0.201,-0.692 0.213,-0.69C0.228,-0.689 0.243,-0.686 0.258,-0.683C0.272,-0.679 0.29,-0.674 0.311,-0.667C0.325,-0.662 0.337,-0.649 0.347,-0.628C0.348,-0.626 0.35,-0.624 0.351,-0.621C0.352,-0.618 0.353,-0.616 0.354,-0.615C0.363,-0.604 0.367,-0.591 0.366,-0.574L0.366,-0.569C0.366,-0.564 0.367,-0.556 0.368,-0.547C0.369,-0.531 0.37,-0.519 0.37,-0.51C0.37,-0.495 0.369,-0.472 0.366,-0.44L0.366,-0.434C0.366,-0.427 0.367,-0.422 0.37,-0.419C0.375,-0.419 0.38,-0.419 0.387,-0.419C0.393,-0.418 0.4,-0.418 0.409,-0.419C0.418,-0.42 0.426,-0.422 0.431,-0.423L0.459,-0.427L0.479,-0.432C0.482,-0.433 0.485,-0.433 0.489,-0.433C0.498,-0.433 0.503,-0.427 0.505,-0.415L0.505,-0.409C0.505,-0.404 0.505,-0.401 0.504,-0.399C0.501,-0.386 0.489,-0.378 0.47,-0.373C0.453,-0.368 0.438,-0.366 0.425,-0.365C0.417,-0.365 0.411,-0.365 0.407,-0.366C0.396,-0.363 0.386,-0.362 0.379,-0.361L0.378,-0.361C0.369,-0.355 0.361,-0.349 0.356,-0.343L0.355,-0.343L0.355,-0.34C0.347,-0.302 0.334,-0.25 0.316,-0.184L0.303,-0.137C0.295,-0.11 0.283,-0.08 0.267,-0.048C0.248,-0.01 0.216,0.008 0.172,0.006ZM0.267,-0.443C0.27,-0.444 0.271,-0.447 0.271,-0.452C0.272,-0.457 0.272,-0.465 0.272,-0.475C0.272,-0.484 0.271,-0.49 0.27,-0.494C0.267,-0.507 0.265,-0.52 0.265,-0.532C0.265,-0.538 0.265,-0.543 0.266,-0.546C0.267,-0.549 0.267,-0.552 0.267,-0.557C0.267,-0.566 0.265,-0.575 0.262,-0.586C0.259,-0.597 0.256,-0.605 0.255,-0.611C0.254,-0.612 0.254,-0.615 0.253,-0.62C0.252,-0.624 0.25,-0.626 0.247,-0.627L0.246,-0.627C0.244,-0.627 0.242,-0.625 0.241,-0.622C0.239,-0.618 0.237,-0.616 0.236,-0.615L0.231,-0.609C0.216,-0.588 0.208,-0.567 0.206,-0.545C0.206,-0.531 0.208,-0.518 0.213,-0.507C0.216,-0.498 0.221,-0.491 0.226,-0.484C0.231,-0.477 0.237,-0.471 0.244,-0.464C0.25,-0.456 0.255,-0.451 0.259,-0.447C0.262,-0.444 0.265,-0.442 0.267,-0.443ZM0.19,-0.101C0.193,-0.101 0.194,-0.103 0.194,-0.107C0.197,-0.114 0.199,-0.121 0.201,-0.13L0.207,-0.152C0.23,-0.225 0.245,-0.281 0.252,-0.319L0.259,-0.357L0.259,-0.363C0.259,-0.373 0.254,-0.38 0.244,-0.385C0.23,-0.392 0.215,-0.403 0.2,-0.418C0.193,-0.425 0.186,-0.431 0.179,-0.436C0.176,-0.439 0.173,-0.441 0.171,-0.44C0.17,-0.439 0.169,-0.437 0.169,-0.435L0.169,-0.424C0.171,-0.415 0.172,-0.406 0.172,-0.396C0.172,-0.384 0.171,-0.373 0.168,-0.363C0.165,-0.348 0.163,-0.334 0.163,-0.321C0.164,-0.308 0.164,-0.288 0.164,-0.261L0.163,-0.213C0.163,-0.2 0.164,-0.186 0.166,-0.172C0.169,-0.151 0.175,-0.129 0.185,-0.106C0.187,-0.103 0.189,-0.101 0.19,-0.101Z" style="fill:rgb(34,34,34);fill-rule:nonzero;"/>
            </g>
            <g transform="matrix(144,0,0,144,441.403,922.881)">
                <path d="M0.167,0.01C0.145,0.01 0.115,0.004 0.078,-0.008C0.062,-0.013 0.05,-0.023 0.042,-0.039C0.033,-0.056 0.026,-0.08 0.022,-0.113C0.021,-0.128 0.02,-0.152 0.02,-0.183C0.02,-0.238 0.023,-0.282 0.028,-0.315C0.038,-0.367 0.046,-0.412 0.051,-0.451C0.055,-0.487 0.058,-0.522 0.06,-0.555C0.062,-0.583 0.066,-0.613 0.071,-0.646L0.072,-0.663C0.072,-0.672 0.074,-0.678 0.077,-0.681C0.08,-0.684 0.087,-0.685 0.098,-0.685C0.114,-0.684 0.127,-0.679 0.138,-0.669C0.149,-0.658 0.154,-0.645 0.155,-0.629C0.156,-0.618 0.157,-0.603 0.157,-0.582L0.157,-0.55C0.156,-0.503 0.153,-0.455 0.148,-0.406C0.142,-0.357 0.136,-0.3 0.127,-0.235C0.124,-0.216 0.123,-0.195 0.123,-0.172C0.123,-0.132 0.129,-0.097 0.14,-0.066L0.142,-0.06C0.143,-0.059 0.143,-0.058 0.144,-0.057C0.145,-0.055 0.146,-0.054 0.148,-0.054C0.149,-0.055 0.149,-0.056 0.15,-0.057C0.151,-0.058 0.151,-0.06 0.152,-0.061C0.157,-0.08 0.159,-0.102 0.159,-0.126C0.159,-0.16 0.162,-0.193 0.167,-0.226C0.172,-0.259 0.179,-0.303 0.19,-0.358L0.195,-0.382C0.205,-0.433 0.212,-0.496 0.217,-0.57L0.218,-0.598C0.219,-0.621 0.22,-0.638 0.22,-0.649C0.22,-0.656 0.222,-0.661 0.227,-0.664C0.232,-0.667 0.239,-0.668 0.25,-0.668C0.262,-0.668 0.27,-0.667 0.273,-0.665C0.276,-0.662 0.277,-0.657 0.277,-0.648C0.277,-0.607 0.277,-0.576 0.276,-0.555L0.278,-0.527C0.279,-0.52 0.279,-0.509 0.279,-0.494C0.279,-0.478 0.278,-0.453 0.275,-0.42C0.274,-0.41 0.272,-0.394 0.271,-0.371L0.267,-0.325C0.263,-0.29 0.261,-0.264 0.261,-0.247C0.261,-0.236 0.261,-0.228 0.262,-0.223C0.263,-0.21 0.261,-0.193 0.258,-0.173C0.257,-0.158 0.256,-0.147 0.256,-0.139C0.255,-0.12 0.253,-0.106 0.252,-0.097C0.248,-0.066 0.237,-0.038 0.218,-0.013C0.207,0.002 0.19,0.01 0.167,0.01Z" style="fill:rgb(34,34,34);fill-rule:nonzero;"/>
            </g>
            <g transform="matrix(144,0,0,144,484.459,922.881)">
                <path d="M0.077,-0.01C0.075,-0.011 0.069,-0.015 0.061,-0.022C0.051,-0.028 0.042,-0.032 0.032,-0.034C0.025,-0.035 0.021,-0.041 0.021,-0.052L0.02,-0.107C0.02,-0.119 0.02,-0.128 0.021,-0.134C0.023,-0.15 0.024,-0.174 0.024,-0.207C0.025,-0.214 0.025,-0.223 0.025,-0.236C0.025,-0.271 0.026,-0.326 0.027,-0.401L0.027,-0.433C0.027,-0.46 0.028,-0.485 0.031,-0.506C0.032,-0.517 0.034,-0.534 0.035,-0.558C0.036,-0.591 0.039,-0.615 0.042,-0.632L0.043,-0.64C0.043,-0.65 0.039,-0.658 0.031,-0.665C0.028,-0.667 0.025,-0.671 0.024,-0.676L0.024,-0.68C0.024,-0.684 0.025,-0.687 0.027,-0.689C0.028,-0.69 0.031,-0.691 0.036,-0.691C0.044,-0.69 0.053,-0.691 0.064,-0.692C0.074,-0.693 0.081,-0.694 0.085,-0.695C0.104,-0.698 0.118,-0.699 0.128,-0.699C0.151,-0.699 0.177,-0.693 0.206,-0.681C0.247,-0.664 0.267,-0.626 0.267,-0.568C0.267,-0.503 0.234,-0.448 0.169,-0.405C0.164,-0.402 0.16,-0.399 0.157,-0.396C0.154,-0.393 0.152,-0.391 0.152,-0.388C0.152,-0.385 0.154,-0.378 0.158,-0.369C0.161,-0.364 0.169,-0.345 0.182,-0.313L0.194,-0.285L0.213,-0.241C0.217,-0.232 0.224,-0.215 0.235,-0.191C0.245,-0.167 0.253,-0.146 0.26,-0.127C0.262,-0.122 0.264,-0.116 0.266,-0.11C0.268,-0.104 0.27,-0.098 0.272,-0.091C0.274,-0.088 0.275,-0.081 0.275,-0.072C0.274,-0.065 0.273,-0.055 0.273,-0.04C0.273,-0.035 0.272,-0.032 0.27,-0.03C0.268,-0.027 0.265,-0.026 0.262,-0.026C0.26,-0.026 0.257,-0.027 0.254,-0.029C0.244,-0.036 0.231,-0.043 0.214,-0.049C0.203,-0.052 0.195,-0.063 0.188,-0.081C0.179,-0.112 0.164,-0.154 0.143,-0.207C0.131,-0.236 0.121,-0.262 0.113,-0.286C0.112,-0.287 0.112,-0.29 0.111,-0.293C0.11,-0.296 0.108,-0.298 0.107,-0.297C0.104,-0.297 0.103,-0.295 0.103,-0.292L0.104,-0.284C0.105,-0.278 0.105,-0.269 0.105,-0.256C0.105,-0.243 0.104,-0.222 0.103,-0.191C0.104,-0.186 0.104,-0.177 0.104,-0.166C0.104,-0.149 0.104,-0.137 0.103,-0.128L0.102,-0.087C0.102,-0.073 0.101,-0.051 0.1,-0.022C0.1,-0.011 0.096,-0.006 0.089,-0.006C0.084,-0.006 0.08,-0.007 0.077,-0.01ZM0.115,-0.509C0.116,-0.509 0.118,-0.51 0.12,-0.511C0.121,-0.511 0.122,-0.512 0.123,-0.513C0.136,-0.523 0.148,-0.535 0.158,-0.548C0.159,-0.55 0.163,-0.555 0.17,-0.564C0.177,-0.572 0.182,-0.58 0.186,-0.589C0.188,-0.593 0.189,-0.597 0.189,-0.602C0.189,-0.608 0.187,-0.613 0.184,-0.618C0.181,-0.622 0.176,-0.624 0.171,-0.625C0.154,-0.628 0.137,-0.629 0.121,-0.628C0.112,-0.627 0.109,-0.623 0.111,-0.614C0.112,-0.612 0.112,-0.608 0.112,-0.603C0.112,-0.598 0.112,-0.595 0.111,-0.592L0.109,-0.551L0.11,-0.551L0.11,-0.516C0.11,-0.513 0.111,-0.511 0.113,-0.51L0.115,-0.509Z" style="fill:rgb(34,34,34);fill-rule:nonzero;"/>
            </g>
            <g transform="matrix(144,0,0,144,562.939,922.881)">
                <path d="M0.084,0.026C0.066,0.022 0.051,0.012 0.038,-0.003C0.025,-0.018 0.019,-0.035 0.02,-0.052L0.022,-0.12L0.023,-0.187C0.025,-0.294 0.034,-0.395 0.05,-0.488C0.055,-0.515 0.059,-0.555 0.063,-0.61C0.064,-0.619 0.066,-0.632 0.067,-0.651C0.068,-0.658 0.07,-0.663 0.073,-0.666C0.076,-0.669 0.08,-0.67 0.086,-0.67C0.107,-0.671 0.126,-0.665 0.144,-0.652C0.151,-0.647 0.156,-0.639 0.158,-0.629C0.16,-0.619 0.161,-0.604 0.161,-0.585C0.161,-0.568 0.161,-0.556 0.16,-0.547L0.159,-0.509C0.158,-0.48 0.156,-0.449 0.152,-0.416C0.148,-0.383 0.146,-0.364 0.145,-0.357C0.137,-0.3 0.132,-0.257 0.131,-0.228C0.13,-0.213 0.13,-0.192 0.13,-0.163C0.13,-0.148 0.129,-0.127 0.128,-0.099C0.127,-0.067 0.126,-0.043 0.127,-0.026C0.127,-0.018 0.124,-0.011 0.118,-0.005C0.113,0.001 0.11,0.006 0.109,0.011C0.107,0.018 0.104,0.022 0.101,0.025C0.097,0.027 0.091,0.027 0.084,0.026Z" style="fill:rgb(34,34,34);fill-rule:nonzero;"/>
            </g>
            <g transform="matrix(144,0,0,144,589.003,922.881)">
                <path d="M0.099,0.028C0.09,0.024 0.081,0.022 0.072,0.023C0.067,0.023 0.06,0.022 0.051,0.019C0.039,0.015 0.033,0.008 0.032,-0.003C0.031,-0.01 0.03,-0.015 0.03,-0.02C0.03,-0.047 0.028,-0.111 0.023,-0.211L0.022,-0.244C0.021,-0.273 0.02,-0.296 0.02,-0.311C0.02,-0.33 0.02,-0.343 0.021,-0.352L0.025,-0.445C0.026,-0.466 0.028,-0.497 0.029,-0.538C0.03,-0.559 0.033,-0.581 0.038,-0.603C0.042,-0.622 0.044,-0.636 0.044,-0.646C0.044,-0.652 0.046,-0.657 0.049,-0.66C0.051,-0.663 0.057,-0.664 0.064,-0.664C0.075,-0.664 0.088,-0.661 0.103,-0.654C0.118,-0.647 0.127,-0.639 0.131,-0.631C0.134,-0.628 0.135,-0.624 0.135,-0.617C0.138,-0.6 0.141,-0.586 0.144,-0.577C0.147,-0.567 0.152,-0.558 0.161,-0.55C0.162,-0.549 0.162,-0.549 0.163,-0.548C0.163,-0.547 0.163,-0.546 0.164,-0.545C0.167,-0.538 0.173,-0.523 0.183,-0.501C0.188,-0.49 0.193,-0.479 0.198,-0.468C0.203,-0.456 0.206,-0.445 0.208,-0.434C0.209,-0.427 0.212,-0.419 0.215,-0.411C0.218,-0.402 0.22,-0.397 0.221,-0.394C0.226,-0.383 0.23,-0.373 0.233,-0.363L0.242,-0.328C0.242,-0.323 0.244,-0.321 0.247,-0.321L0.247,-0.322C0.247,-0.41 0.248,-0.467 0.25,-0.492C0.252,-0.529 0.256,-0.565 0.262,-0.601C0.263,-0.608 0.266,-0.612 0.269,-0.614C0.272,-0.616 0.278,-0.617 0.287,-0.617C0.3,-0.617 0.312,-0.614 0.323,-0.608C0.332,-0.6 0.336,-0.592 0.335,-0.584C0.334,-0.575 0.333,-0.568 0.333,-0.564C0.333,-0.555 0.334,-0.543 0.337,-0.527C0.338,-0.524 0.338,-0.514 0.338,-0.498C0.338,-0.459 0.336,-0.433 0.333,-0.421C0.33,-0.41 0.329,-0.398 0.329,-0.384C0.329,-0.372 0.33,-0.353 0.333,-0.328L0.334,-0.324C0.334,-0.292 0.334,-0.266 0.333,-0.245C0.332,-0.224 0.329,-0.199 0.326,-0.171L0.325,-0.157L0.327,-0.137C0.327,-0.132 0.326,-0.118 0.323,-0.097C0.322,-0.093 0.321,-0.085 0.32,-0.072C0.319,-0.059 0.319,-0.05 0.32,-0.046C0.32,-0.041 0.319,-0.037 0.317,-0.036C0.314,-0.035 0.31,-0.034 0.304,-0.034L0.242,-0.039C0.239,-0.04 0.236,-0.042 0.235,-0.045C0.233,-0.048 0.232,-0.051 0.231,-0.055C0.23,-0.059 0.228,-0.063 0.227,-0.066C0.224,-0.076 0.22,-0.092 0.214,-0.113C0.207,-0.134 0.203,-0.149 0.2,-0.158C0.187,-0.225 0.172,-0.281 0.156,-0.324C0.154,-0.328 0.152,-0.334 0.15,-0.341C0.148,-0.347 0.146,-0.353 0.145,-0.358C0.144,-0.359 0.144,-0.361 0.144,-0.364C0.143,-0.366 0.142,-0.367 0.14,-0.367C0.139,-0.367 0.138,-0.366 0.138,-0.363L0.138,-0.358C0.137,-0.351 0.136,-0.342 0.136,-0.332C0.135,-0.321 0.135,-0.313 0.135,-0.307C0.135,-0.269 0.135,-0.237 0.134,-0.212C0.133,-0.131 0.132,-0.078 0.133,-0.054L0.133,-0.031C0.133,-0.028 0.133,-0.024 0.134,-0.02C0.134,-0.014 0.134,-0.007 0.133,0.002C0.133,0.013 0.132,0.02 0.131,0.025C0.129,0.03 0.125,0.032 0.118,0.032C0.113,0.032 0.106,0.031 0.099,0.028Z" style="fill:rgb(34,34,34);fill-rule:nonzero;"/>
            </g>
            <g transform="matrix(144,0,0,144,640.555,922.881)">
                <path d="M0.099,0.028C0.09,0.024 0.081,0.022 0.072,0.023C0.067,0.023 0.06,0.022 0.051,0.019C0.039,0.015 0.033,0.008 0.032,-0.003C0.031,-0.01 0.03,-0.015 0.03,-0.02C0.03,-0.047 0.028,-0.111 0.023,-0.211L0.022,-0.244C0.021,-0.273 0.02,-0.296 0.02,-0.311C0.02,-0.33 0.02,-0.343 0.021,-0.352L0.025,-0.445C0.026,-0.466 0.028,-0.497 0.029,-0.538C0.03,-0.559 0.033,-0.581 0.038,-0.603C0.042,-0.622 0.044,-0.636 0.044,-0.646C0.044,-0.652 0.046,-0.657 0.049,-0.66C0.051,-0.663 0.057,-0.664 0.064,-0.664C0.075,-0.664 0.088,-0.661 0.103,-0.654C0.118,-0.647 0.127,-0.639 0.131,-0.631C0.134,-0.628 0.135,-0.624 0.135,-0.617C0.138,-0.6 0.141,-0.586 0.144,-0.577C0.147,-0.567 0.152,-0.558 0.161,-0.55C0.162,-0.549 0.162,-0.549 0.163,-0.548C0.163,-0.547 0.163,-0.546 0.164,-0.545C0.167,-0.538 0.173,-0.523 0.183,-0.501C0.188,-0.49 0.193,-0.479 0.198,-0.468C0.203,-0.456 0.206,-0.445 0.208,-0.434C0.209,-0.427 0.212,-0.419 0.215,-0.411C0.218,-0.402 0.22,-0.397 0.221,-0.394C0.226,-0.383 0.23,-0.373 0.233,-0.363L0.242,-0.328C0.242,-0.323 0.244,-0.321 0.247,-0.321L0.247,-0.322C0.247,-0.41 0.248,-0.467 0.25,-0.492C0.252,-0.529 0.256,-0.565 0.262,-0.601C0.263,-0.608 0.266,-0.612 0.269,-0.614C0.272,-0.616 0.278,-0.617 0.287,-0.617C0.3,-0.617 0.312,-0.614 0.323,-0.608C0.332,-0.6 0.336,-0.592 0.335,-0.584C0.334,-0.575 0.333,-0.568 0.333,-0.564C0.333,-0.555 0.334,-0.543 0.337,-0.527C0.338,-0.524 0.338,-0.514 0.338,-0.498C0.338,-0.459 0.336,-0.433 0.333,-0.421C0.33,-0.41 0.329,-0.398 0.329,-0.384C0.329,-0.372 0.33,-0.353 0.333,-0.328L0.334,-0.324C0.334,-0.292 0.334,-0.266 0.333,-0.245C0.332,-0.224 0.329,-0.199 0.326,-0.171L0.325,-0.157L0.327,-0.137C0.327,-0.132 0.326,-0.118 0.323,-0.097C0.322,-0.093 0.321,-0.085 0.32,-0.072C0.319,-0.059 0.319,-0.05 0.32,-0.046C0.32,-0.041 0.319,-0.037 0.317,-0.036C0.314,-0.035 0.31,-0.034 0.304,-0.034L0.242,-0.039C0.239,-0.04 0.236,-0.042 0.235,-0.045C0.233,-0.048 0.232,-0.051 0.231,-0.055C0.23,-0.059 0.228,-0.063 0.227,-0.066C0.224,-0.076 0.22,-0.092 0.214,-0.113C0.207,-0.134 0.203,-0.149 0.2,-0.158C0.187,-0.225 0.172,-0.281 0.156,-0.324C0.154,-0.328 0.152,-0.334 0.15,-0.341C0.148,-0.347 0.146,-0.353 0.145,-0.358C0.144,-0.359 0.144,-0.361 0.144,-0.364C0.143,-0.366 0.142,-0.367 0.14,-0.367C0.139,-0.367 0.138,-0.366 0.138,-0.363L0.138,-0.358C0.137,-0.351 0.136,-0.342 0.136,-0.332C0.135,-0.321 0.135,-0.313 0.135,-0.307C0.135,-0.269 0.135,-0.237 0.134,-0.212C0.133,-0.131 0.132,-0.078 0.133,-0.054L0.133,-0.031C0.133,-0.028 0.133,-0.024 0.134,-0.02C0.134,-0.014 0.134,-0.007 0.133,0.002C0.133,0.013 0.132,0.02 0.131,0.025C0.129,0.03 0.125,0.032 0.118,0.032C0.113,0.032 0.106,0.031 0.099,0.028Z" style="fill:rgb(34,34,34);fill-rule:nonzero;"/>
            </g>
            <g transform="matrix(144,0,0,144,692.107,922.881)">
                <path d="M0.16,0.022C0.148,0.023 0.139,0.024 0.132,0.024C0.121,0.024 0.11,0.022 0.099,0.018C0.093,0.016 0.086,0.015 0.078,0.014C0.07,0.013 0.064,0.013 0.059,0.012C0.041,0.009 0.032,-0.001 0.031,-0.02L0.029,-0.057C0.028,-0.089 0.026,-0.113 0.025,-0.129C0.025,-0.134 0.024,-0.141 0.023,-0.149C0.022,-0.162 0.021,-0.172 0.021,-0.179C0.021,-0.184 0.022,-0.192 0.023,-0.201C0.021,-0.226 0.02,-0.251 0.02,-0.276C0.02,-0.288 0.021,-0.306 0.022,-0.33C0.023,-0.337 0.023,-0.348 0.023,-0.363L0.023,-0.401C0.023,-0.426 0.024,-0.444 0.027,-0.457C0.03,-0.476 0.032,-0.49 0.035,-0.499C0.042,-0.523 0.045,-0.549 0.045,-0.578C0.045,-0.593 0.046,-0.614 0.047,-0.642C0.048,-0.649 0.049,-0.654 0.052,-0.657C0.054,-0.659 0.058,-0.66 0.065,-0.659L0.072,-0.659C0.075,-0.659 0.077,-0.659 0.08,-0.66C0.103,-0.666 0.126,-0.669 0.149,-0.669C0.172,-0.669 0.199,-0.666 0.229,-0.659C0.238,-0.657 0.243,-0.655 0.246,-0.653C0.248,-0.651 0.249,-0.647 0.249,-0.641C0.25,-0.622 0.244,-0.611 0.229,-0.607C0.218,-0.603 0.207,-0.601 0.196,-0.601C0.19,-0.601 0.186,-0.601 0.183,-0.602L0.175,-0.603C0.168,-0.603 0.161,-0.601 0.154,-0.598C0.147,-0.595 0.141,-0.591 0.136,-0.587C0.13,-0.583 0.126,-0.58 0.124,-0.579C0.122,-0.577 0.121,-0.574 0.121,-0.571L0.121,-0.565C0.12,-0.556 0.121,-0.541 0.124,-0.521C0.126,-0.508 0.127,-0.495 0.127,-0.482C0.127,-0.472 0.126,-0.457 0.125,-0.437C0.124,-0.432 0.124,-0.423 0.124,-0.411C0.124,-0.406 0.124,-0.399 0.125,-0.392C0.125,-0.385 0.125,-0.376 0.124,-0.366C0.124,-0.357 0.125,-0.344 0.126,-0.327L0.127,-0.288C0.127,-0.283 0.128,-0.279 0.129,-0.277C0.13,-0.275 0.133,-0.274 0.138,-0.274L0.192,-0.275C0.199,-0.275 0.204,-0.274 0.207,-0.272C0.209,-0.269 0.211,-0.264 0.212,-0.257C0.213,-0.257 0.213,-0.257 0.213,-0.257L0.214,-0.239C0.214,-0.231 0.212,-0.225 0.209,-0.222C0.206,-0.219 0.198,-0.215 0.187,-0.212C0.169,-0.206 0.154,-0.203 0.142,-0.203C0.136,-0.203 0.132,-0.202 0.131,-0.201C0.129,-0.199 0.128,-0.195 0.128,-0.188L0.127,-0.159C0.127,-0.149 0.128,-0.135 0.129,-0.118C0.13,-0.11 0.131,-0.101 0.131,-0.091C0.13,-0.08 0.13,-0.073 0.13,-0.069C0.13,-0.061 0.131,-0.056 0.134,-0.054C0.136,-0.052 0.14,-0.052 0.147,-0.053C0.153,-0.054 0.162,-0.055 0.173,-0.055C0.184,-0.055 0.193,-0.055 0.201,-0.054C0.208,-0.053 0.214,-0.053 0.219,-0.052C0.228,-0.051 0.232,-0.046 0.231,-0.038C0.231,-0.032 0.231,-0.027 0.23,-0.024C0.23,-0.014 0.232,-0.007 0.236,-0.003C0.238,-0.001 0.239,0.001 0.239,0.002L0.241,0.01C0.241,0.013 0.24,0.016 0.238,0.019C0.235,0.021 0.232,0.022 0.227,0.021L0.199,0.02C0.19,0.02 0.177,0.021 0.16,0.022Z" style="fill:rgb(34,34,34);fill-rule:nonzero;"/>
            </g>
            <g transform="matrix(144,0,0,144,730.843,922.881)">
                <path d="M0.077,-0.01C0.075,-0.011 0.069,-0.015 0.061,-0.022C0.051,-0.028 0.042,-0.032 0.032,-0.034C0.025,-0.035 0.021,-0.041 0.021,-0.052L0.02,-0.107C0.02,-0.119 0.02,-0.128 0.021,-0.134C0.023,-0.15 0.024,-0.174 0.024,-0.207C0.025,-0.214 0.025,-0.223 0.025,-0.236C0.025,-0.271 0.026,-0.326 0.027,-0.401L0.027,-0.433C0.027,-0.46 0.028,-0.485 0.031,-0.506C0.032,-0.517 0.034,-0.534 0.035,-0.558C0.036,-0.591 0.039,-0.615 0.042,-0.632L0.043,-0.64C0.043,-0.65 0.039,-0.658 0.031,-0.665C0.028,-0.667 0.025,-0.671 0.024,-0.676L0.024,-0.68C0.024,-0.684 0.025,-0.687 0.027,-0.689C0.028,-0.69 0.031,-0.691 0.036,-0.691C0.044,-0.69 0.053,-0.691 0.064,-0.692C0.074,-0.693 0.081,-0.694 0.085,-0.695C0.104,-0.698 0.118,-0.699 0.128,-0.699C0.151,-0.699 0.177,-0.693 0.206,-0.681C0.247,-0.664 0.267,-0.626 0.267,-0.568C0.267,-0.503 0.234,-0.448 0.169,-0.405C0.164,-0.402 0.16,-0.399 0.157,-0.396C0.154,-0.393 0.152,-0.391 0.152,-0.388C0.152,-0.385 0.154,-0.378 0.158,-0.369C0.161,-0.364 0.169,-0.345 0.182,-0.313L0.194,-0.285L0.213,-0.241C0.217,-0.232 0.224,-0.215 0.235,-0.191C0.245,-0.167 0.253,-0.146 0.26,-0.127C0.262,-0.122 0.264,-0.116 0.266,-0.11C0.268,-0.104 0.27,-0.098 0.272,-0.091C0.274,-0.088 0.275,-0.081 0.275,-0.072C0.274,-0.065 0.273,-0.055 0.273,-0.04C0.273,-0.035 0.272,-0.032 0.27,-0.03C0.268,-0.027 0.265,-0.026 0.262,-0.026C0.26,-0.026 0.257,-0.027 0.254,-0.029C0.244,-0.036 0.231,-0.043 0.214,-0.049C0.203,-0.052 0.195,-0.063 0.188,-0.081C0.179,-0.112 0.164,-0.154 0.143,-0.207C0.131,-0.236 0.121,-0.262 0.113,-0.286C0.112,-0.287 0.112,-0.29 0.111,-0.293C0.11,-0.296 0.108,-0.298 0.107,-0.297C0.104,-0.297 0.103,-0.295 0.103,-0.292L0.104,-0.284C0.105,-0.278 0.105,-0.269 0.105,-0.256C0.105,-0.243 0.104,-0.222 0.103,-0.191C0.104,-0.186 0.104,-0.177 0.104,-0.166C0.104,-0.149 0.104,-0.137 0.103,-0.128L0.102,-0.087C0.102,-0.073 0.101,-0.051 0.1,-0.022C0.1,-0.011 0.096,-0.006 0.089,-0.006C0.084,-0.006 0.08,-0.007 0.077,-0.01ZM0.115,-0.509C0.116,-0.509 0.118,-0.51 0.12,-0.511C0.121,-0.511 0.122,-0.512 0.123,-0.513C0.136,-0.523 0.148,-0.535 0.158,-0.548C0.159,-0.55 0.163,-0.555 0.17,-0.564C0.177,-0.572 0.182,-0.58 0.186,-0.589C0.188,-0.593 0.189,-0.597 0.189,-0.602C0.189,-0.608 0.187,-0.613 0.184,-0.618C0.181,-0.622 0.176,-0.624 0.171,-0.625C0.154,-0.628 0.137,-0.629 0.121,-0.628C0.112,-0.627 0.109,-0.623 0.111,-0.614C0.112,-0.612 0.112,-0.608 0.112,-0.603C0.112,-0.598 0.112,-0.595 0.111,-0.592L0.109,-0.551L0.11,-0.551L0.11,-0.516C0.11,-0.513 0.111,-0.511 0.113,-0.51L0.115,-0.509Z" style="fill:rgb(34,34,34);fill-rule:nonzero;"/>
            </g>
            <g transform="matrix(144,0,0,144,809.323,922.881)">
                <path d="M0.278,0.021C0.26,0.021 0.248,0.013 0.242,-0.004C0.229,-0.037 0.221,-0.072 0.217,-0.111C0.216,-0.119 0.215,-0.126 0.215,-0.132L0.214,-0.15C0.214,-0.151 0.213,-0.152 0.212,-0.152C0.211,-0.152 0.211,-0.151 0.21,-0.15C0.209,-0.149 0.209,-0.148 0.209,-0.147L0.201,-0.111C0.196,-0.094 0.191,-0.081 0.186,-0.074C0.182,-0.067 0.179,-0.06 0.177,-0.053C0.174,-0.044 0.17,-0.036 0.165,-0.031C0.158,-0.022 0.149,-0.018 0.138,-0.017C0.128,-0.017 0.117,-0.016 0.106,-0.014C0.098,-0.013 0.092,-0.012 0.088,-0.012C0.083,-0.012 0.08,-0.012 0.077,-0.013C0.062,-0.015 0.053,-0.023 0.048,-0.036C0.046,-0.041 0.044,-0.046 0.043,-0.053C0.041,-0.06 0.04,-0.065 0.039,-0.068C0.032,-0.095 0.028,-0.126 0.027,-0.163L0.025,-0.202C0.023,-0.243 0.022,-0.281 0.023,-0.315L0.022,-0.327C0.021,-0.343 0.021,-0.367 0.021,-0.399C0.021,-0.425 0.022,-0.445 0.023,-0.458C0.024,-0.468 0.024,-0.477 0.024,-0.485C0.023,-0.493 0.023,-0.5 0.023,-0.505C0.024,-0.517 0.024,-0.535 0.024,-0.559L0.024,-0.651C0.025,-0.654 0.025,-0.657 0.025,-0.662C0.026,-0.67 0.03,-0.674 0.037,-0.675C0.048,-0.676 0.055,-0.677 0.06,-0.677C0.077,-0.677 0.091,-0.672 0.104,-0.661C0.11,-0.656 0.115,-0.648 0.12,-0.637C0.125,-0.627 0.128,-0.616 0.13,-0.603C0.131,-0.59 0.132,-0.578 0.133,-0.566C0.134,-0.548 0.138,-0.523 0.145,-0.49C0.156,-0.443 0.16,-0.401 0.158,-0.365C0.158,-0.344 0.158,-0.329 0.159,-0.318C0.16,-0.297 0.161,-0.282 0.16,-0.271C0.16,-0.268 0.161,-0.267 0.162,-0.266C0.163,-0.266 0.164,-0.267 0.164,-0.27L0.184,-0.332L0.188,-0.345C0.196,-0.364 0.208,-0.375 0.225,-0.378L0.243,-0.384C0.245,-0.385 0.248,-0.385 0.252,-0.385C0.259,-0.385 0.265,-0.381 0.272,-0.373C0.289,-0.35 0.301,-0.325 0.308,-0.298C0.309,-0.293 0.31,-0.287 0.313,-0.281C0.32,-0.265 0.324,-0.247 0.326,-0.228L0.329,-0.216L0.331,-0.214L0.332,-0.217L0.333,-0.223L0.36,-0.387C0.361,-0.398 0.362,-0.414 0.362,-0.436C0.362,-0.474 0.365,-0.504 0.371,-0.527C0.373,-0.535 0.375,-0.545 0.377,-0.556C0.378,-0.567 0.379,-0.575 0.38,-0.581C0.383,-0.599 0.39,-0.618 0.401,-0.639C0.406,-0.65 0.415,-0.655 0.426,-0.655L0.446,-0.656C0.451,-0.656 0.455,-0.655 0.458,-0.654C0.461,-0.652 0.463,-0.648 0.464,-0.643C0.465,-0.64 0.466,-0.635 0.466,-0.629C0.466,-0.623 0.466,-0.618 0.465,-0.615L0.459,-0.571C0.455,-0.543 0.453,-0.528 0.453,-0.527C0.45,-0.514 0.448,-0.501 0.448,-0.486C0.447,-0.471 0.446,-0.462 0.445,-0.457C0.442,-0.403 0.435,-0.348 0.422,-0.292C0.418,-0.275 0.415,-0.262 0.414,-0.253C0.411,-0.236 0.406,-0.217 0.398,-0.195C0.394,-0.183 0.391,-0.165 0.388,-0.14L0.376,-0.058C0.375,-0.056 0.374,-0.051 0.373,-0.043C0.372,-0.035 0.371,-0.028 0.372,-0.021C0.372,-0.016 0.372,-0.012 0.371,-0.01C0.37,-0.007 0.37,-0.004 0.369,-0.001C0.366,0.012 0.358,0.018 0.344,0.018C0.341,0.019 0.338,0.019 0.336,0.019C0.333,0.018 0.331,0.018 0.329,0.018C0.326,0.017 0.321,0.017 0.315,0.017C0.307,0.017 0.301,0.018 0.297,0.019C0.293,0.02 0.287,0.021 0.278,0.021Z" style="fill:rgb(34,34,34);fill-rule:nonzero;"/>
            </g>
            <g transform="matrix(144,0,0,144,879.307,922.881)">
                <path d="M0.172,0.006C0.161,0.005 0.15,0.002 0.141,-0.005C0.126,-0.014 0.113,-0.021 0.102,-0.026C0.091,-0.031 0.081,-0.039 0.073,-0.048C0.064,-0.056 0.056,-0.068 0.049,-0.081C0.04,-0.098 0.034,-0.116 0.031,-0.135C0.027,-0.153 0.024,-0.175 0.021,-0.201C0.02,-0.206 0.02,-0.215 0.02,-0.226C0.02,-0.243 0.021,-0.262 0.024,-0.282C0.027,-0.301 0.028,-0.313 0.029,-0.318C0.038,-0.389 0.053,-0.458 0.074,-0.526C0.083,-0.559 0.096,-0.591 0.113,-0.624C0.118,-0.635 0.127,-0.648 0.138,-0.663C0.146,-0.673 0.155,-0.677 0.164,-0.674L0.169,-0.673C0.175,-0.673 0.18,-0.676 0.184,-0.681C0.191,-0.689 0.201,-0.692 0.213,-0.69C0.228,-0.689 0.243,-0.686 0.258,-0.683C0.272,-0.679 0.29,-0.674 0.311,-0.667C0.325,-0.662 0.337,-0.649 0.347,-0.628C0.348,-0.626 0.35,-0.624 0.351,-0.621C0.352,-0.618 0.353,-0.616 0.354,-0.615C0.363,-0.604 0.367,-0.591 0.366,-0.574L0.366,-0.569C0.366,-0.564 0.367,-0.556 0.368,-0.547C0.369,-0.531 0.37,-0.519 0.37,-0.51C0.37,-0.495 0.369,-0.472 0.366,-0.44L0.366,-0.434C0.366,-0.427 0.367,-0.422 0.37,-0.419C0.375,-0.419 0.38,-0.419 0.387,-0.419C0.393,-0.418 0.4,-0.418 0.409,-0.419C0.418,-0.42 0.426,-0.422 0.431,-0.423L0.459,-0.427L0.479,-0.432C0.482,-0.433 0.485,-0.433 0.489,-0.433C0.498,-0.433 0.503,-0.427 0.505,-0.415L0.505,-0.409C0.505,-0.404 0.505,-0.401 0.504,-0.399C0.501,-0.386 0.489,-0.378 0.47,-0.373C0.453,-0.368 0.438,-0.366 0.425,-0.365C0.417,-0.365 0.411,-0.365 0.407,-0.366C0.396,-0.363 0.386,-0.362 0.379,-0.361L0.378,-0.361C0.369,-0.355 0.361,-0.349 0.356,-0.343L0.355,-0.343L0.355,-0.34C0.347,-0.302 0.334,-0.25 0.316,-0.184L0.303,-0.137C0.295,-0.11 0.283,-0.08 0.267,-0.048C0.248,-0.01 0.216,0.008 0.172,0.006ZM0.267,-0.443C0.27,-0.444 0.271,-0.447 0.271,-0.452C0.272,-0.457 0.272,-0.465 0.272,-0.475C0.272,-0.484 0.271,-0.49 0.27,-0.494C0.267,-0.507 0.265,-0.52 0.265,-0.532C0.265,-0.538 0.265,-0.543 0.266,-0.546C0.267,-0.549 0.267,-0.552 0.267,-0.557C0.267,-0.566 0.265,-0.575 0.262,-0.586C0.259,-0.597 0.256,-0.605 0.255,-0.611C0.254,-0.612 0.254,-0.615 0.253,-0.62C0.252,-0.624 0.25,-0.626 0.247,-0.627L0.246,-0.627C0.244,-0.627 0.242,-0.625 0.241,-0.622C0.239,-0.618 0.237,-0.616 0.236,-0.615L0.231,-0.609C0.216,-0.588 0.208,-0.567 0.206,-0.545C0.206,-0.531 0.208,-0.518 0.213,-0.507C0.216,-0.498 0.221,-0.491 0.226,-0.484C0.231,-0.477 0.237,-0.471 0.244,-0.464C0.25,-0.456 0.255,-0.451 0.259,-0.447C0.262,-0.444 0.265,-0.442 0.267,-0.443ZM0.19,-0.101C0.193,-0.101 0.194,-0.103 0.194,-0.107C0.197,-0.114 0.199,-0.121 0.201,-0.13L0.207,-0.152C0.23,-0.225 0.245,-0.281 0.252,-0.319L0.259,-0.357L0.259,-0.363C0.259,-0.373 0.254,-0.38 0.244,-0.385C0.23,-0.392 0.215,-0.403 0.2,-0.418C0.193,-0.425 0.186,-0.431 0.179,-0.436C0.176,-0.439 0.173,-0.441 0.171,-0.44C0.17,-0.439 0.169,-0.437 0.169,-0.435L0.169,-0.424C0.171,-0.415 0.172,-0.406 0.172,-0.396C0.172,-0.384 0.171,-0.373 0.168,-0.363C0.165,-0.348 0.163,-0.334 0.163,-0.321C0.164,-0.308 0.164,-0.288 0.164,-0.261L0.163,-0.213C0.163,-0.2 0.164,-0.186 0.166,-0.172C0.169,-0.151 0.175,-0.129 0.185,-0.106C0.187,-0.103 0.189,-0.101 0.19,-0.101Z" style="fill:rgb(34,34,34);fill-rule:nonzero;"/>
            </g>
            <g transform="matrix(144,0,0,144,937.627,922.881)">
                <path d="M0.176,0.082C0.129,0.078 0.092,0.072 0.065,0.064C0.035,0.055 0.02,0.036 0.02,0.005L0.021,-0.006C0.025,-0.055 0.031,-0.108 0.038,-0.166L0.047,-0.242C0.05,-0.267 0.055,-0.304 0.06,-0.355C0.065,-0.402 0.073,-0.459 0.085,-0.524C0.089,-0.546 0.094,-0.579 0.101,-0.623L0.109,-0.691C0.111,-0.707 0.117,-0.715 0.128,-0.715C0.137,-0.715 0.146,-0.713 0.154,-0.71C0.161,-0.706 0.169,-0.7 0.176,-0.693C0.181,-0.69 0.184,-0.684 0.184,-0.676C0.183,-0.661 0.185,-0.64 0.189,-0.612C0.19,-0.601 0.191,-0.594 0.191,-0.589C0.191,-0.582 0.19,-0.57 0.189,-0.554C0.188,-0.543 0.187,-0.536 0.187,-0.531C0.186,-0.503 0.184,-0.482 0.183,-0.468C0.182,-0.457 0.18,-0.441 0.179,-0.42C0.178,-0.409 0.177,-0.399 0.176,-0.391C0.175,-0.383 0.174,-0.376 0.173,-0.371L0.167,-0.322C0.163,-0.282 0.16,-0.251 0.159,-0.228C0.158,-0.219 0.156,-0.203 0.155,-0.182C0.153,-0.165 0.149,-0.135 0.144,-0.093C0.14,-0.067 0.138,-0.049 0.137,-0.038L0.137,-0.032C0.137,-0.027 0.138,-0.024 0.141,-0.022C0.143,-0.02 0.147,-0.019 0.154,-0.018L0.161,-0.018C0.178,-0.019 0.191,-0.014 0.202,-0.006C0.212,0.004 0.221,0.016 0.229,0.032C0.23,0.034 0.231,0.037 0.231,0.041C0.231,0.048 0.227,0.052 0.22,0.055C0.215,0.058 0.212,0.061 0.213,0.064C0.213,0.069 0.212,0.073 0.209,0.076C0.206,0.078 0.201,0.079 0.196,0.08L0.176,0.082Z" style="fill:rgb(34,34,34);fill-rule:nonzero;"/>
            </g>
            <g transform="matrix(144,0,0,144,973.771,922.881)">
                <path d="M0.12,-0.034C0.114,-0.035 0.104,-0.036 0.091,-0.036L0.06,-0.035C0.05,-0.035 0.042,-0.043 0.037,-0.058C0.032,-0.073 0.029,-0.097 0.028,-0.128L0.021,-0.246C0.021,-0.332 0.021,-0.397 0.02,-0.44L0.024,-0.518L0.027,-0.557C0.028,-0.584 0.03,-0.609 0.033,-0.634C0.036,-0.651 0.037,-0.664 0.037,-0.672C0.037,-0.679 0.037,-0.684 0.036,-0.687C0.035,-0.698 0.038,-0.707 0.044,-0.714C0.05,-0.721 0.058,-0.725 0.067,-0.725C0.071,-0.725 0.076,-0.724 0.081,-0.722C0.09,-0.718 0.1,-0.716 0.113,-0.716C0.119,-0.716 0.126,-0.716 0.134,-0.717C0.142,-0.718 0.148,-0.718 0.152,-0.719C0.175,-0.722 0.192,-0.723 0.203,-0.723C0.209,-0.723 0.218,-0.722 0.23,-0.721C0.244,-0.719 0.253,-0.715 0.257,-0.709C0.261,-0.703 0.263,-0.692 0.263,-0.676C0.263,-0.663 0.26,-0.652 0.255,-0.643C0.252,-0.636 0.249,-0.627 0.248,-0.615C0.246,-0.604 0.239,-0.598 0.227,-0.597L0.167,-0.591C0.156,-0.59 0.15,-0.587 0.147,-0.584C0.143,-0.58 0.142,-0.573 0.142,-0.562C0.143,-0.542 0.142,-0.52 0.141,-0.497C0.14,-0.474 0.139,-0.458 0.138,-0.451L0.135,-0.388L0.136,-0.361C0.136,-0.352 0.14,-0.348 0.149,-0.351C0.164,-0.355 0.179,-0.357 0.193,-0.357C0.199,-0.357 0.209,-0.356 0.222,-0.355C0.229,-0.354 0.234,-0.352 0.237,-0.349C0.239,-0.346 0.24,-0.341 0.241,-0.334L0.24,-0.286C0.24,-0.275 0.235,-0.269 0.224,-0.269C0.219,-0.269 0.214,-0.269 0.211,-0.268C0.207,-0.267 0.204,-0.267 0.201,-0.266C0.198,-0.265 0.195,-0.265 0.19,-0.264C0.185,-0.263 0.18,-0.263 0.173,-0.263C0.169,-0.263 0.164,-0.264 0.157,-0.265C0.156,-0.266 0.154,-0.266 0.151,-0.266C0.144,-0.266 0.139,-0.26 0.138,-0.247C0.137,-0.239 0.137,-0.227 0.137,-0.21C0.137,-0.192 0.137,-0.177 0.138,-0.164C0.139,-0.151 0.139,-0.139 0.14,-0.13L0.142,-0.101C0.143,-0.094 0.142,-0.088 0.141,-0.081C0.14,-0.074 0.139,-0.069 0.138,-0.067C0.137,-0.063 0.135,-0.056 0.134,-0.045C0.134,-0.042 0.133,-0.039 0.13,-0.037C0.127,-0.034 0.124,-0.033 0.12,-0.034Z" style="fill:rgb(34,34,34);fill-rule:nonzero;"/>
            </g>
        </g>
    </g>
</svg>
