<?xml version="1.0" encoding="UTF-8" standalone="no"?>
<!DOCTYPE svg PUBLIC "-//W3C//DTD SVG 1.1//EN" "http://www.w3.org/Graphics/SVG/1.1/DTD/svg11.dtd">
<svg width="100%" height="100%" viewBox="0 0 2732 2048" version="1.1" xmlns="http://www.w3.org/2000/svg" xmlns:xlink="http://www.w3.org/1999/xlink" xml:space="preserve" xmlns:serif="http://www.serif.com/" style="fill-rule:evenodd;clip-rule:evenodd;stroke-linejoin:round;stroke-miterlimit:2;">
    <path d="M959.437,1193.84C958.129,1196.47 955.409,1198.29 952.269,1198.29C947.854,1198.29 944.269,1194.7 944.269,1190.29C944.269,1183.85 946.574,1180.51 948.77,1178.68C951.079,1176.76 953.928,1175.89 957.216,1176.19C960.376,1176.48 964.452,1178.43 967.847,1180.13C975.505,1183.96 977.933,1189.11 977.937,1196.12C977.94,1202.19 974.767,1210.8 973.207,1223.28C972.406,1229.69 972.85,1237.83 972.09,1245.37C971.454,1251.68 969.998,1257.62 967.129,1262.4C957.378,1278.65 941.554,1290.59 923.169,1299.23C897.055,1311.51 865.764,1317.16 841.261,1320.22C688.391,1339.33 512.196,1299.09 445.916,1144.44C393.409,1021.92 419.503,883.794 539.3,815.339C588.116,787.444 649.464,782.285 704.269,782.285C720.712,782.285 738.967,782.309 754.42,788.932C759.371,791.054 764.287,792.876 769.24,794.857C770.849,795.501 774.541,797.784 776.761,799.195C778.42,799.559 779.976,800.454 781.154,801.853C785.934,807.535 782.136,812.063 781.322,812.964C780.056,814.367 777.463,816.538 773.078,815.309C772.52,815.153 771.393,814.721 770.006,813.88C768.29,812.839 764.989,810.389 763.298,809.713C758.224,807.683 753.189,805.812 748.117,803.638C734.624,797.855 718.627,798.285 704.269,798.285C652.134,798.285 593.676,802.695 547.238,829.231C434.891,893.429 411.38,1023.24 460.622,1138.13C523.971,1285.95 693.168,1322.61 839.277,1304.35C862.325,1301.47 891.797,1296.3 916.361,1284.75C931.762,1277.51 945.241,1267.78 953.409,1254.17C955.679,1250.38 956.153,1245.36 956.438,1240.28C956.809,1233.63 956.637,1226.84 957.331,1221.29C958.365,1213.02 960.145,1206.46 961.228,1201.22C961.596,1199.44 961.884,1197.86 961.931,1196.45C961.948,1195.97 961.988,1195.54 961.839,1195.16C961.689,1194.78 961.206,1194.7 960.691,1194.44L959.437,1193.84ZM768.562,811.71L768.607,811.767L768.498,811.616L768.562,811.71ZM768.267,811.275L768.328,811.365L768.24,811.23L768.267,811.275Z" style="fill:rgb(128,128,128);"/>
    <path d="M879.399,1304.71C878.151,1303.9 876.822,1303.02 876.436,1302.71C875.088,1301.62 874.443,1300.52 874.113,1299.86C872.599,1296.84 872.685,1292.99 875.059,1289.31C877.152,1286.06 881.655,1282.75 881.655,1282.75C883.735,1281.28 886.391,1280.89 888.806,1281.7C891.221,1282.51 893.107,1284.41 893.886,1286.84L896.069,1291.78C900.999,1296.8 899.954,1300.65 898.808,1303.25C898.345,1304.29 896.526,1306.17 895.398,1307.28C895.76,1308.67 896.819,1309.7 897.477,1310.87C899.114,1313.77 900.269,1316.78 900.269,1320.29C900.269,1324.7 896.684,1328.29 892.269,1328.29C887.854,1328.29 884.269,1324.7 884.269,1320.29C884.269,1319.59 883.753,1319.1 883.422,1318.52C882.959,1317.71 882.469,1316.9 882.012,1316.07C880.438,1313.2 879.269,1310.07 879.269,1306.29C879.269,1305.75 879.314,1305.22 879.399,1304.71Z" style="fill:rgb(128,128,128);"/>
    <path d="M854.618,848.182C854.116,846.967 853.608,845.851 853.113,844.863C850.974,840.584 849.721,828.817 849.79,813.91C849.933,782.901 854.005,736.897 855.331,726.293C867.261,630.849 878.625,535.899 895.391,440.895C902.586,400.121 905.405,358.638 917.623,318.932C926.07,291.477 938.208,254.053 957.233,224.456C970.63,203.616 987.474,186.664 1008.46,178.794C1033.05,169.574 1065.49,171.345 1090.21,177.524C1222.44,210.581 1250.48,316.136 1280.03,434.345C1285.14,454.785 1296.03,474.637 1301.82,495.159C1300.96,459.954 1299.41,424.242 1302.3,389.621C1310.23,294.445 1359.57,208.91 1456.16,182.567C1475.14,177.392 1495.13,182.431 1514.07,184.325C1592.06,192.124 1665.36,241.25 1690.86,317.755C1704.13,357.565 1716.35,428.878 1712.23,470.081C1711.22,480.204 1711.73,491.832 1711.65,503.305C1719.29,487.643 1726.75,471.885 1733.99,455.974C1744.46,432.926 1754.95,409.344 1760.46,384.549C1765.5,361.869 1768.57,342.089 1774.06,326.383C1778.15,314.696 1783.59,305.116 1791.61,297.875C1804.59,286.149 1824.73,280.202 1858.99,283.318C1921.62,289.011 1984.49,337.626 2039.28,402.948C2119.96,499.123 2183.55,631.016 2204.98,708.144C2222.64,771.741 2226.9,844.131 2223.26,909.729C2208.37,1177.64 2088.17,1283.4 1943.74,1481.99C1905.73,1534.25 1858.78,1588.44 1829,1644.91C1830.43,1646.52 1831.27,1648.61 1831.27,1651.29C1831.27,1653.36 1831.21,1668.93 1830.14,1676.13C1829.53,1680.32 1827.88,1682.98 1826.93,1683.94C1826.17,1684.7 1824.98,1685.61 1823.16,1686.09C1822.17,1686.35 1817.97,1686.28 1817.97,1686.28C1817.97,1686.28 1818.2,1686.29 1818.27,1686.29C1782,1686.29 1735.7,1667.07 1697.47,1663.25C1569.39,1650.44 1441.58,1637.06 1313.47,1624.25C1284.27,1621.32 1255.14,1622.67 1225.89,1621.28C1175.86,1618.89 1126.36,1611.29 1076.27,1611.29C1059.7,1611.29 1041.43,1612.92 1025.97,1619.41C1024.71,1620.44 1014.47,1628.86 1012.59,1630.32C1008.16,1633.75 1004.07,1631.63 1003.69,1631.44C1001.46,1630.33 999.396,1628.39 997.857,1625.42C996.011,1621.85 994.81,1615.99 994.475,1608.86C993.553,1589.3 998.161,1558.66 999.398,1551.85C1004.77,1522.28 1013.62,1490.82 1016.05,1460.04C1018.36,1430.92 1014.87,1402.41 995.869,1377.09C986.615,1364.75 970.695,1346.91 953.617,1333.66C942.995,1325.41 932.004,1318.85 921.954,1317.18C917.315,1316.4 908.898,1317.55 899.494,1319C883.461,1321.47 864.934,1325.17 854.752,1325.48C850.147,1325.62 846.689,1324.95 844.7,1324.01C842.018,1322.73 840.474,1320.83 839.647,1318.78C837.997,1314.68 839.982,1310.02 844.077,1308.37C846.761,1307.28 849.688,1307.76 851.852,1309.37C853.486,1309.38 857.432,1309.34 860.772,1308.95C880.26,1306.68 912.896,1299.45 924.584,1301.39C936.837,1303.44 950.477,1310.97 963.427,1321.02C981.708,1335.21 998.764,1354.28 1008.67,1367.49C1030.18,1396.17 1034.61,1428.33 1032,1461.3C1029.52,1492.61 1020.61,1524.64 1015.14,1554.72C1013.98,1561.09 1009.59,1589.78 1010.46,1608.11C1010.51,1609.22 1010.58,1610.28 1010.68,1611.29C1014.43,1608.29 1018.28,1605.29 1019.12,1604.93C1036.64,1597.42 1057.42,1595.29 1076.27,1595.29C1126.62,1595.29 1176.37,1602.9 1226.65,1605.29C1256.18,1606.7 1285.58,1605.38 1315.07,1608.33C1443.17,1621.14 1570.98,1634.52 1699.07,1647.33C1735.44,1650.96 1779.17,1668.92 1814.35,1670.21L1814.68,1663.88L1815.08,1655.94C1814.17,1655.52 1813.48,1655.01 1812.95,1654.53C1811.43,1653.16 1810.64,1651.53 1810.34,1649.78C1810.1,1648.29 1810.17,1646.59 1811.11,1644.71C1840.97,1584.99 1890.73,1527.68 1930.8,1472.58C2073.19,1276.79 2192.61,1172.97 2207.28,908.841C2210.83,844.929 2206.77,774.39 2189.56,712.426C2168.55,636.804 2106.12,507.528 2027.03,413.231C1975.3,351.57 1916.66,304.626 1857.55,299.252C1829.61,296.712 1812.92,300.19 1802.33,309.75C1794.53,316.796 1790.26,326.916 1786.79,339.25C1782.89,353.098 1780.18,369.582 1776.08,388.02C1770.33,413.895 1759.49,438.542 1748.55,462.595C1737.32,487.313 1725.52,511.667 1713.42,535.863C1711.24,540.235 1706.05,548.536 1706.05,548.536C1704.18,551.516 1700.58,552.925 1697.18,552.008C1693.79,551.092 1691.39,548.064 1691.27,544.548C1691.27,544.548 1691.11,534.454 1692.68,529.755C1698.64,511.863 1694.42,487.387 1696.31,468.489C1700.25,429.078 1688.37,360.893 1675.68,322.815C1652.18,252.315 1584.35,207.433 1512.47,200.245C1495.43,198.541 1477.45,193.345 1460.37,198.003C1370.64,222.476 1325.61,302.533 1318.24,390.949C1314.54,435.394 1318.27,481.655 1318.27,526.285C1318.27,528.977 1316.79,559.904 1314.52,566.066C1312.55,571.388 1308.43,572.285 1306.27,572.285C1304.08,572.285 1301.83,571.572 1299.79,569.654C1298.37,568.331 1296.71,565.749 1295.52,561.949C1291.74,549.845 1289.81,519.097 1289.31,514.081C1286.7,487.99 1270.86,463.626 1264.51,438.225C1236.46,326.04 1211.82,224.419 1086.33,193.046C1064.49,187.585 1035.81,185.627 1014.08,193.776C996.169,200.491 982.124,215.324 970.692,233.108C952.474,261.448 941.004,297.348 932.915,323.638C920.893,362.71 918.228,403.552 911.147,443.675C894.428,538.415 883.104,633.101 871.207,728.277C869.91,738.65 865.929,783.651 865.79,813.983C865.755,821.489 865.949,828.062 866.51,832.895C866.762,835.06 866.942,836.742 867.424,837.707C871.553,845.965 876.269,861.307 876.269,872.285C876.269,873.86 877.053,880.356 876.705,883.586C876.363,886.765 874.996,888.871 873.926,889.942C870.579,893.288 867.271,893.429 864.579,892.739C862.43,892.189 860.069,890.743 858.31,887.786C857.25,886.005 856.251,883.143 855.417,879.972C854.649,877.054 854.051,873.737 853.113,871.863C847.774,861.183 838.935,855.785 829.469,848.685C795.676,823.34 764.823,804.285 721.269,804.285C716.854,804.285 713.269,800.7 713.269,796.285C713.269,791.87 716.854,788.285 721.269,788.285C768.583,788.285 802.358,808.352 839.069,835.885C844.643,840.065 849.918,843.884 854.618,848.182Z" style="fill:rgb(128,128,128);"/>
    <path d="M1704.58,860.441C1699.48,859.418 1690.26,857.623 1686.47,857.245C1671.09,855.706 1654.74,857.285 1639.27,857.285C1593.47,857.285 1548.09,846.285 1502.27,846.285C1425.61,846.285 1278.96,865.344 1186.72,923.317C1127.54,960.513 1091.16,1014.09 1113.93,1089.99C1121.51,1115.25 1140.25,1135.87 1163.44,1152.56C1199.58,1178.6 1246.58,1195.04 1282.12,1203.5C1465.54,1247.17 1611.04,1261.64 1796.42,1217.5C1829.92,1209.52 1877.97,1201.04 1918.14,1183.61C1943.59,1172.58 1965.89,1158.03 1978.41,1137.17C1988.97,1119.57 1988.26,1100.13 1982.16,1081.76C1975.67,1062.23 1963.12,1043.86 1950.32,1029.64C1940.3,1018.5 1887.18,983.607 1832.56,950.275C1777.95,916.956 1721.84,885.175 1705.33,881.046C1691.84,877.673 1676.29,876.891 1662.58,879.176C1658.23,879.902 1654.1,876.955 1653.38,872.6C1652.65,868.245 1655.6,864.12 1659.95,863.394C1675.75,860.761 1693.66,861.637 1709.21,865.524C1726.27,869.79 1784.48,902.193 1840.89,936.617C1897.28,971.029 1951.87,1007.44 1962.22,1018.93C1976.39,1034.68 1990.16,1055.1 1997.35,1076.72C2004.91,1099.5 2005.22,1123.58 1992.13,1145.4C1978.01,1168.94 1953.22,1185.84 1924.51,1198.29C1883.44,1216.1 1834.37,1224.91 1800.12,1233.07C1612.08,1277.84 1464.48,1263.37 1278.42,1219.07C1241.17,1210.2 1191.97,1192.83 1154.09,1165.55C1127.91,1146.7 1107.16,1123.1 1098.61,1094.58C1073.41,1010.61 1112.72,950.925 1178.2,909.77C1272.96,850.217 1423.52,830.285 1502.27,830.285C1548.09,830.285 1593.47,841.285 1639.27,841.285C1655.26,841.285 1672.16,839.734 1688.07,841.325C1693.21,841.839 1703.37,843.116 1709.9,844.905C1714.67,846.213 1717.99,848.338 1719.33,849.96C1721.3,852.353 1721.79,854.921 1721.31,857.452C1720.93,859.466 1719.77,862.257 1715.89,864.423C1712.04,866.579 1707.16,865.2 1705.01,861.347C1704.84,861.051 1704.7,860.749 1704.58,860.441Z"/>
    <path d="M607.746,915.918C609.851,914.107 612.384,912.092 614.82,910.533C618.117,908.425 621.396,907.215 623.683,907.051C626.483,906.849 628.765,907.662 630.545,909.041C632.286,910.389 633.803,912.41 634.257,915.642C634.461,917.097 634.259,918.517 633.736,919.785C662.179,924.716 695.728,932.031 704.485,933.378C747.596,940.01 783.988,969.746 804.313,1007.49C830.792,1056.67 836.011,1103.33 821.557,1142.45C807.086,1181.62 772.799,1213.59 718.96,1232.82C610.442,1271.58 534.789,1161.21 541.287,1063.75C543.938,1023.98 556.641,985 579.759,952.635C584.829,945.537 589.823,938.405 594.907,931.347L594.066,931.326C591.036,932.962 587.17,932.5 584.612,929.942C581.49,926.82 581.49,921.75 584.612,918.628C585.777,917.463 587.731,916.192 590.738,915.61C593.403,915.095 597.856,915.029 603.564,915.506C604.881,915.616 606.278,915.752 607.746,915.918ZM613.667,932.779C606.557,942.372 599.742,952.187 592.779,961.935C571.38,991.892 559.705,1028.01 557.251,1064.82C551.458,1151.72 616.814,1252.31 713.578,1217.75C762.095,1200.42 793.508,1172.2 806.549,1136.91C819.607,1101.56 814.148,1059.51 790.225,1015.08C772.232,981.661 740.218,955.063 702.052,949.192C691.379,947.55 643.632,936.955 613.667,932.779Z"/>
    <path d="M1240.42,512.299C1237.95,510.939 1236.27,508.306 1236.27,505.285C1236.27,500.87 1239.85,497.285 1244.27,497.285C1247.91,497.285 1250.58,498.472 1252.56,500.159C1255.23,502.433 1256.99,506.031 1256.87,511.014C1256.74,515.877 1254.47,523.043 1250.94,530.727C1243.83,546.201 1231.93,564.457 1230.1,567.456C1220.9,582.51 1212.12,596.811 1198.44,608.392C1135.63,661.532 1062.93,621.262 1013.61,571.942C1007.34,565.668 995.82,559.832 987.325,553.264C979.522,547.233 974.16,540.355 973.312,533.122C972.798,528.737 975.941,524.759 980.327,524.246C984.712,523.732 988.69,526.875 989.203,531.26C989.626,534.868 993.218,537.596 997.11,540.606C1006.14,547.586 1018.26,553.961 1024.93,560.628C1068.65,604.351 1132.43,643.287 1188.1,596.178C1200.44,585.736 1208.15,572.686 1216.44,559.113C1218.31,556.055 1231.24,536.358 1237.72,521.073C1238.94,518.171 1239.9,514.519 1240.42,512.299Z"/>
    <path d="M1419.27,521C1419.82,522.147 1420.95,523.071 1422,524.069C1424.58,526.539 1427.42,528.835 1429.34,531.079C1442.04,545.89 1449.04,560.346 1459.13,577.169C1479.04,610.351 1515.36,617.963 1552.77,620.3C1592.72,622.798 1617.53,601.53 1632.44,572.307C1648.19,541.435 1653.27,501.959 1653.27,470.285C1653.27,465.87 1656.85,462.285 1661.27,462.285C1665.68,462.285 1669.27,465.87 1669.27,470.285C1669.27,504.233 1663.57,546.491 1646.69,579.579C1628.96,614.317 1599.27,639.238 1551.77,636.269C1508.99,633.596 1468.18,623.348 1445.41,585.401C1435.81,569.401 1429.27,555.578 1417.19,541.491C1415.14,539.093 1411.85,536.688 1409.27,533.953C1406.49,531.013 1404.39,527.742 1403.51,524.225C1403.09,522.572 1403.62,518.358 1403.89,516.517C1403.92,514.485 1404.73,512.466 1406.3,510.935C1408.21,509.071 1410.11,508.747 1411.37,508.661C1413.2,508.534 1414.83,508.993 1416.28,509.936C1417.54,510.756 1419.7,512.468 1419.92,516.222C1419.94,516.574 1419.47,519.71 1419.27,521ZM1410.71,524.571L1410.73,524.573L1410.68,524.567L1410.71,524.571ZM1417.16,522.674C1415.99,523.706 1414.58,524.334 1413.13,524.559C1414.28,524.41 1415.71,523.969 1417.16,522.674ZM1406.87,522.888C1407.97,523.826 1409.22,524.359 1410.59,524.553C1409.26,524.337 1407.97,523.782 1406.87,522.888Z"/>
    <path d="M1832.69,533.502C1851.01,561.021 1883.07,609.517 1910.1,624.262C1930.44,635.356 1954.57,634.255 1977.69,626.49C2013.7,614.399 2047.5,586.106 2062.21,558.52C2073.94,536.534 2072.27,510.993 2072.27,487.285C2072.27,482.87 2075.85,479.285 2080.27,479.285C2084.68,479.285 2088.27,482.87 2088.27,487.285C2088.27,513.538 2089.31,541.703 2076.33,566.05C2060.01,596.642 2022.72,628.25 1982.79,641.658C1955.29,650.891 1926.62,651.5 1902.44,638.308C1872.78,622.13 1836.68,568.325 1817.61,539.722C1814.85,535.577 1814.99,531.146 1817.53,526.788C1818.73,524.723 1820.65,522.619 1822.75,520.751C1824.48,519.218 1827.25,516.965 1827.38,516.854C1830.22,513.585 1835.17,513.16 1838.52,515.93C1841.92,518.742 1842.4,523.789 1839.59,527.193C1838.79,528.169 1837.17,529.569 1835.27,531.119C1834.56,531.703 1833.52,532.691 1832.69,533.502Z"/>
    <path d="M1066.53,460.038C1066.61,458.485 1066.75,456.982 1066.96,455.548C1068.22,447.158 1072.1,440.908 1077.91,438.064C1081.91,436.1 1087.13,435.473 1093.8,437.695C1096.06,438.449 1098.14,439.484 1100.03,440.774C1101.82,441.433 1103.32,442.717 1104.25,444.375C1106.29,446.524 1108.03,449.053 1109.48,451.899C1113.76,460.354 1115.28,471.913 1114.5,483.483C1113.74,494.632 1110.88,505.746 1106.88,513.811C1103.55,520.522 1099.22,525.254 1094.85,527.44C1089.83,529.948 1084,528.966 1080.04,521.17C1077.88,516.911 1075.96,509.066 1074.29,500.364C1073.83,498.01 1073.4,495.585 1072.96,493.167C1071.98,491.046 1071.06,488.687 1070.25,486.158C1068.03,479.185 1066.56,470.901 1066.48,463.371C1066.43,462.554 1066.42,461.782 1066.44,461.101C1066.46,460.731 1066.49,460.376 1066.53,460.038ZM1094.4,502.374C1093.24,502.682 1092.13,502.777 1091.08,502.708C1091.27,503.62 1091.47,504.511 1091.67,505.377C1091.83,506.026 1092,506.702 1092.2,507.379L1092.55,506.697C1093.21,505.355 1093.83,503.907 1094.4,502.374ZM1089.25,453.062C1089.08,452.994 1088.91,452.932 1088.74,452.874C1087.14,452.341 1085.91,451.959 1084.95,452.431C1084.35,452.723 1084.1,453.389 1083.8,454.076C1083.42,454.955 1083.14,455.945 1082.94,457.009C1084.1,456.479 1085.39,456.217 1086.75,456.299C1087.62,456.352 1088.45,456.541 1089.21,456.846L1089.23,455.456L1089.25,453.062Z"/>
    <path d="M1504.49,461.491C1505.78,457.649 1507.32,454.044 1509.1,450.837C1514.05,441.925 1520.92,435.995 1528.7,434.44C1538.17,432.546 1545.57,435.65 1550.67,442.2C1552.3,443.433 1553.4,445.149 1554.01,447.228C1554.08,447.447 1554.13,447.689 1554.17,447.948C1556.65,453.165 1558.19,459.61 1558.72,466.883C1559.85,482.382 1556.64,501.435 1550.66,515.803C1546.1,526.786 1539.67,535.029 1532.85,538.44C1525.07,542.328 1517.21,538.588 1512.63,526.992C1512.13,525.722 1511.65,524.336 1511.21,522.862C1509.2,521.165 1507.44,519.041 1505.94,516.527C1502.2,510.265 1500.13,501.218 1499.94,491.306C1499.85,486.512 1500.19,481.517 1500.92,476.581C1500.46,476.07 1500.06,475.635 1499.8,475.278C1498.34,473.257 1497.93,471.422 1497.85,470.25C1497.66,467.41 1498.66,465.188 1500.63,463.448C1501.42,462.745 1502.62,461.88 1504.49,461.491ZM1533.77,514.341C1532.87,515.21 1531.8,515.593 1530.66,515.606C1530.23,517.971 1529.8,519.88 1529.39,521.153C1530.99,519.352 1532.43,517.012 1533.77,514.341ZM1536.09,508.466C1536.05,508.854 1535.99,509.224 1535.92,509.577L1536.36,508.503L1536.36,508.502L1536.17,508.48L1536.09,508.466ZM1532.68,450.005C1532.41,450.03 1532.13,450.072 1531.84,450.13C1529.2,450.656 1527.09,452.568 1525.24,455.157C1526.39,455.374 1527.52,455.85 1528.64,456.586C1528.8,456.364 1528.94,456.18 1529.08,456.033C1529.63,455.431 1530.21,454.948 1530.8,454.569C1531.41,452.885 1532.04,451.349 1532.68,450.005Z"/>
    <path d="M1897.01,481.906L1896.81,480.923C1895.4,473.45 1897.19,468.054 1899.61,465.628C1900.8,464.441 1903.71,462.818 1907.75,461.858C1912.02,460.839 1918.5,460.225 1920.69,459.129C1924.24,457.357 1929.13,454.246 1933.94,452.498C1938.79,450.739 1943.63,450.305 1947.8,451.695C1956.45,454.579 1960.96,463.01 1960.98,474.827C1961.01,493.755 1949.53,522.694 1946.76,530.094C1943.38,539.113 1941.5,548.26 1939.24,557.385C1939.25,558.804 1939.31,563.387 1939.29,564.284C1939.1,571.546 1931.77,572.285 1931.27,572.285C1930.33,572.285 1926.18,571.887 1923.36,566.987C1918.89,559.211 1902.5,519.874 1900.47,511.084C1898.77,503.701 1892.75,493.636 1891.79,491.979C1887.98,485.392 1892.29,482.61 1897.01,481.906ZM1927.53,537.356L1927.38,537.369L1927.51,537.693L1927.59,537.867L1927.68,537.498L1927.73,537.327L1927.53,537.356ZM1898.34,495.716C1895.93,495.643 1893.57,494.481 1892.07,492.365C1893.99,495.071 1896.26,495.829 1898.34,495.716Z"/>
    <path d="M1642.55,856.8C1649.62,854.921 1658.35,852.049 1666.8,850.392C1679.33,847.937 1691.26,848.568 1698.9,854.949C1704.33,859.482 1708.27,866.964 1708.27,879.285C1708.27,883.7 1704.68,887.285 1700.27,887.285C1695.85,887.285 1692.27,883.7 1692.27,879.285C1692.27,873.8 1691.4,870.028 1689.18,867.722C1686.77,865.222 1683.09,864.872 1679.1,864.966C1673.26,865.104 1666.76,866.638 1660.55,868.328C1650.83,870.971 1641.7,873.949 1635.91,874.37C1630.61,874.755 1626.85,873.182 1624.61,870.942C1620.18,866.506 1619.77,862.314 1620.38,859.089C1621.04,855.648 1623.32,852.698 1626.25,850.808C1634.92,845.206 1642.53,850.502 1642.55,856.8ZM1628.12,852.146L1628.36,851.889C1628.28,851.975 1628.2,852.061 1628.12,852.146Z"/>
    <path d="M1258.63,881.64C1289.55,854.309 1325.05,830.566 1362.16,816.652C1412.47,797.783 1478.72,794.876 1547.33,806.126C1635.43,820.57 1727.64,857.091 1784.27,892.485L1839.38,926.692C1844.73,928.864 1871.85,940.028 1897.26,952.945C1909.96,954.338 1923.85,956.284 1934.4,958.816C1959.92,964.942 1981.09,975.856 1995.05,987.244C2034.04,1019.04 2047.79,1059.94 2031.14,1109.91C2018.97,1146.4 1992.42,1176.4 1953.6,1196.36C1912.75,1217.38 1851.1,1224.69 1819.71,1229.92C1780.89,1236.39 1742.72,1239.38 1704.49,1241.42C1635.68,1250.06 1558.19,1251.58 1500.32,1245.79L1498.65,1245.59C1496.41,1245.68 1494.17,1245.82 1491.94,1245.99C1446.8,1249.46 1398.48,1261.31 1353.66,1252.34C1332.65,1248.14 1273.13,1222.31 1231.78,1197.26C1219.24,1196.42 1201.79,1195.02 1197.2,1193.69C1175.58,1187.44 1162,1176.44 1153.56,1168C1137.76,1152.2 1127.79,1132.86 1124.9,1109.37C1119.68,1103.17 1115.72,1097.88 1113.84,1094.58C1093.52,1058.81 1098.75,1028.55 1106.12,1009.27C1108.38,999.124 1112.38,983.462 1116.83,974.564C1130.65,946.923 1154.61,922.998 1185.48,906.356C1208.2,894.11 1234.97,885.938 1258.63,881.64Z"/>
    <path d="M1555.05,950.593C1554.52,946.56 1554.27,942.452 1554.27,938.285C1554.27,887.291 1581.18,867.31 1589.1,860.45C1611.75,840.809 1636.93,834.018 1663.46,836.341C1682,837.964 1712.64,844.279 1736.9,878.717C1741.07,884.637 1759.89,937.052 1759.89,937.052C1759.89,937.052 1759.32,935.221 1759.14,934.662C1762.39,944.424 1765.42,953.383 1768.01,961.969C1787.83,984.395 1796.42,1011.9 1792.89,1042.82C1790.22,1066.21 1774.33,1096.64 1757.98,1113C1751.25,1119.73 1741.87,1127.12 1729.71,1133.44C1720.86,1143.02 1710.86,1151.95 1699.85,1160.11C1661.3,1188.7 1609.99,1207.58 1572.7,1214.57C1483.9,1231.22 1375.23,1236.01 1288.65,1207.15C1275.51,1202.77 1261.83,1198.2 1248.8,1192.54C1232.9,1194.14 1214.93,1193.25 1196.65,1187.15C1200.52,1188.44 1210.86,1190.57 1210.86,1190.57C1210.86,1190.57 1155.63,1173.06 1141.56,1159C1121.49,1138.93 1114.1,1117.86 1111.44,1099.28C1107.79,1073.85 1112.78,1048.96 1128.57,1025.8C1139.31,1010.03 1163.82,988.576 1196.88,978.821C1227.56,969.765 1263.86,972.105 1272.52,974.271C1280.32,976.22 1289.16,980.57 1297.86,985.871L1299.88,986.227C1303,986.851 1306.24,987.402 1309.6,987.859C1311.17,980.625 1313.58,973.494 1316.84,966.596C1335.13,927.842 1376.09,905.053 1418.66,909.936C1418.66,909.936 1428.85,911.221 1433.88,912.227C1448.95,915.242 1463.41,920.497 1477.45,927.361C1485.72,931.399 1501.38,939.971 1504.67,941.783C1521.42,945.872 1538.19,948.719 1555.05,950.593ZM1753.84,948.473C1754.12,945.231 1754.27,941.839 1754.27,938.285C1754.27,941.701 1754.1,945.078 1753.76,948.408L1753.84,948.473ZM1423.6,914.624L1424.64,914.703L1424.45,914.681L1423.6,914.624ZM1420.32,914.401C1418.76,914.32 1417.23,914.285 1415.72,914.285L1420.32,914.401Z"/>
    <path d="M686.695,869.292C696.973,867.544 706.619,866.949 715.253,867.494C742.336,869.204 765.703,878.064 784.809,893.628C800.911,903.103 813.088,914.594 822.399,926.638C845.957,946.654 861.554,975.309 865.657,1012.24C869.338,1045.37 861.536,1078.4 845.216,1106.69C845.258,1157.47 819.337,1208.19 759.649,1235.32C714.933,1255.65 664.542,1249.47 621.046,1218.11C611.031,1210.89 601.674,1202.16 593.204,1192.53C555.503,1178.29 533.89,1155.05 520.884,1132.9C504.38,1104.8 498.833,1072.49 505.765,1037.87C508.456,1024.43 513.769,1010.04 521.257,995.619C520.999,957.738 536.794,924.448 571.145,899.912C593.729,883.78 628.669,876.434 654.89,871.807C665.309,869.968 675.996,869.191 686.695,869.292Z"/>
    <path d="M1148.75,1274.84C1150.89,1275.63 1152.99,1276.49 1154.95,1277.39C1205.15,1300.32 1227.3,1359.69 1204.37,1409.89C1181.44,1460.1 1122.06,1482.24 1071.86,1459.31C1075.87,1461.14 1082.01,1462.87 1082.01,1462.87C1082.01,1462.87 1002.64,1395.72 1000.22,1375.58C997.877,1356.17 996.534,1324.6 1029.56,1291.57C1061.83,1259.31 1110.73,1253.72 1148.75,1274.84ZM1199.86,1353.66C1202.32,1382.05 1192.69,1411.29 1170.98,1433C1200.52,1403.46 1203.35,1375.35 1199.86,1353.66Z" style="fill:rgb(128,128,128);"/>
    <path d="M635.556,756.799C640.527,755.537 645.735,754.87 651.097,754.87C660.596,754.87 666.204,756.584 668.749,757.308C699.257,765.983 707.801,786.865 711.607,798.313C717.134,814.937 716.79,832.788 705.698,851.136C701.882,857.448 694.503,868.276 678.035,875.899C676.548,876.588 663.744,880.46 658.705,881.468C644.529,884.303 629.91,885.7 615.269,885.7C610.546,885.7 599.73,889.093 596.025,890.308C583.667,907.322 555.424,938.343 549.521,944.776C543.875,954.721 536.816,964.694 533.934,968.647C524.357,996.457 514.213,1017.65 520.452,1048.85C521.017,1051.67 521.824,1057.06 522.348,1060.73C538.506,1087.24 558.231,1116.29 582.239,1140.07C601.845,1159.49 624.145,1175.99 651.134,1179.36C666.932,1181.34 683.34,1178.39 699.134,1180.36C718.601,1182.79 739.143,1179.65 757.847,1174.31C780.205,1167.92 801.103,1157.68 822.487,1152.13C824.452,1150.78 839.254,1140.58 847.145,1135.64C866.157,1123.73 886.852,1115.87 911.269,1115.87C946.268,1115.87 974.683,1144.29 974.683,1179.29C974.683,1212.79 948.638,1240.27 915.705,1242.53C912.222,1244.9 901.512,1252.19 895.601,1256.07C882.876,1264.43 869.414,1271.12 854.649,1274.81C834.098,1279.94 814.157,1290.13 792.69,1296.26C757.915,1306.19 719.597,1310.73 683.403,1306.21C667.608,1304.24 651.201,1307.18 635.403,1305.21C534.622,1292.61 457.558,1199.36 409.891,1119.91C402.258,1107.19 398.878,1087.68 396.086,1073.72C384.572,1016.15 397.562,976.87 415.108,924.231C419.329,911.571 434.224,890.689 437.882,885.685C440.29,880.197 444.77,872.006 452.531,863.004C460.519,853.74 485.809,826.316 489.405,822.421C499.98,803.352 517.643,787.285 539.709,776.399C564.188,764.323 594.151,758.87 615.269,758.87C621.525,758.87 627.775,758.313 633.832,757.102L635.556,756.799ZM594.317,846.505C598.825,857.461 612.254,881.7 651.097,881.7C626.237,881.7 604.698,867.363 594.317,846.505Z" style="fill:rgb(128,128,128);"/>
    <path d="M712.599,1248.73C717.188,1245.52 721.801,1242.57 724.717,1241.41C737.612,1236.25 750.425,1230.51 763.289,1225C782.535,1216.75 804.896,1215.33 824.717,1207.41C860.486,1193.1 893.964,1172.04 926.909,1155.57C958.213,1139.91 996.336,1152.62 1011.99,1183.92C1027.64,1215.23 1014.93,1253.35 983.629,1269.01C947.656,1286.99 910.876,1309.54 871.82,1325.16C852.952,1332.71 831.571,1333.72 813.249,1341.57C799.437,1347.49 785.666,1353.63 771.82,1359.16C776.07,1357.46 786.699,1350.24 786.699,1350.24C786.699,1350.24 686.058,1366.82 674.211,1325.42C665.085,1293.52 682.132,1260.29 712.599,1248.73ZM795.183,1287.45L796.147,1290.53C795.846,1289.47 795.526,1288.45 795.183,1287.45ZM788.567,1273.75C791.242,1277.9 793.456,1282.43 795.124,1287.29C793.337,1282.04 791.08,1277.58 788.567,1273.75Z" style="fill:rgb(128,128,128);"/>
    <path d="M2139.29,485.771C2164.06,467.943 2198.84,470.17 2221.11,492.444C2240.74,512.072 2244.8,541.41 2233.28,565.049C2239.01,579.029 2243.76,593.765 2246.79,605.905C2249.87,618.218 2257.51,629.486 2261.43,641.231C2265.98,654.882 2264.88,681.705 2264.4,689.974C2267.91,707.69 2276.08,725.88 2281.23,744.169C2287.56,766.651 2290.75,789.212 2288.3,811.288C2286.07,831.293 2278.06,850.788 2276.5,871.149C2267.42,989.131 2270.9,1092.26 2221.22,1204.04C2207.01,1236 2156.83,1296.38 2128.13,1316.89C2116.25,1325.37 2103.05,1332.64 2093.07,1343.51C2091.56,1347.42 2087.66,1357.3 2084.99,1362.64C2067.83,1396.96 2037.41,1437.39 2012.42,1466.56C1945.86,1544.2 1849.81,1590.43 1779.11,1661.13C1762.76,1677.48 1744.15,1682.07 1724.75,1679.37C1711,1677.45 1686.6,1662.1 1677.51,1648.46C1675.54,1645.51 1672.48,1640.17 1669.56,1634.85C1651.27,1632.97 1622.95,1630.05 1616.27,1629.31C1523.88,1619.05 1434.42,1625.7 1341.27,1625.7C1272.65,1625.7 1206.67,1613.7 1138.56,1628.29C1126.02,1630.98 1089.2,1637.49 1065.67,1633.03C1044.44,1629.01 1028.33,1619.37 1017.37,1605.98C1009.4,1597.88 1004.93,1589.18 1001.81,1580.82C998.147,1570.99 995.617,1557.51 999.203,1537.67C997.732,1495.62 1000.21,1434.54 1009.48,1400.49C1002.31,1390.14 995.295,1381.38 989.612,1376.21C977.573,1365.26 961.798,1357.5 950.428,1346.13C939.561,1335.26 931.265,1322.37 924.125,1308.56C922.547,1305.5 921.378,1302.19 919.996,1299.01C908.517,1296.85 891.211,1293.51 887.479,1292.42C870.167,1287.36 861.256,1278.22 857.2,1273.78C833.589,1247.95 835.397,1207.8 861.233,1184.19C878.411,1168.49 901.915,1164.03 922.673,1170.41C929.993,1171.68 962.693,1177.51 975.588,1182.47C988.679,1187.51 998.11,1194.44 1004.11,1200.44C1015.16,1211.49 1023.51,1224.46 1030.65,1238.21C1033.86,1244.39 1035.27,1251.6 1040.11,1256.44C1050.1,1266.43 1064.35,1272.75 1074.93,1282.36C1087.88,1294.14 1105.12,1317.26 1121.42,1342.95C1130.87,1348.11 1139.38,1355.43 1146.77,1364.62C1162.85,1384.6 1170.09,1416.33 1168.41,1435.03C1168.83,1436.39 1169.21,1437.69 1169.54,1438.94C1172.29,1449.24 1173.5,1471.54 1172.42,1496.29C1228.52,1492.84 1284.07,1498.87 1341.27,1498.87C1439.17,1498.87 1533.18,1492.47 1630.27,1503.26C1642.23,1504.59 1689.97,1507.66 1712.46,1512.56C1725.69,1515.43 1735.92,1520.26 1743.26,1524.94C1801.89,1479.76 1867.4,1440.86 1916.12,1384.02C1935.01,1361.98 1958.58,1331.86 1971.55,1305.92C1978.55,1291.92 1983.1,1277.23 1993.55,1264.69C2010.71,1244.11 2032.97,1229 2054.41,1213.68C2070.02,1202.53 2097.6,1169.91 2105.32,1152.53C2148.68,1054.96 2142.12,964.396 2150.04,861.421C2151.72,839.634 2159.86,818.69 2162.24,797.282C2163.62,784.888 2157.49,772.599 2153.25,760.019C2147.31,742.384 2141.56,724.792 2138.72,707.71C2137.25,698.891 2138.15,683.07 2138.76,674.974C2133.82,662.405 2127.05,649.87 2123.75,636.665C2121.73,628.611 2118.78,617.731 2114.73,609.324C2109.76,605.188 2103.26,599.629 2100.38,596.624C2092.93,588.85 2088.68,581.316 2086.4,576.244C2071.97,544.071 2083.55,520.317 2099.43,504.444C2108.01,495.857 2119.06,489.237 2133.16,486.276C2134.68,485.957 2136.81,485.789 2139.29,485.771Z" style="fill:rgb(128,128,128);"/>
    <path d="M788.6,754.563C788.122,742.907 788.2,731.355 789.041,720.421C798.03,603.561 849.433,491.213 893.732,384.895C901.334,366.651 903.128,346.145 910.732,327.895C925.27,293.003 943.807,226.101 973.236,182.722C993.891,152.275 1019.98,131.266 1049.05,122.545C1080.03,113.251 1110.83,118.615 1139.04,134.404C1164.69,148.757 1188.03,173.286 1203.99,191.526C1256.81,251.891 1260.58,293.04 1278.86,354.099C1281.78,337.117 1285.36,320.412 1290.43,304.637C1309.9,244.135 1346.6,194.373 1424.58,173.105C1460.75,163.243 1512.76,152.643 1557.53,158.339C1600.6,163.819 1637.83,182.81 1662.03,219.109C1676.19,240.342 1681.55,268.378 1696.03,290.109C1707.19,306.839 1721.46,328.258 1733.44,349.893C1739.83,337.038 1745.94,325.322 1751.15,316.203C1763.78,294.057 1777.27,281.403 1783.09,277.521C1867.43,221.298 1963.27,258.242 2030.87,314.568C2035.16,318.147 2040.85,319.799 2045.82,322.508C2056.97,328.574 2067.3,335.636 2076.11,344.444C2081.76,350.097 2090.19,361.993 2093.22,366.356C2103.18,374.502 2115.02,380.356 2124.11,389.444C2133.86,399.197 2141.46,410.94 2147.32,424.07C2150.47,431.132 2155.11,443.805 2157.48,450.465C2170.28,456.772 2204.9,477.619 2224.15,525.733C2229.74,539.701 2232.33,558.746 2230.72,580.414C2229.27,599.875 2221.21,624.219 2223.82,639.86C2229.42,673.478 2252.8,703.426 2264.65,735.019C2270.03,749.369 2272.15,763.726 2272.55,778.211C2272.8,786.74 2271.4,795.319 2272.82,803.86C2274.08,811.436 2278.31,820.192 2279.98,828.611C2282.32,840.341 2282.63,851.859 2280.82,862.71C2274.6,900.057 2259.07,950.026 2240.7,983.082C2237.31,989.189 2230.22,998.355 2225.34,1004.37C2225.13,1011.33 2224.61,1020.95 2223.45,1026.72C2220.25,1042.74 2211.89,1062.47 2205.56,1077.27C2195.09,1101.68 2174.24,1121.26 2160.65,1143.91C2138.94,1180.08 2117.29,1216.96 2092.87,1251.14C2069.34,1284.09 2036.76,1314.47 2008.11,1343.13C1996.61,1354.63 1964.31,1402.07 1955.04,1416.89C1939.19,1442.26 1916.14,1469.56 1905.65,1497.55C1901.97,1507.36 1903.43,1518.65 1902.13,1529.31C1899.79,1548.64 1894.73,1567.11 1884.65,1583.91C1875.37,1599.38 1858.95,1612.72 1850.99,1628.64C1846.52,1637.59 1839.18,1649.09 1836.79,1658.66C1838.8,1650.64 1836.48,1628.72 1836.48,1628.72C1836.48,1628.72 1833.9,1684.34 1821.11,1697.13C1808.85,1709.39 1788.07,1720.39 1758.79,1718.69C1733.96,1717.25 1671.08,1695.76 1665.38,1693.8C1568.21,1680.15 1466.13,1684.55 1367.4,1672.21C1282.21,1661.56 1195.34,1673.46 1109.83,1673.68C1104.43,1674.47 1038.1,1684.19 1024.88,1684.14C997.213,1684.03 982.657,1670.36 977.428,1665.13C965.339,1653.04 956.014,1634.98 956.832,1610.81C957.464,1592.12 971.661,1558.63 974.892,1550.02C990.967,1507.15 1021.49,1466.69 1056.14,1435.89C1062.06,1430.62 1070.34,1425.82 1075.62,1419.58L1087.14,1366.07L1084,1354.62C1082.56,1349.23 1081.12,1343.72 1079.6,1338.25C1074.37,1326.74 1069.85,1314.19 1069.85,1305.29L1069.85,1295.29C1069.85,1262.8 1094.41,1235.56 1126.73,1232.21C1159.04,1228.86 1188.66,1250.47 1195.33,1282.27L1195.9,1284.73L1198.45,1292.78L1200.09,1298.41C1203.32,1283.58 1207.46,1271.34 1211.84,1263.5C1223.33,1242.93 1239.24,1232.78 1253.21,1228.12C1287.42,1216.72 1310.51,1227.79 1327.11,1245.09C1330.26,1243.27 1333.47,1241.7 1336.72,1240.41C1354.21,1233.41 1369.79,1234.3 1383.52,1238.81C1395.93,1242.89 1407.63,1250.48 1417.03,1263C1423.97,1259.04 1431.33,1255.86 1439.05,1253.55C1456.65,1248.26 1490.13,1241.04 1514.96,1245.13C1519.02,1245.8 1522.96,1246.64 1526.77,1247.68C1554.78,1239.41 1583.22,1240.49 1607.39,1250.85C1618.4,1249.08 1629.73,1249.05 1641.14,1250.89C1647.73,1251.95 1654.48,1253.65 1661.31,1256.15C1663.01,1252.66 1665.11,1249.21 1667.63,1245.82C1672.22,1239.66 1679.43,1232.38 1689.92,1226.78C1696.22,1223.42 1707.48,1219.99 1709.85,1219.31C1749.57,1207.96 1799.1,1208.23 1840.4,1205.06C1855.8,1203.87 1874.31,1190.67 1886.3,1179.42C1891.04,1171.84 1901.18,1156.54 1909.65,1149.77C1918.53,1142.67 1929.5,1137.37 1937.43,1129.44C1939.81,1127.06 1964.63,1099.27 1974.56,1088.13C1985.35,1067.49 2005.59,1030.61 2021.32,995.333C2025.95,984.955 2030.7,971.32 2034.01,961.17C2030.82,959.538 2027.57,957.905 2025.12,956.734C2012.13,950.504 1999.9,943.528 1989.67,935.001L1940.55,893.973C1922.71,882.756 1910.85,862.895 1910.85,840.285C1910.85,805.285 1939.27,776.87 1974.27,776.87C1978.43,776.87 1994.12,776.44 2012.81,789.628C2023.09,796.874 2065.59,833.173 2070.87,837.568C2081.31,846.27 2096.91,849.888 2109.37,857.39C2122.85,865.502 2134.71,875.31 2144.21,887.577C2148.5,874.721 2151.98,861.327 2154.32,849.319C2152.37,843.027 2148.76,830.986 2147.72,824.71C2146.18,815.515 2145.71,806.316 2145.71,797.11C2145.71,791.259 2148.06,785.333 2145.89,779.551C2131.26,740.54 2105.64,702.223 2098.72,660.71C2096.18,645.482 2097.02,625.772 2099.77,605.233C2101.33,593.598 2103.56,574.41 2104.27,568.214L2103.51,566.694L2102.6,564.994C2099.96,563.724 2095.54,561.573 2092.95,560.206C2089.72,558.495 2086.53,556.638 2083.36,554.561C2074.16,548.534 2065.16,540.826 2056.54,529.334C2046.53,515.993 2034.59,484.371 2031.79,476.719C2024.32,470.421 2014.9,466.478 2007.51,460.009C2000.4,453.789 1990.55,440.442 1986.46,434.726C1980.44,431.53 1959.42,420.127 1949.67,412.001C1935.63,400.301 1919.56,389.088 1902.32,382.048C1889.48,376.804 1875.66,373.689 1862.33,378.535C1850.28,402.778 1808.58,486.916 1802.82,502.334C1800.65,511.578 1790.71,551.707 1779.41,567.081C1758.38,595.674 1729.7,607.942 1692.22,595.445C1653.86,582.659 1634.48,555.775 1627.47,520.474C1624.21,504.076 1624.42,484.862 1626.63,465.459C1628.01,453.265 1630.44,433.459 1631.11,428.019C1623.41,405.668 1603.05,379.272 1590.51,360.461C1576.02,338.731 1570.66,310.694 1556.51,289.461C1551.14,281.419 1540.25,283.538 1530.34,283.454C1504.8,283.237 1477.82,290.047 1457.95,295.465C1422.08,305.248 1412.43,333.617 1406.03,362.919C1398.56,397.128 1396.01,433.952 1389.45,466.722C1381.42,506.876 1376.97,546.973 1360.56,585.265C1357.47,592.461 1340.9,615.644 1328.95,622.394C1308.5,633.939 1287.76,633.931 1267.91,624.005C1260.85,620.477 1248.36,612.775 1238.63,595.286C1230.22,580.18 1211.76,516.751 1207.39,505.836C1196.99,479.832 1180.27,457.355 1170.67,430.956C1159.4,399.947 1153.78,374.394 1147.47,350.512C1140.89,325.624 1133.26,303.285 1108.54,275.044C1102.82,268.497 1089.44,256.483 1081.6,249.594C1080.32,251.068 1079.09,252.602 1078.19,253.925C1072.46,262.375 1067.52,272.228 1062.98,282.452C1047.89,316.436 1037.22,354.082 1027.81,376.675C1020.2,394.925 1018.41,415.431 1010.81,433.675C971.556,527.875 923.461,626.608 915.497,730.149C914.066,748.743 916.421,769.944 919.046,788.317C921.269,803.877 930.112,820.314 934.816,836.884C941.606,860.803 943.529,884.711 937.79,907.665C932.318,929.552 920.289,941.416 908.989,948.834C893.673,958.887 875.216,963.234 853.671,957.176C845.234,954.804 834.439,949.832 823.64,940.782C814.028,932.728 796.558,911.713 791.102,905.044C770.504,888.925 746.557,873.744 722.303,863.822L676.605,863.297L675.755,864.093C649.593,887.342 609.477,884.978 586.228,858.816C567.813,838.094 565.886,817.621 568.471,800.889C571.123,783.723 579.892,765.9 600.265,752.608C610.961,745.63 630.87,738.329 655.71,735.764C694.256,731.784 747.784,737.391 767.82,745.406C774.762,748.183 781.701,751.248 788.6,754.563ZM1779.19,1485.12C1771.15,1491.18 1763.17,1496.8 1755.35,1501.8C1716.01,1526.97 1677.57,1536.46 1649.84,1531.84C1634.59,1529.29 1621.77,1523.38 1611.27,1514.69C1608.79,1514.84 1606.32,1514.91 1603.89,1514.89L1600.29,1516.21C1565.53,1528.01 1530.81,1526.96 1500.91,1512.01C1497.93,1510.51 1495.03,1508.85 1492.23,1507.03C1468.04,1514.31 1444.84,1513.81 1424.16,1505.9C1405.76,1509.5 1385.91,1510.08 1363.89,1507.14C1353.95,1505.82 1342.1,1503.59 1330.81,1500.06C1310.21,1511.32 1289.82,1514.5 1273.84,1511.84C1270.79,1511.33 1267.74,1510.64 1264.74,1509.75C1250.15,1527.52 1234.05,1538.06 1219.69,1543.33C1274.35,1541.03 1329.06,1539.6 1383.13,1546.36C1483.24,1558.87 1586.76,1554.44 1685.24,1568.51C1692.9,1569.6 1708.25,1574.16 1725.9,1580.21C1727.83,1580.87 1730.03,1581.59 1732.38,1582.32L1737.55,1571.92C1746.7,1553.63 1764.28,1537.46 1775.21,1519.74C1775.49,1517.63 1776.97,1506.5 1777.48,1500.49C1777.92,1495.33 1778.46,1490.2 1779.19,1485.12ZM1144.67,1526.92L1140.4,1530.68C1134.8,1535.66 1129.33,1541.03 1124.16,1546.74C1140.95,1546.5 1157.79,1545.93 1174.64,1545.25C1163.82,1542.09 1153.75,1536.04 1144.67,1526.92ZM685.119,779.668C687.936,783.578 690.249,787.725 692.045,792.031C690.464,787.952 688.207,783.817 685.119,779.668ZM683.632,777.71L685.077,779.609L684.329,778.553L683.632,777.71Z" style="fill:rgb(128,128,128);"/>
    <path d="M1006.59,945.61C1017.77,908.78 1037.53,878.119 1065.14,858.397C1096.78,835.797 1135.4,825.343 1169.2,806.566C1204.93,786.715 1240.21,766.339 1277.76,749.269C1312.78,733.35 1355.18,731.934 1392.73,728.804C1447.82,724.214 1503.4,714.309 1559.31,719.9C1624.53,726.422 1689.41,748.476 1753.26,763.209C1762.01,765.227 1770.84,767.447 1779.73,769.88C1796.89,749.725 1825.63,741.753 1851.55,752.121C1878.33,762.833 1903.81,775.389 1930.39,786.463C2027.92,827.099 2058.32,825.55 2115.78,924.047C2130.7,949.636 2138.86,976.986 2136.15,1006.74C2134.57,1024.21 2100.24,1109.89 2074.04,1140.77C2058.45,1159.14 2041.07,1167.39 2025.82,1170.17C1972.43,1227.72 1884.7,1279.55 1840.98,1298.29C1811.25,1311.03 1784.73,1325.29 1753.22,1334.74C1710.2,1347.65 1661.6,1345.5 1617.27,1349.2C1544.12,1355.29 1474.59,1375.32 1400,1367.03C1352.05,1361.7 1284.17,1326.29 1237.58,1312.98C1231.1,1311.12 1224.41,1312.96 1217.82,1312.59C1213.93,1312.37 1210.05,1312.02 1206.19,1311.49C1200.32,1316.4 1193.3,1320.41 1185.05,1323.16C1149.85,1334.89 1105.04,1324.51 1063.31,1288.12C1034.14,1262.68 1004.94,1223.83 981.621,1186.63C968.848,1202.96 955.415,1215.63 943.965,1222.78C907.13,1245.75 874.28,1239.96 848.159,1213.84C827.677,1193.36 817.701,1165.36 819.045,1132.5C820.521,1096.4 840.745,1050.26 847.82,1024.32C850.397,1014.87 848.592,998.553 847.223,988.968C844.024,966.575 831.585,949.305 825.26,928.222C823.926,923.775 822.84,917.01 822.068,911.029C815.326,904.158 807.124,895.523 805.172,892.382C800.076,884.184 797.662,876.588 796.427,870.488C793.016,853.646 796.352,839.511 802.503,827.814C809.085,815.296 819.557,803.866 837.414,797.372C865.837,787.037 896.889,798.321 912.509,822.814C917.906,827.881 925.703,835.407 929.011,839.474C936.019,848.088 940.006,856.484 942.16,862.947C945.143,871.893 946.986,888.903 947.5,894.189C953.911,914.628 963.267,932.872 968.954,953.241C976.672,948.98 984.026,947.171 989.939,946.248C995.626,945.36 1001.18,945.117 1006.59,945.61ZM1929.5,1058.53C1905.58,1019.77 1882.09,995.213 1841.39,969.776C1814.6,953.031 1780.75,945.296 1751.33,934.597C1598.48,879.014 1418.55,882.481 1267.55,942.879C1236.56,955.275 1197.71,971.567 1164.73,994.259C1148.11,1005.7 1132.32,1018.34 1122.55,1034.07C1123.53,1068.34 1131.54,1103.31 1142.82,1126.37C1167.27,1151.77 1200.02,1173.24 1224.62,1185.88C1230.82,1186.03 1258.15,1186.95 1272.42,1191.03C1313.29,1202.7 1371.95,1236.3 1414,1240.97C1480.25,1248.33 1541.78,1228.22 1606.73,1222.8C1642.55,1219.82 1682.02,1223.69 1716.78,1213.26C1743.52,1205.24 1765.79,1192.53 1791.02,1181.71C1822.13,1168.38 1882.76,1133.49 1923.87,1093.29C1927.64,1089.6 1931.24,1085.88 1934.57,1082.12L1932.83,1074.46C1932.16,1071.32 1931.48,1068.18 1930.81,1065.04L1929.5,1058.53ZM913.594,889.347C906.926,900.598 896.761,909.858 883.95,915.303C898.38,909.32 907.646,900.088 913.594,889.347Z" style="fill:rgb(128,128,128);"/>
    <path d="M895.789,713.38C902.323,671.85 911.085,630.222 919.817,586.563C932.536,522.967 944.485,463.559 969.463,403.61C984.146,368.371 982.214,330.11 993.472,294.085C996.127,285.59 1000.06,277.34 1001.82,268.563C1000.91,273.096 1000.91,285.086 1000.91,285.086C1000.91,285.086 1029.63,210.585 1065,210.585C1077.36,210.585 1097.61,213.348 1114.56,234.312C1117.99,238.549 1127.43,258.746 1128.16,260.947C1130.27,267.286 1132.01,273.785 1133.43,280.408C1166.01,285.991 1194.64,322.536 1198.36,327.473C1201.9,340.237 1207.34,366.635 1209.52,389.544C1217.45,408.945 1222.81,430.328 1227.59,451.04C1237.19,432.873 1248.31,415.939 1261.45,401.044C1271.1,390.105 1289.37,370.817 1308.55,357.854C1321.86,342.085 1339.19,327.08 1358.14,316.452L1359.74,310.994C1360.94,291.621 1370.98,273.817 1387.05,262.759C1403.85,251.203 1425.17,248.424 1444.37,255.293L1445.75,255.705C1462.17,256.159 1479.71,258.596 1497.05,262.853C1504.6,259.481 1513.67,257.423 1524.59,257.47C1529.21,257.49 1536.87,258.076 1545.79,261.063C1552.65,263.359 1564.09,269.3 1564.63,269.622C1577.83,277.543 1591.3,291.315 1601.63,309.931C1608.08,321.558 1613.53,335.563 1617.72,348.994L1620.23,353.131L1621.87,355.95C1647.03,353.781 1671.6,363.275 1693.19,391.241C1705.43,407.091 1714.54,435.506 1713.29,470.978L1712.97,477.155C1726.29,460.469 1740.15,444.254 1754.64,428.731C1762.43,420.389 1791.31,392.343 1813.78,383.563C1819.97,381.146 1826.01,379.407 1831.88,378.344C1838.54,345.467 1869.82,323.332 1903.25,328.264C1925.22,331.504 1942.92,345.661 1951.59,364.474C1957.14,363.151 1962.69,362.585 1968,362.585C1983.64,362.585 1995.06,367.497 2003.83,373.281C2019.39,383.534 2028.05,453.194 2028.05,453.194C2028.05,453.194 2030.69,435.443 2029.78,429.032C2031.62,441.898 2032.37,454.939 2033.12,467.99C2042.3,479.581 2052.5,490.426 2060.76,502.824C2077.2,527.481 2090.33,555.756 2105.06,581.538C2112.24,594.102 2117.72,606.825 2121.78,619.683C2135.62,614.016 2149.87,614.532 2163.96,618.781C2175.37,622.22 2192.96,631.3 2204.66,653.106C2212.72,668.132 2220.01,702.282 2220.23,705.136C2224.58,761.723 2207.31,816.907 2178.45,864.697C2173.19,905.4 2163.22,944.142 2148.97,981.552C2143.39,1008.65 2133.45,1034.13 2122.88,1060.55C2085.21,1154.72 2055.72,1257.7 2001.88,1344.44C1973.73,1389.79 1939.77,1429.34 1904.4,1469.13C1859.55,1519.58 1809.69,1565.43 1754.86,1604.6C1750.16,1607.96 1730.8,1624.72 1718.82,1632.36C1707.96,1639.29 1698.11,1642.74 1691.76,1644.16C1663.16,1650.53 1643.64,1639.33 1631.16,1626.84C1606.62,1602.3 1626.31,1540.97 1626.31,1540.97C1626.31,1540.97 1618.04,1555.33 1616.84,1558.95C1621.34,1545.45 1629.49,1531.97 1640.76,1519.56C1653.26,1505.81 1671.43,1493.23 1682.63,1482.74C1714.98,1452.4 1739.97,1416.37 1767.71,1382.1C1796.07,1347.07 1826.29,1311.28 1849.99,1272.77C1881.37,1221.77 1901.69,1164.86 1930.4,1112.51C1949.51,1077.66 1973.19,1045.43 1993.62,1011.37C2006.3,990.237 2017.28,968.768 2026.31,946.728L2026.71,942.044L2026.73,941.469C2016.4,933.882 2006.92,922.297 2000.84,904.053C1994.1,883.825 1990.96,863.262 1990.21,842.506C1983.8,835.425 1976.7,829.087 1969.03,823.728C1959.69,831.776 1949.49,839.513 1939.51,845.024C1919.12,856.276 1898.28,860.193 1880.13,857.925C1851.74,854.375 1819.31,834.186 1816.61,781.786C1816.49,779.516 1816.45,777.071 1816.5,774.469C1758.21,789.909 1677.85,793.565 1625.39,760.776C1611.91,752.353 1603.17,740.255 1587.67,734.72C1571.44,728.924 1553.94,731.415 1537,731.415C1501.04,731.415 1474.27,746.417 1444.38,764.919C1422.67,778.355 1396.44,799.826 1371.42,806.975C1365.1,808.781 1353.92,810.653 1346.92,810.392C1334.8,809.938 1324.72,806.329 1316.85,801.805L1316.24,801.437C1292.84,828.648 1267.69,844.932 1246.44,849.183C1217.36,855 1192.33,845.82 1173.31,820.779C1171.36,818.201 1169.43,815.28 1167.6,812.057C1160.74,826.936 1154.07,840.384 1147.95,851.842C1141.19,864.517 1111.42,925.732 1089.61,947.933C1065.34,972.634 1038.38,975.947 1019.56,972.183C1016.65,971.601 1013.5,970.721 1010.24,969.478C1016.4,987.261 1014.6,1007.59 1003.61,1024.62C985.125,1053.25 947.382,1062.02 918.27,1044.91C908.181,1042.11 898.992,1038.67 895.159,1034.84C879.901,1019.58 878.317,974.608 878.317,974.608C878.317,974.608 876.389,998.702 879.84,1009.05C877.447,1001.88 875.014,988.371 876.416,970.511C878.177,948.068 888.286,904.544 886.772,884.864C886.244,878.001 885.839,871.196 885.556,864.439C879.581,866.55 873.567,868.397 867.527,869.95C864.755,870.95 838.673,880.285 823.341,883.669C808.475,886.949 794.922,887.301 785.424,885.905C764.638,882.851 750.354,872.717 740.897,861.156C731.675,849.883 725.585,835.894 725.585,818C725.585,783.001 754.001,754.585 789,754.585C794.652,754.585 800.133,755.326 805.347,756.727C816.139,753.227 831.941,748.149 834.62,747.479C856.712,741.956 878.184,729.426 895.789,713.38ZM919.606,1045.28C931.177,1049.91 955.567,1052.74 955.567,1052.74C955.567,1052.74 936.605,1049.9 919.606,1045.28ZM851.183,805.547C851.993,809.572 852.415,813.737 852.415,818C852.415,813.578 851.986,809.435 851.183,805.547ZM1916.68,551.83L1916.89,552.791L1917.88,553.454L1916.78,550.295L1916.16,548.293L1916.68,551.83ZM1198.36,327.473C1197.55,324.523 1196.84,322.301 1196.29,321.02C1197,322.691 1198.78,328.016 1198.78,328.016L1198.36,327.473Z" style="fill:rgb(128,128,128);"/>
    <path d="M808.925,891.872C812.646,894.26 816.299,896.725 819.876,899.252C867.29,932.758 899.608,976.911 906.552,1018.58C910.795,1044.04 906.146,1069.27 895.109,1093C884.466,1115.88 867.095,1137.34 852.716,1154.6C830.296,1181.5 804.511,1204.37 773.797,1221.43C737.79,1241.44 692.002,1247.99 645.338,1242.2C582.053,1234.34 518.072,1203.75 481.159,1166.84C455.339,1141.02 447.571,1109.83 438.025,1076.42C422.928,1023.58 424.226,981.164 436.395,945.173C453.792,893.721 495.346,852.708 562.203,815.566C597.613,795.894 623.128,793.517 645.157,795.013C653.68,795.592 661.678,796.955 669.67,798.536C674.431,799.477 679.131,801.735 685.741,800.209C698.932,797.165 740.384,792.059 761.594,799.056C782.637,805.999 796.633,819.466 804.72,835.64C803.922,834.044 797.375,824.231 797.375,824.231C797.375,824.231 808.569,841.326 810.853,849.004C814.274,860.506 814.119,871.225 812.242,880.381C811.432,884.334 810.348,888.179 808.925,891.872ZM722.17,811.002C706.155,818.488 696.717,829.717 691.55,842.887L691.555,842.888C697.417,829.337 707.995,817.814 722.17,811.002Z" style="fill:rgb(128,128,128);"/>
    <path d="M2089.13,385.242C2079.81,396.162 2066.89,403.757 2052.31,406.398C2029.9,410.459 2007.03,402.191 1992.4,384.736C1992.4,384.736 1982.77,372.337 1979.28,365.36C1973.35,353.501 1965.66,341.226 1958.94,329.462C1955.33,323.135 1951.26,317.031 1946.42,311.99C1944.01,309.473 1941.59,306.174 1937.67,307.597C1930.09,310.354 1926.87,317.997 1922.43,324.36C1913.87,336.629 1905.94,349.513 1897.06,360.933C1881.64,380.757 1862.46,397.946 1845.36,416.269C1834.28,428.139 1800.73,463.208 1791.64,468.977C1762.56,487.433 1738.43,478.114 1727.64,472.72C1712.88,465.34 1700.62,453.075 1694.72,433.608C1692.42,426.024 1690.65,414.726 1692.98,401.363C1694.53,392.514 1701.29,375.04 1701.29,375.04C1701.29,375.04 1700.43,377.246 1700.28,377.671C1714.78,337.062 1729.87,296.441 1746.46,256.61C1787.39,158.383 1854.64,79.836 1973.26,107.209C2008.36,115.309 2044.29,124.822 2075.63,143.622C2174.21,202.772 2186.28,269.237 2216.74,370.778C2226.7,403.963 2250.62,433.058 2260.74,466.778C2266.8,486.976 2263.31,508.782 2268.52,529.62C2272.67,546.211 2272.57,563.975 2277.61,580.351C2282.97,597.766 2292.14,613.657 2296.01,631.713C2320.43,745.669 2317.71,870.443 2299.64,984.89C2291.57,1036.02 2270.9,1087.74 2255.53,1136.91C2241.83,1180.75 2232.87,1230.15 2210.84,1271.07C2196.52,1297.64 2175.62,1320.8 2157.26,1344.66C2125.37,1386.13 2094.57,1432.14 2066.78,1476.61C2052.14,1500.02 2043.83,1525.14 2027.6,1547.86C2013.52,1567.58 1995.93,1584.9 1977.5,1601.59C1959.33,1618.04 1939.53,1633.2 1926.78,1653.61C1921.4,1662.2 1911.88,1670.56 1909.27,1680.58C1909.41,1689.54 1909.31,1709.6 1906.16,1719.05C1904.58,1723.8 1900.63,1733.26 1892.45,1742.41C1885.82,1749.83 1874.05,1757.87 1870.36,1759.72C1852.06,1768.87 1829.53,1772.88 1805.57,1772.49C1786.38,1772.17 1765.84,1768.41 1750,1768.41C1682.84,1768.41 1615.41,1769.41 1548,1769.41C1480.89,1769.41 1414.16,1775.41 1347,1775.41C1297.88,1775.41 1248.27,1777.19 1199.28,1774.31C1172.25,1772.72 1146.13,1766.41 1119,1766.41C1099.97,1766.41 1084.78,1770.51 1066.44,1774.18C1063.9,1774.69 1038.46,1775.52 1031.23,1773.74C1016.14,1770.03 1006.76,1762.44 1001.16,1756.84C991.682,1747.36 976.269,1727.57 984.64,1695.53C985.113,1693.72 987.228,1689.11 989.625,1684.25L989.585,1683C989.585,1666.81 987.108,1648.12 984.379,1631.3C980.905,1624.32 974.459,1610.65 972.817,1602.44C968.635,1581.53 972.22,1555.47 970.191,1533.35C967.978,1527.65 950.883,1483.91 936.237,1453.68C921.691,1423.66 898.175,1383.43 894.704,1377.53C885.114,1369.39 867.978,1367.53 850.148,1364.51C803.421,1356.62 749.144,1357.41 718,1357.41C687.562,1357.41 651.144,1360.55 621.778,1351.74C598.601,1344.79 567.204,1323.86 538.128,1295.27C501.367,1259.12 467.075,1211.81 455.051,1184.76C435.678,1141.17 443.163,1076.88 454.479,1031.62C459.298,1012.34 467.647,992.671 482.159,978.159C485.348,974.97 491.725,971.271 498.32,967.958C503.901,963.085 510.446,959.123 517.8,956.385C550.599,944.171 587.144,960.883 599.358,993.682C612.837,1029.88 548.642,1081.89 548.642,1081.89C548.642,1081.89 566.506,1073.18 571.841,1067.84C574.756,1064.93 578.75,1057.84 578.75,1057.84C578.75,1057.84 577.893,1060.89 577.521,1062.38C574.161,1075.82 570.525,1092.06 569.318,1108.19C568.651,1117.11 567.77,1126.09 570.949,1133.25C578.86,1151.04 602.87,1181.06 627.055,1204.84C638.642,1216.23 648.986,1227.49 658.222,1230.26C676.434,1235.72 699.123,1230.59 718,1230.59C760.904,1230.59 840.904,1230.49 900.642,1245.57C936.771,1254.69 966.629,1269.95 985.841,1289.16C997.767,1301.09 1026.25,1348.6 1050.37,1398.38C1074.57,1448.32 1094.17,1500.27 1096.03,1517C1097.98,1534.57 1094.23,1555.43 1096.45,1572.92C1100.16,1580.49 1107.01,1595.34 1108.55,1604.58C1110.4,1615.69 1112.17,1627.64 1113.54,1639.65C1115.34,1639.61 1117.16,1639.59 1119,1639.59C1148.63,1639.59 1177.21,1645.96 1206.72,1647.69C1253.25,1650.43 1300.36,1648.59 1347,1648.59C1414.16,1648.59 1480.89,1642.59 1548,1642.59C1615.41,1642.59 1682.84,1641.59 1750,1641.59C1761.3,1641.59 1774.66,1643.03 1788.45,1644.34C1795.72,1623.72 1808.3,1603.87 1819.22,1586.39C1832.72,1564.8 1850.28,1546.09 1869.26,1528.48C1888.36,1510.77 1909.62,1494.82 1924.4,1474.14C1939.07,1453.6 1945.99,1430.56 1959.22,1409.39C1989.15,1361.5 2022.38,1311.99 2056.74,1267.34C2070.97,1248.83 2088.07,1231.54 2099.16,1210.93C2117.44,1176.99 2123.11,1135.44 2134.47,1099.09C2148.04,1055.65 2167.23,1010.26 2174.36,965.11C2190.06,865.686 2193.21,757.285 2171.99,658.287C2168.91,643.88 2160.66,631.545 2156.39,617.649C2150.69,599.126 2150.17,579.148 2145.48,560.38C2142.46,548.296 2141.26,536.011 2140.7,523.701C2140.39,516.786 2141.23,509.802 2139.26,503.222C2129.14,469.502 2105.22,440.408 2095.26,407.222C2092.99,399.665 2090.99,392.341 2089.13,385.242ZM994.67,1674.11L997.26,1669C997.26,1669 995.649,1671.9 995.28,1672.64L994.67,1674.11ZM477.082,1007.4C475.728,1015.68 476.184,1024.76 479.421,1034.79C476.558,1025.68 475.865,1016.36 477.082,1007.4Z" style="fill:rgb(128,128,128);"/>
    <path d="M1031.5,606.238C1036.28,601.844 1042.69,596.108 1045.63,594.049C1055.06,587.454 1063.24,579.598 1071.63,571.737C1103.71,541.658 1137.14,514.861 1166.08,481.468C1171.6,475.092 1177.84,468.527 1183.68,461.586C1186.75,457.944 1190.62,454.729 1191.82,450.315C1196.87,431.781 1199.25,411.4 1207.27,393.759C1244.34,312.202 1262.86,230.462 1328.16,165.159C1354.29,139.028 1409.15,100.226 1458.77,83.078C1488.14,72.93 1516.4,70.209 1539.44,74.817C1558.62,78.653 1587.61,94.984 1616.44,122.529C1661.49,165.578 1714.5,236.357 1730.78,262.39C1744.35,284.101 1749.64,312.459 1756.55,337.011C1761.49,348.617 1769.41,368.297 1769.41,375C1769.41,409.999 1741,438.415 1706,438.415C1678.62,438.415 1655.28,421.029 1646.4,396.701C1642.73,390.085 1636.43,378.348 1635.03,373.421C1631.02,359.395 1631.03,342.097 1623.22,329.61C1608.19,305.552 1522.74,212.857 1509.96,199.056C1503.37,199.831 1495.95,204.264 1487.95,207.855C1460.23,220.308 1432.21,240.473 1417.84,254.841C1363.87,308.813 1353.37,378.835 1322.73,446.241C1317.48,457.798 1317.49,471.544 1314.18,483.685C1305.81,514.362 1282.07,541.281 1261.92,564.532C1230.08,601.278 1193.68,631.164 1158.37,664.263C1146.16,675.714 1133.93,686.815 1120.32,696.536C1117.05,699.413 1101.95,712.614 1099.96,713.827C1064.19,735.672 1037.33,717.459 1027.23,709.433C1021.83,705.142 981.625,672.733 1014.51,623.414C1019.16,616.437 1024.96,610.679 1031.5,606.238ZM1122.92,688.977L1121.8,690.972L1121.87,690.863L1122.92,688.977ZM1754.71,332.736C1753.68,330.301 1752.7,328.154 1752.7,328.154L1754.71,332.736Z" style="fill:rgb(128,128,128);"/>
    <path d="M882.766,566.16C880.244,554.384 879.769,541.101 880.846,529.259C882.27,513.595 888.446,497.221 894.362,482.855C912.981,437.636 920.834,392.422 938.362,349.855C952.475,315.579 964.883,275.798 987.268,245.951C1031.12,187.479 1083.19,171.893 1122.95,179.669C1163.85,187.668 1206.31,222.204 1221.18,296.563C1228.05,330.883 1205.76,364.319 1171.44,371.183C1137.12,378.047 1103.68,355.756 1096.82,321.437C1096.39,319.324 1095.78,317.081 1095.07,314.872C1092.76,317.194 1090.52,319.671 1088.73,322.049C1072.56,343.616 1065.84,373.378 1055.64,398.145C1038.11,440.712 1030.26,485.926 1011.64,531.145L1007.27,542.062C1008.44,547.6 1009.75,555.652 1009.79,558.9C1009.9,568.369 1008,575.842 1006.07,581.24C996.23,608.844 976.344,620.12 954.323,622.958C943.532,624.348 923.377,626.11 902.008,605.675C890.636,594.799 884.195,580.693 882.766,566.16ZM1007.08,541.195L1007.15,540.741C1007.22,540.029 1006.69,539.31 1006.52,538.62L1007.08,541.195ZM964.724,499.316C973.79,502.119 982.349,507.017 989.665,514.012C980.565,505.311 971.83,501.324 964.724,499.316Z" style="fill:rgb(128,128,128);"/>
    <path d="M1064.77,1622.54C1074.68,1627.52 1089.2,1627.39 1103.57,1628.57C1133.4,1631.01 1164.27,1630.7 1186.31,1632.9C1222.69,1636.54 1255.81,1632.84 1292.28,1630.69C1348.82,1627.37 1405.58,1627.03 1462.28,1623.69C1497.21,1621.64 1527.25,1648.34 1529.31,1683.28C1531.36,1718.22 1504.66,1748.25 1469.72,1750.31C1413.03,1753.64 1356.27,1753.98 1299.72,1757.31C1256.35,1759.86 1216.95,1763.43 1173.69,1759.1C1147.12,1756.44 1107.76,1757.39 1072.77,1752.84C1037.79,1748.29 1006.46,1737.87 984.951,1721.73C963.375,1705.55 949.741,1682.72 942.168,1656.05C936.689,1636.75 935.899,1614.48 931.025,1597.42C922.14,1566.32 916.013,1535.06 906.999,1505.69C897.614,1475.11 885.285,1446.44 853.954,1426.5C824.611,1407.83 790.681,1408.32 757.341,1405.9C722.879,1403.4 688.529,1400.02 655.947,1389.16C580.139,1363.89 501.211,1298.22 465.28,1226.36C457.869,1211.54 453.379,1195.12 445.329,1180.37C439.758,1170.15 430.654,1160.86 423.381,1150.81C413.185,1136.72 404.951,1121.86 400.26,1106.22C390.75,1074.52 393.835,985.258 402.82,952.315C409.849,926.54 423.37,903.737 434.269,879.759C483.031,772.484 552.54,718.357 672.997,704.973C714.4,700.373 761.29,691.338 803.003,695.973C823.867,698.291 846.966,712.206 863.049,724.268C866.669,726.984 871.38,733.483 875.781,740.429C897.356,761.623 901.228,795.917 883.453,821.642C872.297,837.788 859.342,843.643 849.578,846.701C836.058,850.935 822.982,850.583 810.266,846.348C802.541,843.775 794.666,839.587 787.295,832.863C785.577,831.295 782.565,826.659 779.413,821.343C749.188,820.075 716.397,827.761 687.003,831.027C617.567,838.742 577.838,870.404 549.731,932.241C541.624,950.075 530.408,966.516 525.18,985.685C520.268,1003.7 516.541,1052.45 521.74,1069.78C523.661,1076.18 529.504,1081 533.935,1086.66C542.407,1097.49 550.557,1108.42 556.671,1119.63C565.447,1135.72 570.641,1153.48 578.72,1169.64C600.74,1213.68 649.596,1253.35 696.053,1268.84C725.759,1278.74 757.717,1278.5 789.036,1281.1C835.598,1284.97 880.934,1293.34 922.046,1319.5C973.144,1352.02 1001.09,1394.51 1019.4,1442.57C1033.68,1480.05 1041.21,1521.4 1052.97,1562.58C1056.84,1576.1 1058.86,1592.32 1061.5,1608.47C1062.17,1612.52 1063.83,1619.04 1064.77,1622.54ZM801.696,729.517C794.905,732.863 787.685,738.131 781.045,746.892C786.757,739.466 793.839,733.633 801.696,729.517Z" style="fill:rgb(128,128,128);"/>
    <path d="M1745.25,861.3L1751.2,863.277C1823.26,887.912 1891.44,922.759 1917.84,949.159C1933.95,965.272 1946.15,989.109 1951.51,1015.99C1958.46,1050.83 1953.45,1089.89 1940.72,1115.36C1927,1142.79 1902.29,1164.3 1871.51,1179.25C1842.04,1193.56 1806.39,1201.63 1781.89,1208.84C1658.98,1244.99 1409.34,1272.63 1287.95,1232.16C1248.05,1218.86 1205.82,1208.01 1173.76,1191.23C1140,1173.56 1115.26,1149.57 1102.11,1118.26C1089.03,1087.11 1085.89,1046.03 1108.12,990.448C1129.95,935.865 1181.52,896.597 1246.97,872.72C1322.3,845.24 1416.18,837.175 1472,830.973C1496.36,828.267 1520.48,821.346 1544.78,819.726C1573.75,817.794 1605.72,818.207 1634.74,820.846C1648.2,822.07 1674.5,830.418 1678.59,831.74L1685.19,832.024L1693.49,832.455C1702.34,832.627 1711.28,834.678 1719.76,838.789C1730.54,844.022 1739.18,851.916 1745.25,861.3ZM1825.89,1036.72C1805.98,1018.94 1758.37,999.763 1710.17,983.286C1660.01,966.133 1608.57,951.712 1582.87,954.925C1562.34,957.49 1519.57,970.694 1488.33,971.302C1469.27,971.673 1452.51,968.166 1438.66,961.996C1393.14,966.97 1337.54,974.685 1290.43,991.87C1262,1002.24 1235.36,1013.84 1225.88,1037.55C1220.38,1051.31 1216.27,1061.09 1219.03,1069.12C1220.18,1072.47 1223.82,1073.71 1227.01,1075.7C1234.5,1080.36 1243.27,1084.07 1252.64,1087.57C1276.13,1096.37 1302.68,1103.38 1328.05,1111.84C1430.86,1146.11 1642.01,1117.78 1746.11,1087.16C1762.78,1082.26 1785.95,1077.39 1807.12,1069.07C1814.85,1066.03 1824.02,1065.17 1827.28,1058.64C1829.81,1053.59 1826.8,1040.34 1825.89,1036.72Z"/>
    <path d="M533.047,971.391C536.057,960.253 543.316,936.164 552.284,925.403C563.14,912.376 589.017,886.473 612.459,876.065C635.323,865.913 657.808,865.567 677.562,873.292C684.771,874.885 692.156,876.823 695.292,878.567C702.604,882.634 708.265,887.577 712.671,892.64C715.465,895.85 717.876,899.192 719.902,902.664C732.289,907.675 743.225,914.544 751.841,923.159C807.6,978.918 796.176,1048.41 749.433,1098.5C709.847,1140.93 643.784,1163.11 589.947,1145.16C538.976,1128.17 520.115,1091.06 518.337,1048.64C518.261,1046.81 518.228,1044.97 518.248,1043.12L518.223,1042.97C515.04,1020.69 519.928,995.21 533.047,971.391Z"/>
    <path d="M1089,219.744C1113.82,210.388 1138.63,216.757 1148.24,256.163C1156.59,267.541 1162.88,284.566 1161.29,309.956C1161.17,311.838 1160.73,314.753 1159.99,318.437C1161.61,324.323 1162.65,330.453 1163.11,336.754C1168.94,351.259 1175.87,366.129 1180.35,378.304C1190.48,405.85 1192.34,428.717 1190.55,439.425C1184.03,478.54 1160.48,496.641 1130.19,503.281C1108.29,508.081 1073.96,498.568 1057.83,493.408L1050,491.915L1050.03,491.891C1044.68,492.143 1039.61,492.305 1036.47,492.265C1025.5,492.125 1016.71,490.265 1010.77,488.297C993.722,482.636 983.305,472.499 976.692,462.851C970.589,453.947 964.9,433.408 964.614,423.91C963.919,400.84 970.366,379.994 980.637,360.217C985.838,350.203 994.611,341.59 996.817,330.563C998.212,323.59 1001.33,308.128 1006.08,296.675C1006.08,293.342 1006.25,290.211 1006.66,287.509C1009.32,269.917 1017.38,256.94 1026.16,248.159C1029.21,245.105 1032.25,242.465 1035.26,240.197C1047.05,215.176 1068.02,211.842 1089,219.744Z"/>
    <path d="M1383.79,426.538C1384.9,406.259 1391.14,386.041 1397.84,365.947C1403.84,347.962 1415.81,305.442 1430.6,275.865C1442.29,252.49 1457.29,235.261 1470.82,226.236C1494.7,210.317 1514.33,213.763 1528.96,219.076C1545.53,225.089 1569.57,263.417 1569.57,263.417C1569.57,263.417 1564.16,250.421 1561.76,246.824C1574.31,265.649 1583.22,283.942 1589.27,306.66C1595.69,330.728 1607.96,365.763 1609.57,397.721C1611.42,434.615 1601.36,468.321 1575.84,493.841C1567.22,502.466 1553.29,511.404 1533.45,514.372C1524.13,515.765 1503.03,515.016 1492.04,514.482C1482.71,517.133 1474.03,518.872 1466.97,519.356C1449.51,520.551 1435.5,516.648 1425.64,511.72C1400.24,499.019 1392.74,480.432 1390.95,465.103C1384.64,453.463 1382.01,439.956 1383.79,426.538ZM1456.83,371.949C1449.15,370.55 1443.22,371.132 1439.12,371.893C1444.81,371.198 1450.63,371.272 1456.41,372.189L1456.83,371.949Z"/>
    <path d="M1856.04,392.887C1863.63,371.582 1886.04,297.698 1904.36,270.799C1930.79,232.006 1966.27,230.246 1989.05,237.84C2002.8,242.422 2018.63,252.686 2029.02,272.962C2035.97,286.509 2040.74,315.739 2041.78,323.032C2044.16,339.7 2052.3,429.291 2047.02,470.944C2042.83,503.982 2026.78,523.687 2016.05,531.732L2014.34,532.927C2006.51,540.925 1994.99,548.138 1978.09,551.003C1965.46,553.144 1909.25,553.382 1890.25,545.479C1876.49,539.76 1867.12,531.447 1860.76,522.931C1851.19,516.966 1842.22,510.64 1842.22,510.64C1842.22,510.64 1852.4,520.149 1854.82,521.764C1839.05,511.246 1824.59,493.565 1825.93,464.014C1826.23,457.226 1827.97,446.883 1833.04,434.998C1837.86,423.674 1852.02,399.646 1856.04,392.887ZM1979.33,425.087L1979.24,425.335C1981.23,425.583 1982.7,425.819 1983.42,426.025C1982.38,425.727 1980.81,425.383 1979.33,425.087ZM1849.01,424.343L1848.5,424.849L1849.68,423.753L1849.01,424.343ZM1857.72,417.567C1855.51,418.971 1853.37,420.546 1851.32,422.326L1852.72,421.16C1853.56,420.522 1854.4,419.885 1855.25,419.247L1857.72,417.567ZM1865.06,413.496C1862.65,414.607 1860.3,415.884 1858.03,417.366L1860.52,415.849C1861.43,415.354 1862.34,414.86 1863.25,414.365L1865.06,413.496ZM1867.74,412.282L1867.03,412.604L1868.15,412.131L1867.74,412.282Z"/>
    <path d="M1624.3,935.042C1614.57,935.039 1600.88,934.504 1593.24,931.923C1560.08,920.721 1542.26,884.706 1553.46,851.548C1563.38,822.166 1592.79,804.823 1622.43,809.065C1630.5,808.747 1645.48,808.504 1653.38,810.479C1658.96,811.874 1667.23,815.488 1673.03,818.227C1679.97,817.495 1696.42,815.834 1705.83,815.291C1731.03,813.838 1754.5,818.147 1773.63,829.622C1792.3,840.826 1817.22,847.647 1834.05,860.268C1875.69,891.502 1906.44,952.377 1914.55,1016.13C1923.04,1082.83 1906.07,1149.62 1867.84,1187.84C1843.09,1212.59 1802.91,1212.59 1778.16,1187.84C1753.41,1163.09 1753.41,1122.91 1778.16,1098.16C1792.52,1083.8 1791.93,1057.2 1788.74,1032.15C1785.18,1004.22 1776.19,975.415 1757.95,961.732C1746.29,952.987 1729.32,948.738 1715.2,941.994C1710.41,942.4 1698.18,943.456 1691.27,944.164C1675.19,945.811 1659.81,945.831 1646.56,943.183C1640.26,941.922 1630.94,938.061 1624.3,935.042Z"/>
    <g transform="matrix(1,0,0,1,69.198,-22.4441)">
        <text x="1217.55px" y="1142.15px" style="font-family:'NorthernSoul-Caps', 'NorthernSoul';font-size:288px;fill:white;">BACK</text>
    </g>
</svg>
